{"glyphs":{"0":{"ha":717,"x_min":-11,"x_max":656,"o":"m 621 750 q 648 628 640 692 q 656 481 656 565 q 642 347 653 422 q 604 196 632 272 q 590 162 597 179 q 574 129 582 144 q 492 38 542 68 q 379 1 443 7 q 92 142 204 -15 q 36 253 56 194 q 7 374 17 311 q 6 594 -11 488 q 68 803 24 700 q 95 856 79 831 q 131 904 111 881 q 209 969 165 946 q 306 1000 253 993 q 379 997 344 1006 q 449 971 414 988 q 556 882 515 939 q 621 750 597 825 m 456 232 q 494 340 483 285 q 504 454 504 396 q 494 564 504 511 q 468 668 485 617 q 426 761 451 717 q 402 793 415 779 q 375 822 389 807 q 311 832 344 850 q 286 817 299 825 q 263 799 274 808 q 225 744 239 775 q 201 682 211 714 q 179 533 182 608 q 185 383 176 458 q 198 316 189 349 q 225 253 207 283 q 279 193 249 214 q 351 175 310 172 q 360 174 357 175 q 367 175 364 174 q 418 190 396 178 q 456 232 440 203 z "},"1":{"ha":535,"x_min":-1,"x_max":474,"o":"m 439 188 q 472 151 472 183 q 474 99 474 125 q 471 44 474 72 q 426 8 467 10 q 341 4 383 6 q 257 1 299 3 q 197 1 226 0 q 138 1 168 1 q 125 1 131 1 q 113 1 119 0 q 88 28 89 6 q 82 82 85 56 q 76 136 79 108 q 78 151 76 146 q 86 176 81 171 q 111 182 92 181 q 136 183 124 182 q 161 185 149 183 q 176 203 176 186 l 176 256 q 174 438 175 347 q 172 621 174 529 q 169 678 171 650 q 167 736 168 707 q 164 750 165 738 q 151 733 157 740 q 139 719 146 726 q 115 703 125 704 q 89 715 106 703 l 18 769 q 1 791 3 782 q 10 817 -1 800 q 41 863 25 840 q 75 908 57 886 q 101 939 88 924 q 126 969 114 954 q 168 990 144 990 q 241 993 204 993 q 314 994 278 993 q 336 992 322 994 q 364 963 360 985 q 366 945 365 954 q 367 928 367 936 q 370 632 369 779 q 374 338 371 485 q 376 266 375 301 q 379 194 378 231 q 392 193 386 193 q 404 192 397 193 q 422 190 413 190 q 439 188 431 189 z "},"2":{"ha":696,"x_min":0,"x_max":635,"o":"m 596 274 q 632 240 628 272 q 634 212 633 225 q 635 183 635 199 q 634 112 635 147 q 632 40 633 76 q 626 13 632 19 q 601 3 621 7 q 587 1 594 1 q 572 1 579 0 q 521 2 546 1 q 469 3 496 3 q 331 2 399 3 q 192 1 263 1 q 107 6 149 1 q 65 18 79 7 q 49 57 51 29 q 47 106 46 81 q 47 154 47 131 q 48 189 47 172 q 50 222 49 206 q 71 265 50 249 q 92 279 82 272 q 113 293 101 286 q 269 431 206 351 q 368 614 332 511 q 378 702 383 658 q 356 789 372 746 q 317 833 344 815 q 244 833 278 858 q 217 809 229 822 q 193 782 204 796 q 178 763 185 772 q 165 742 172 753 q 132 722 154 722 q 84 722 108 722 q 36 721 60 721 q 13 728 19 722 q 6 751 7 733 q 3 850 4 800 q 0 949 1 900 q 6 976 0 971 q 33 983 13 982 q 70 985 53 985 q 106 986 88 985 q 142 979 133 988 q 151 943 150 971 q 152 940 151 942 q 153 933 153 938 q 172 947 164 940 q 190 958 181 953 q 308 994 251 993 q 410 974 364 996 q 488 914 456 953 q 536 829 521 875 q 555 651 565 738 q 500 481 544 564 q 451 406 478 440 q 393 339 425 371 q 323 267 357 303 q 253 196 289 232 q 232 172 244 189 q 361 164 299 161 q 488 163 424 167 l 488 231 q 496 267 488 260 q 533 276 504 275 q 565 276 549 276 q 596 274 581 275 z "},"3":{"ha":594,"x_min":0,"x_max":538,"o":"m 383 499 q 480 420 446 467 q 526 322 514 374 q 529 218 538 269 q 499 125 521 167 q 422 44 468 72 q 318 4 376 15 q 261 2 289 0 q 206 15 233 4 q 177 31 190 22 q 149 49 164 39 q 147 40 147 46 q 138 8 144 14 q 103 1 131 3 q 51 1 76 -1 q 26 8 32 1 q 18 32 19 14 q 16 102 17 68 q 14 172 15 136 q 12 204 13 188 q 10 236 11 221 q 13 259 8 253 q 33 265 18 265 q 85 265 60 265 q 136 264 110 264 q 165 243 157 261 q 171 228 168 236 q 176 213 174 221 q 205 172 183 189 q 253 148 226 154 q 308 149 279 142 q 357 183 336 157 q 381 234 375 207 q 381 287 388 261 q 357 334 375 313 q 310 369 339 356 q 278 379 294 376 q 247 385 263 382 q 211 385 229 386 q 175 382 193 383 q 163 382 168 382 q 150 383 157 382 q 124 413 125 389 q 119 458 121 436 q 117 504 118 481 q 126 538 117 529 q 161 551 135 547 q 203 558 182 554 q 244 567 224 561 q 304 597 279 576 q 344 645 329 618 q 363 704 358 672 q 360 768 367 736 q 343 815 354 792 q 282 869 324 858 q 203 851 240 879 q 166 809 179 833 q 149 756 153 785 q 147 742 149 746 q 124 718 143 718 q 74 715 99 715 q 26 714 50 715 q 4 731 8 714 q 1 742 3 736 q 0 753 0 747 q 1 858 0 806 q 1 963 1 910 q 18 979 1 979 q 63 980 42 979 q 108 979 85 981 q 128 968 122 978 q 135 943 133 958 q 147 950 143 947 q 261 994 206 990 q 363 976 317 997 q 444 915 410 956 q 493 826 478 874 q 504 742 506 785 q 488 660 503 700 q 448 584 474 619 q 385 524 422 549 q 374 517 379 521 q 361 508 368 514 q 374 503 368 506 q 383 499 379 501 z "},"4":{"ha":672,"x_min":0,"x_max":611,"o":"m 608 131 q 610 114 610 122 q 611 97 611 106 q 610 72 611 85 q 610 46 610 58 q 569 3 610 11 l 563 3 q 427 1 494 1 q 292 1 360 1 q 263 8 271 0 q 253 38 254 17 l 253 125 q 260 150 254 143 q 285 160 267 157 q 318 162 301 161 q 353 164 335 163 l 353 361 l 263 361 q 181 362 222 363 q 100 363 140 361 q 65 364 82 363 q 32 367 49 365 q 10 375 17 369 q 1 396 3 381 q 0 438 0 417 q 0 479 0 458 q 1 519 0 504 q 6 545 3 533 q 18 569 10 557 q 42 601 26 581 l 304 951 q 365 989 329 988 q 420 993 393 992 q 475 994 447 994 q 506 986 497 994 q 519 957 515 978 q 526 902 524 929 q 531 847 529 875 q 531 610 532 728 q 526 403 528 506 q 522 196 525 300 l 522 181 q 527 163 524 167 q 544 157 531 158 l 579 157 q 600 151 594 156 q 608 131 606 146 m 357 510 q 362 633 360 572 q 367 757 364 694 q 361 760 364 760 q 265 637 313 697 q 167 513 217 576 q 262 510 215 515 q 357 510 308 504 z "},"5":{"ha":665,"x_min":0,"x_max":606,"o":"m 468 565 q 567 460 535 521 q 603 321 599 399 q 592 210 606 263 q 544 113 579 158 q 346 3 472 15 q 260 4 303 0 q 176 19 218 8 q 99 68 131 32 q 49 140 69 101 q 15 221 29 179 q 12 238 13 229 q 10 256 11 247 q 29 281 7 278 q 151 289 89 286 q 165 283 158 289 q 176 271 172 276 q 202 240 190 256 q 228 208 214 224 q 285 181 250 185 q 347 192 319 176 q 396 278 399 218 q 319 410 390 361 q 231 456 276 439 q 132 471 185 472 q 95 470 113 469 q 58 471 78 471 q 12 484 24 472 q 0 529 0 496 q 1 630 0 579 q 1 731 1 681 q 3 828 3 779 q 4 926 4 878 l 4 947 q 16 983 7 974 q 53 994 25 993 q 103 994 78 994 q 156 994 129 993 l 426 994 q 449 994 438 994 q 472 993 461 994 q 508 976 499 989 q 519 944 518 963 q 523 861 521 903 q 528 778 525 819 l 528 761 q 521 738 526 746 q 500 728 515 731 q 454 724 476 725 q 410 722 432 722 q 383 731 390 722 q 372 758 375 739 q 370 796 371 778 q 367 833 369 814 q 366 842 367 838 q 365 854 365 847 q 269 856 317 856 q 175 860 222 857 l 175 656 q 208 651 192 653 q 240 647 225 650 q 358 617 300 633 q 468 565 415 601 z "},"6":{"ha":692,"x_min":-1,"x_max":631,"o":"m 629 928 q 630 857 629 892 q 629 786 631 822 q 619 749 629 760 q 582 738 608 739 q 559 737 571 736 q 536 738 547 738 q 498 749 514 740 q 472 779 482 758 q 429 830 456 814 q 374 848 403 846 q 315 840 344 850 q 264 813 286 831 q 199 725 221 778 q 169 635 179 681 q 151 540 158 589 q 153 532 151 536 q 168 540 164 538 q 346 565 253 583 q 455 525 406 553 q 542 449 504 497 q 585 368 571 411 q 600 280 600 325 q 586 192 600 235 q 543 111 572 149 q 461 36 507 65 q 353 4 415 7 q 167 65 249 0 q 24 290 56 154 q 1 476 3 383 q 18 664 -1 569 q 44 761 28 714 q 88 851 60 808 q 103 874 94 863 q 119 897 111 886 q 199 962 156 938 q 296 990 242 986 q 338 994 317 993 q 379 992 358 996 q 423 980 403 988 q 463 958 443 972 q 471 952 467 956 q 482 946 475 949 q 484 956 483 951 q 485 964 485 960 q 490 984 486 979 q 508 990 493 989 q 550 992 529 992 q 592 992 571 992 q 624 964 618 990 q 628 947 626 956 q 629 928 629 938 m 203 389 q 185 374 189 382 q 188 351 182 367 q 217 274 201 310 q 257 221 232 242 q 314 185 282 200 q 379 181 346 169 q 428 225 413 193 q 437 257 435 238 q 442 283 439 276 q 426 349 440 326 q 379 389 411 371 q 203 389 293 440 z "},"7":{"ha":674,"x_min":0,"x_max":613,"o":"m 610 929 q 613 847 613 888 q 611 764 613 806 q 597 718 610 742 q 533 574 565 646 q 469 431 501 503 q 417 308 443 368 q 363 186 390 247 q 358 176 360 182 q 353 164 356 171 q 383 160 369 163 q 401 158 393 158 q 418 156 410 157 q 456 117 454 149 q 460 73 458 94 q 461 31 461 51 q 453 4 461 11 q 426 -4 446 -3 q 307 -4 367 -6 l 61 0 q 31 8 38 1 q 22 38 24 14 q 22 85 22 61 q 24 133 22 110 q 31 159 24 153 q 56 167 38 165 q 107 169 82 168 q 158 171 132 169 q 298 494 229 333 q 446 813 367 654 q 401 819 438 817 q 321 821 364 821 q 239 819 278 821 q 186 814 200 818 q 185 788 185 801 q 183 760 185 774 q 176 733 182 740 q 150 725 169 725 q 95 724 122 724 q 40 725 68 725 q 8 751 14 725 q 3 777 6 764 q 1 804 1 790 q 0 869 0 836 q 0 936 0 903 q 1 949 0 943 q 3 961 1 954 q 12 983 6 976 q 35 992 18 989 q 60 994 47 993 q 88 994 74 994 q 311 991 200 992 q 535 988 422 990 q 557 985 543 988 q 597 969 586 979 q 610 929 608 958 z "},"8":{"ha":599,"x_min":0,"x_max":542,"o":"m 443 478 q 519 362 496 425 q 536 224 542 299 q 524 154 533 188 q 492 92 514 121 q 421 26 461 50 q 328 1 381 3 q 247 3 288 0 q 165 18 206 7 q 78 64 114 33 q 21 133 42 94 q 0 219 0 171 q 13 346 0 285 q 64 461 25 407 q 93 497 76 481 q 126 533 110 514 q 85 586 104 558 q 56 646 67 614 q 51 827 21 743 q 165 964 82 911 q 244 993 203 988 q 326 989 286 999 q 402 956 367 979 q 463 900 438 933 q 518 759 514 832 q 486 611 522 686 q 450 555 471 579 q 396 515 429 531 q 421 497 408 504 q 443 478 433 489 m 181 751 q 176 705 174 729 q 190 659 178 681 q 225 622 203 638 q 279 603 247 607 q 316 602 299 600 q 349 618 333 604 q 399 717 396 665 q 387 788 397 757 q 351 842 376 818 q 250 853 304 885 q 197 797 214 833 q 188 774 192 786 q 181 751 185 763 m 401 279 q 394 347 404 318 q 360 399 383 375 q 328 419 347 411 q 289 429 310 428 q 247 424 268 431 q 207 399 225 417 q 156 293 164 356 q 169 206 150 247 q 239 140 189 165 q 290 129 263 126 q 359 163 329 133 q 396 233 389 192 q 399 260 399 247 q 401 279 400 272 z "},"9":{"ha":586,"x_min":-8,"x_max":536,"o":"m 517 590 q 481 385 500 486 q 428 185 461 285 q 426 178 426 182 q 424 171 426 175 q 443 169 435 169 q 460 168 451 168 q 498 155 486 168 q 513 119 510 142 q 515 78 515 99 q 514 36 514 57 q 489 10 513 17 q 471 8 482 8 q 329 5 400 6 q 188 1 258 4 q 173 1 181 1 q 158 3 165 1 q 140 11 146 6 q 133 29 133 17 q 134 85 133 57 q 138 142 135 114 q 143 159 139 156 q 163 164 147 163 q 197 164 179 164 q 232 163 214 164 q 263 179 251 163 q 301 268 286 222 q 326 363 317 314 q 338 428 333 394 q 347 493 343 461 q 348 499 349 496 q 347 508 347 503 q 335 501 340 503 q 217 460 279 463 q 140 465 176 457 q 74 494 103 474 q 26 548 46 515 q 3 628 7 581 q 24 802 -8 724 q 136 939 57 881 q 241 988 185 975 q 357 989 297 1001 q 503 846 472 964 q 517 590 536 721 m 369 764 q 364 808 374 786 q 337 844 354 829 q 295 864 319 858 q 246 860 271 869 q 172 801 201 843 q 142 711 143 760 q 164 635 142 671 q 176 623 169 628 q 189 615 182 618 q 228 608 208 608 q 267 617 247 607 q 369 764 353 664 z "},"B":{"ha":715,"x_min":0,"x_max":656,"o":"m 540 465 q 653 258 656 396 q 651 226 653 242 q 647 193 650 210 q 563 61 635 108 q 479 20 522 35 q 388 6 436 6 q 270 4 329 4 q 153 4 211 4 q 107 3 129 4 q 63 0 85 1 l 53 0 q 12 7 21 -1 q 1 46 3 15 q 0 80 0 63 q 0 114 0 97 q 29 146 0 144 q 67 149 49 149 q 107 151 86 150 q 108 166 108 158 q 108 181 108 174 q 110 353 110 268 q 113 524 111 438 q 115 671 114 599 q 117 817 115 743 l 117 847 q 81 849 97 849 q 50 851 65 850 q 30 855 35 851 q 25 874 25 858 q 24 921 24 897 q 26 968 25 944 q 32 978 28 974 q 40 986 36 983 q 51 990 46 989 q 63 992 57 990 q 153 994 107 993 q 243 997 199 996 q 306 990 271 997 q 442 910 386 978 q 509 782 492 850 q 514 639 526 714 q 490 573 507 603 q 440 524 472 543 q 438 521 438 521 q 490 494 464 507 q 540 465 517 481 m 263 840 q 261 719 261 779 q 265 599 261 660 q 319 612 296 596 q 358 656 343 628 q 369 708 369 679 q 356 763 368 736 q 323 811 344 790 q 272 842 301 832 q 263 840 269 843 m 504 215 q 500 276 513 246 q 433 360 476 333 q 331 394 389 388 q 301 397 315 397 q 269 396 286 396 q 267 274 268 333 q 264 154 267 215 q 275 152 271 153 q 283 151 279 151 q 347 152 315 151 q 411 154 379 153 q 433 158 422 156 q 456 164 444 161 q 488 182 476 168 q 504 215 499 196 z "},"C":{"ha":650,"x_min":-1,"x_max":589,"o":"m 588 194 q 589 112 589 153 q 589 29 589 71 q 585 9 589 14 q 567 3 582 4 q 528 1 547 1 q 489 0 508 0 q 472 5 478 -1 q 461 22 465 11 q 451 19 456 21 q 442 17 447 18 q 350 2 396 3 q 260 17 304 1 q 219 31 239 24 q 181 49 199 38 q 110 106 139 72 q 61 183 81 140 q 20 301 36 242 q 1 424 4 360 q 4 577 -1 501 q 31 728 10 653 q 51 784 39 757 q 79 838 63 811 q 249 971 139 935 q 433 943 347 1003 q 440 938 436 940 q 451 931 444 935 q 452 953 451 943 q 453 972 453 963 q 469 992 453 989 q 516 994 493 993 q 563 994 539 994 q 583 971 583 994 q 585 941 585 956 q 586 911 586 926 q 585 823 586 867 q 583 735 585 779 q 577 705 583 711 q 547 699 571 699 q 506 698 526 699 q 467 697 486 697 q 433 703 440 697 q 422 735 426 710 q 416 768 419 751 q 407 801 413 785 q 366 848 396 838 q 303 839 336 858 q 249 789 269 819 q 217 722 228 758 q 193 617 201 669 q 182 510 185 564 q 182 394 178 451 q 199 317 185 354 q 236 244 213 281 q 268 217 247 228 q 313 203 289 207 q 360 203 336 200 q 399 217 383 206 q 419 237 411 225 q 432 263 426 249 q 463 282 440 282 q 506 283 485 282 q 550 285 528 285 q 576 279 569 285 q 585 256 582 274 q 587 225 586 240 q 588 194 588 210 z "},"D":{"ha":682,"x_min":0,"x_max":689,"o":"m 501 810 q 581 271 689 563 q 531 182 563 221 q 456 113 500 143 q 260 25 365 51 q 103 0 183 7 q 72 -1 88 -1 q 40 1 56 0 q 14 11 22 4 q 4 36 6 18 q 1 93 1 64 q 0 150 0 122 q 6 172 0 167 q 31 176 13 176 q 58 177 44 178 q 86 176 71 176 q 90 822 96 500 l 40 822 q 14 829 21 822 q 6 856 7 836 q 6 944 3 900 q 15 974 7 965 q 43 986 22 983 q 90 990 67 989 q 138 990 114 992 q 231 983 185 989 q 321 957 276 976 q 354 941 338 950 q 386 921 371 932 q 447 869 418 897 q 501 810 476 842 m 436 351 q 450 423 449 388 q 447 494 451 458 q 372 714 435 614 q 304 783 344 757 q 292 791 299 788 q 275 800 285 794 q 279 505 278 650 q 282 213 281 360 q 294 211 289 211 q 311 217 306 214 q 436 351 403 257 z "},"E":{"ha":600,"x_min":-1,"x_max":539,"o":"m 515 153 q 539 128 539 149 q 538 85 539 106 q 535 43 538 64 q 486 3 529 3 q 328 1 407 1 q 168 0 249 0 q 106 -1 136 0 q 43 0 75 -1 q 12 9 19 1 q 1 40 4 17 q -1 89 -1 64 q 0 138 0 114 q 19 157 0 154 q 43 158 31 158 q 67 160 56 158 q 86 165 82 161 q 90 183 90 168 q 87 498 88 342 q 85 813 86 654 l 85 839 q 63 840 74 840 q 42 842 53 840 q 15 849 22 843 q 6 875 8 856 q 1 956 1 914 q 8 983 1 975 q 33 992 14 990 q 92 992 63 993 q 149 992 121 992 q 241 992 194 992 q 333 993 288 992 q 410 994 372 993 q 489 993 449 994 q 518 984 510 993 q 528 954 526 975 q 528 914 528 935 q 525 874 528 893 q 516 851 522 857 q 492 843 510 844 q 441 841 467 842 q 389 838 415 840 q 358 837 374 838 q 326 836 342 836 q 300 834 313 835 q 272 832 288 833 l 272 599 l 325 599 q 377 597 351 597 q 429 597 403 597 q 463 587 454 596 q 471 553 472 578 q 470 506 471 529 q 468 460 469 483 q 460 429 467 438 q 431 418 453 421 q 397 415 414 415 q 364 415 381 415 l 272 415 q 273 289 269 351 q 278 163 276 226 q 315 160 297 161 q 350 158 332 160 l 465 158 q 490 157 478 158 q 515 153 503 156 z "},"F":{"ha":638,"x_min":0,"x_max":576,"o":"m 576 957 q 576 913 576 935 q 575 868 576 890 q 563 838 572 847 q 532 826 554 829 q 490 824 511 825 q 449 824 469 824 l 290 824 l 290 604 l 324 604 q 388 605 356 604 q 451 604 419 606 q 503 590 490 604 q 515 539 515 576 q 514 499 515 519 q 510 460 513 479 q 499 432 507 440 q 472 419 492 424 q 442 417 457 417 q 413 415 428 417 q 355 413 383 414 q 297 411 326 413 q 294 404 296 407 q 293 399 293 401 q 294 290 294 344 q 294 182 294 236 q 299 160 294 163 q 321 156 303 157 q 340 156 331 156 q 358 157 349 157 q 392 129 390 157 q 392 81 392 106 q 390 31 392 56 q 382 10 389 15 q 358 3 375 4 q 319 3 339 3 q 279 3 299 4 q 188 1 233 3 q 96 0 142 0 q 58 4 76 0 q 36 29 39 8 q 33 77 35 53 q 32 125 32 101 q 38 147 32 142 q 58 156 43 153 q 91 160 75 158 q 125 165 107 163 q 120 494 122 331 q 115 825 118 657 q 90 826 103 825 q 65 828 78 826 q 42 828 54 828 q 19 829 31 828 q 0 849 0 832 l 0 971 q 17 986 0 986 q 33 989 25 988 q 49 990 42 990 q 277 991 164 990 q 504 992 390 992 q 526 992 515 992 q 547 989 536 992 q 576 957 575 985 z "},"G":{"ha":708,"x_min":-3,"x_max":647,"o":"m 644 965 q 647 951 646 958 q 647 935 647 943 q 645 864 646 899 q 642 794 644 829 q 641 764 642 779 q 640 733 640 749 q 635 717 639 721 q 619 710 631 713 q 607 708 615 708 q 533 710 571 710 q 458 713 496 710 q 438 718 443 714 q 431 738 433 722 q 406 792 426 768 q 358 822 386 815 q 301 815 329 829 q 254 778 274 803 q 225 729 236 754 q 207 676 214 704 q 183 498 183 586 q 213 322 183 410 q 235 272 222 296 q 267 226 247 247 q 358 186 304 185 q 390 196 375 186 q 416 220 406 206 q 431 251 426 235 q 432 285 436 268 q 417 299 426 299 q 396 301 406 301 q 376 301 386 301 q 346 299 361 300 q 315 299 331 299 q 290 305 297 299 q 281 329 282 311 q 278 376 278 353 q 281 422 279 399 q 289 443 282 438 q 311 451 296 449 q 336 453 324 453 q 361 453 349 453 l 543 453 q 560 452 551 453 q 576 450 568 451 q 607 422 603 449 q 611 403 611 411 q 603 241 618 319 q 539 92 589 163 q 375 0 478 8 q 277 8 328 -4 q 181 47 226 21 q 98 115 135 74 q 42 211 61 157 q 4 393 10 301 q 2 557 -3 476 q 26 717 7 638 q 80 839 44 785 q 175 932 115 893 q 421 964 293 1007 q 456 949 439 958 q 492 929 472 939 q 494 948 493 940 q 494 964 494 956 q 522 993 499 993 q 618 989 569 993 q 644 965 640 988 z "},"H":{"ha":856,"x_min":-1,"x_max":794,"o":"m 771 149 q 792 126 792 146 q 794 81 793 103 q 794 36 794 60 q 786 9 794 17 q 758 1 778 1 q 683 0 721 0 q 610 0 646 0 q 554 -1 582 0 q 499 0 526 -1 q 468 9 476 1 q 458 38 460 17 q 458 79 457 58 q 460 121 458 100 q 469 145 461 139 q 494 153 476 151 l 532 153 l 532 413 l 258 413 q 256 283 256 347 q 256 153 256 219 q 277 150 267 151 q 297 146 288 149 q 325 113 324 140 q 327 74 326 93 q 328 36 328 56 q 317 10 328 21 q 292 0 307 0 q 173 0 232 0 q 54 1 114 0 q 15 12 26 1 q 1 50 4 22 q 1 108 -1 79 q 13 132 4 125 q 38 142 21 139 q 57 143 47 143 q 78 144 67 143 q 84 494 81 321 q 92 844 88 667 l 63 844 q 44 845 53 844 q 26 847 36 846 q 1 874 1 850 q 1 918 0 896 q 4 964 1 940 q 13 985 6 979 q 36 992 21 990 q 49 993 40 993 l 311 985 q 342 976 335 983 q 351 947 349 969 q 353 882 356 917 q 318 847 351 849 q 288 847 303 846 q 257 847 274 847 q 257 708 254 776 q 261 568 260 639 l 533 568 q 539 701 538 635 q 540 838 540 768 q 519 840 529 839 q 497 842 508 840 q 475 849 482 844 q 467 869 468 854 q 463 912 464 890 q 464 956 463 933 q 476 977 465 971 q 499 986 486 983 q 528 990 514 989 q 557 993 542 992 q 647 995 601 996 q 738 989 693 994 q 776 974 765 985 q 790 936 788 964 q 792 883 794 914 q 754 843 790 849 q 733 840 743 840 q 710 838 722 840 l 710 807 q 706 540 707 672 q 703 272 706 407 q 702 224 703 249 q 701 176 701 200 q 704 158 700 161 q 724 151 708 154 q 748 150 736 150 q 771 149 760 150 z "},"I":{"ha":475,"x_min":-1,"x_max":414,"o":"m 336 157 q 369 146 361 154 q 378 114 378 138 q 378 74 378 94 q 376 33 378 54 q 368 6 375 13 q 340 0 361 0 q 212 0 275 0 q 83 1 149 0 q 54 3 64 1 q 39 9 44 4 q 31 24 33 14 q 28 51 29 33 q 24 88 25 69 q 25 125 24 106 q 61 161 25 160 q 74 163 68 163 q 85 163 79 163 l 111 163 q 112 506 114 336 q 111 847 110 675 q 33 853 74 857 q 6 857 14 851 q 0 882 -1 863 q 3 928 1 906 q 7 975 4 951 q 26 994 10 992 q 75 999 51 999 q 115 998 94 999 q 156 997 136 997 l 368 993 q 397 986 388 993 q 410 960 407 979 q 414 886 414 924 q 390 861 414 863 q 347 858 368 858 q 304 856 325 857 l 274 856 q 278 507 276 679 q 282 160 279 335 q 310 158 297 158 q 336 157 324 158 z "},"J":{"ha":668,"x_min":-1,"x_max":607,"o":"m 556 996 q 597 987 588 996 q 607 946 606 978 q 607 918 607 932 q 604 889 607 904 q 594 863 601 869 q 568 854 588 857 q 537 851 553 851 q 503 850 521 851 q 502 833 503 842 q 503 817 501 825 q 506 765 504 790 q 508 714 507 739 q 512 551 511 632 q 511 389 513 471 q 476 179 508 279 q 447 115 465 144 q 403 60 428 85 q 353 23 381 36 q 293 4 325 10 q 207 1 249 -4 q 125 25 165 7 q 33 115 61 54 q 13 173 19 143 q 4 233 7 203 q 0 311 1 272 q 7 389 -1 350 q 17 416 11 410 q 44 424 24 422 q 91 424 68 425 q 139 424 114 424 q 154 408 154 424 q 154 396 154 401 q 156 383 154 390 q 158 310 157 347 q 163 235 160 272 q 168 208 164 221 q 176 182 172 194 q 192 156 182 167 q 214 138 201 146 q 262 129 235 122 q 300 160 289 136 q 310 183 306 171 q 317 210 314 196 q 327 283 322 246 q 335 357 332 319 q 338 467 338 413 q 339 576 339 521 q 340 702 340 639 q 339 828 339 765 q 338 838 339 833 q 338 850 338 843 l 307 850 q 293 850 300 850 q 279 851 286 850 q 244 863 251 854 q 233 900 236 872 q 233 931 233 915 q 235 963 233 947 q 244 983 236 974 q 264 994 253 992 q 276 997 271 996 q 289 996 282 997 q 422 994 356 992 q 556 996 489 996 z "},"K":{"ha":847,"x_min":-1,"x_max":786,"o":"m 744 994 q 775 985 767 994 q 785 954 783 976 q 782 896 786 928 q 769 864 779 874 q 738 853 760 854 q 703 833 718 851 q 602 724 653 778 q 501 613 551 669 q 449 552 474 583 q 396 489 424 521 q 399 483 399 486 q 403 476 400 479 q 521 333 463 404 q 638 188 579 261 q 651 174 644 179 q 668 171 657 169 l 671 171 q 708 159 700 168 q 717 119 715 150 q 717 78 717 99 q 718 35 717 57 q 713 13 718 19 q 692 3 707 6 q 665 1 678 1 q 639 0 653 0 q 533 1 586 0 q 426 3 479 1 q 401 9 406 4 q 394 35 397 14 q 393 81 393 58 q 392 126 393 103 q 397 145 392 140 q 414 153 401 150 q 436 156 425 156 q 461 158 447 156 q 363 292 411 225 q 263 428 314 358 l 263 165 q 287 164 275 164 q 310 163 299 164 q 339 138 338 160 q 340 79 340 108 q 340 22 340 50 q 322 4 340 7 q 308 3 315 3 q 294 4 301 4 l 60 4 q 28 6 40 4 q 10 13 17 7 q 2 29 4 18 q 0 60 0 40 q -1 97 0 79 q 1 132 -1 114 q 9 156 3 150 q 33 163 15 161 l 90 163 q 94 508 93 336 q 96 857 94 681 q 72 859 83 858 q 50 861 61 860 q 23 871 31 864 q 14 899 15 878 q 14 968 13 933 q 19 990 14 983 q 40 999 25 996 q 56 1000 44 1000 l 249 1000 q 319 994 288 1000 q 350 983 342 992 q 360 950 358 974 q 357 888 361 922 q 329 860 354 863 q 313 858 321 858 q 294 858 304 858 q 281 859 288 858 q 264 860 274 860 l 264 564 q 294 590 272 569 q 342 638 315 610 q 398 699 368 667 q 454 762 428 732 q 499 815 481 792 q 524 847 518 838 q 511 849 517 849 q 500 851 506 850 q 461 897 464 857 q 461 928 461 913 q 463 958 461 943 q 494 993 464 989 q 507 995 501 994 q 519 996 513 996 q 632 996 576 996 q 744 994 688 996 z "},"L":{"ha":739,"x_min":-1,"x_max":678,"o":"m 675 233 q 676 218 676 228 q 678 132 678 175 q 678 46 678 89 q 668 10 676 18 q 632 1 660 3 q 546 0 589 0 q 460 0 503 0 q 306 1 382 0 q 151 1 229 1 q 91 1 121 1 q 32 3 61 1 q 10 11 19 3 q 1 32 1 19 q -1 85 0 58 q 1 139 -1 111 q 13 167 3 160 q 42 174 22 175 l 104 174 q 106 509 103 343 q 101 844 110 675 q 69 846 85 846 q 39 847 54 846 q 15 854 19 850 q 7 879 10 858 q 6 913 6 896 q 6 949 6 931 q 42 989 7 983 q 63 990 49 990 q 146 988 104 989 q 229 985 188 986 l 307 985 q 327 985 318 985 q 346 982 336 985 q 369 957 367 979 q 370 912 369 933 q 368 868 371 890 q 342 846 367 846 q 310 844 326 844 q 278 844 294 844 q 283 510 281 676 q 289 171 286 343 l 521 171 l 521 219 q 528 250 521 243 q 557 257 535 257 q 603 258 581 258 q 647 256 625 257 q 667 251 661 256 q 675 233 672 246 z "},"M":{"ha":921,"x_min":-1,"x_max":860,"o":"m 814 168 q 844 160 835 168 q 856 131 853 151 q 860 40 860 86 q 851 13 860 21 q 822 3 843 4 q 762 1 792 1 q 701 0 732 1 q 647 -1 674 0 q 594 0 621 -1 q 550 13 563 1 q 535 56 538 24 q 532 126 531 94 q 547 164 535 154 q 585 171 558 174 l 607 171 q 610 217 610 178 q 611 311 611 256 q 610 431 611 367 q 608 551 610 494 q 605 647 607 607 q 600 697 603 688 q 592 687 596 692 q 585 676 588 682 l 468 485 q 424 450 446 447 q 382 479 403 453 q 325 553 353 515 q 269 629 297 590 q 254 651 261 640 q 238 672 247 661 q 236 589 235 631 q 238 506 238 547 q 239 420 238 463 q 240 336 240 378 q 242 251 242 293 q 243 167 242 210 q 263 163 254 164 q 281 158 271 161 q 313 119 311 149 q 313 81 313 100 q 313 43 314 63 q 301 13 310 21 q 272 3 293 6 q 233 1 253 1 q 194 1 214 1 q 133 1 164 1 q 72 0 103 0 l 51 0 q 23 11 32 3 q 11 39 14 19 q 7 115 7 76 q 18 152 8 143 q 54 164 28 161 q 65 165 60 164 q 74 165 69 165 q 76 222 75 172 q 76 343 76 272 q 76 497 76 414 q 74 653 75 579 q 72 780 74 726 q 68 847 69 833 l 42 847 q 12 858 21 850 q 1 885 3 865 q -1 931 -1 908 q 1 976 0 953 q 31 1003 3 1001 l 106 1003 q 178 1000 142 1001 q 251 999 215 999 q 293 969 279 999 q 350 862 317 913 q 417 760 383 811 q 426 749 422 754 q 435 765 431 757 q 443 779 439 772 q 497 880 471 829 q 551 981 524 931 q 589 1006 564 1006 q 664 1006 626 1007 q 735 1003 700 1004 q 806 999 769 1001 q 849 954 847 994 q 849 915 850 935 q 846 875 849 894 q 804 838 842 839 q 783 836 793 836 q 758 836 772 836 q 762 669 761 753 q 764 503 763 586 q 768 336 765 419 q 778 169 771 253 q 796 169 788 169 q 814 168 804 169 z "},"N":{"ha":932,"x_min":0,"x_max":872,"o":"m 869 963 q 870 909 872 935 q 865 856 868 883 q 853 835 863 842 q 828 826 843 829 q 801 824 814 825 q 772 821 788 824 l 772 781 q 776 577 775 678 q 779 375 778 476 q 782 305 781 339 q 783 235 783 271 q 779 51 783 143 q 739 10 779 13 l 606 6 q 554 33 572 6 q 544 50 550 39 q 406 340 474 196 q 267 629 338 483 q 260 642 264 636 q 254 656 257 649 l 250 656 l 249 654 l 249 639 q 253 406 250 521 q 263 172 256 290 q 272 170 268 171 q 281 169 276 169 q 299 169 290 168 q 318 167 308 169 q 347 138 343 163 q 352 91 350 114 q 356 44 354 68 q 349 13 357 21 q 319 3 342 6 q 292 1 306 1 q 267 0 279 0 q 161 1 214 0 q 56 3 108 1 q 24 11 31 4 q 15 43 18 18 q 13 87 14 65 q 10 132 11 108 q 15 160 10 154 q 43 165 21 165 l 78 165 q 71 493 69 331 q 60 819 72 656 q 43 822 54 819 q 10 837 19 826 q 0 871 1 847 q 0 896 0 883 q 1 921 0 908 q 3 942 1 932 q 4 964 4 953 q 26 992 7 988 q 52 997 39 994 q 79 1001 65 1000 q 185 1001 132 1004 q 290 993 238 999 q 333 958 321 989 q 367 873 350 915 q 403 789 383 831 q 503 567 453 676 q 606 344 554 457 q 614 331 611 336 q 615 372 615 336 q 615 458 615 407 q 612 567 614 508 q 608 679 610 626 q 603 771 606 732 q 599 821 600 810 q 584 824 592 822 q 568 825 576 825 q 524 864 532 828 q 524 972 511 918 q 551 996 528 993 q 610 1000 581 1000 q 718 999 664 1000 q 826 999 772 999 q 869 963 868 999 z "},"O":{"ha":782,"x_min":-10,"x_max":721,"o":"m 683 747 q 712 626 703 689 q 721 479 721 563 q 706 346 718 421 q 664 194 694 271 q 631 129 649 158 q 541 38 594 68 q 418 1 488 7 q 103 142 225 -15 q 42 251 63 193 q 10 372 21 310 q 9 591 -10 485 q 76 800 28 697 q 106 852 89 828 q 144 900 124 876 q 338 996 219 981 q 417 992 379 1001 q 493 967 456 983 q 613 878 568 935 q 683 747 657 822 m 501 231 q 542 339 531 283 q 554 453 554 394 q 544 561 554 508 q 515 665 533 614 q 469 758 497 714 q 443 790 458 776 q 413 819 428 804 q 343 829 379 846 q 290 796 315 817 q 248 742 263 772 q 222 679 233 711 q 197 531 200 606 q 204 382 194 457 q 219 315 208 347 q 249 251 229 282 q 308 192 274 213 q 388 174 342 171 q 397 173 393 174 q 404 174 401 172 q 461 189 436 176 q 501 231 486 201 z "},"P":{"ha":697,"x_min":0,"x_max":642,"o":"m 633 757 q 603 571 642 656 q 512 452 568 496 q 372 400 456 408 q 344 398 358 399 q 315 394 331 397 q 317 294 317 344 q 321 192 318 243 q 341 188 332 189 q 360 185 350 186 q 393 157 388 181 q 403 99 403 129 q 399 40 404 69 q 365 4 394 13 q 335 0 350 0 q 217 1 275 0 q 99 3 158 1 q 69 12 79 4 q 56 39 58 19 q 51 146 49 93 q 82 179 51 175 q 106 184 93 182 q 132 189 118 186 q 124 518 128 356 q 118 847 121 681 q 83 851 99 850 q 50 853 67 853 q 14 863 26 853 q 0 904 1 874 q 0 934 0 919 q 3 964 0 949 q 15 999 6 988 q 49 1013 24 1010 q 150 1017 99 1019 q 222 1014 186 1015 q 294 1008 258 1013 q 374 997 335 1003 q 451 981 413 992 q 581 901 535 960 q 633 757 628 843 m 465 665 q 454 765 476 719 q 394 830 436 807 q 313 846 353 853 l 313 588 q 359 585 336 585 q 404 594 382 586 q 465 665 456 614 z "},"Q":{"ha":814,"x_min":-3,"x_max":751,"o":"m 731 158 q 751 120 751 138 q 732 82 751 103 q 706 54 719 67 q 678 29 693 42 q 640 10 654 10 q 604 35 626 11 q 588 53 596 44 q 569 72 579 61 q 564 67 567 69 q 558 63 561 65 q 449 5 507 17 q 325 8 392 -7 q 129 113 203 38 q 26 308 56 189 q 4 436 11 372 q 0 565 -3 500 q 41 767 3 674 q 158 938 79 861 q 218 985 186 965 q 289 1013 250 1004 q 326 1017 306 1017 q 406 1013 367 1018 q 485 994 446 1008 q 547 960 519 982 q 594 907 574 938 q 657 790 633 851 q 696 663 681 729 q 671 247 744 449 q 667 238 668 242 q 664 228 667 233 q 699 192 682 208 q 731 158 715 175 m 522 388 q 529 476 531 432 q 521 565 528 521 q 499 659 514 614 q 456 744 483 704 q 415 789 439 769 q 378 809 397 801 q 335 811 358 817 q 288 794 308 806 q 251 758 267 782 q 231 726 240 742 q 215 692 222 710 q 185 574 194 633 q 188 453 176 515 q 209 360 196 404 q 249 274 222 315 q 273 240 260 256 q 304 213 286 224 q 358 191 331 197 q 417 204 385 185 q 410 212 413 208 q 404 218 407 215 q 383 242 393 231 q 364 267 372 253 q 364 336 336 301 q 387 359 375 349 q 410 381 399 369 q 469 385 438 401 q 491 371 481 378 q 515 357 501 364 q 519 373 518 365 q 522 388 521 381 z "},"R":{"ha":701,"x_min":0,"x_max":640,"o":"m 638 101 q 640 75 639 89 q 638 49 640 61 q 589 0 633 4 q 554 -1 571 -1 q 519 0 538 0 q 458 -1 489 0 q 397 1 428 -1 q 369 5 379 3 q 353 12 358 7 q 344 27 347 17 q 340 54 342 38 q 336 110 336 81 q 343 135 338 129 q 367 143 349 140 q 375 145 371 144 q 386 147 379 146 q 307 292 346 221 q 229 436 268 364 q 224 435 228 435 q 225 292 222 364 q 226 150 228 221 q 247 149 238 149 q 264 146 256 149 q 291 134 283 143 q 301 106 299 125 q 302 81 301 93 q 301 57 303 68 q 254 10 300 10 q 169 8 211 8 q 82 7 126 8 q 65 10 76 7 q 44 18 53 11 q 35 39 36 25 q 31 74 32 57 q 29 110 29 92 q 36 139 29 132 q 67 149 43 146 q 75 151 67 149 q 71 504 74 329 q 57 857 68 679 q 41 861 49 860 q 26 864 33 863 q 1 889 3 865 q 0 928 0 908 q 0 967 0 947 q 22 993 1 985 q 63 1007 42 1004 q 106 1011 85 1010 q 209 1013 158 1014 q 313 1003 260 1011 q 451 944 389 990 q 474 926 463 936 q 493 904 485 915 q 556 738 546 822 q 517 565 565 654 q 406 461 478 497 q 396 457 400 458 q 386 453 392 456 q 392 438 389 442 q 422 383 407 410 q 453 331 438 357 q 503 246 478 288 q 554 163 529 204 q 583 143 564 144 q 600 142 594 143 q 638 101 633 133 m 222 575 q 374 624 313 568 q 399 654 389 638 q 415 690 408 671 q 415 769 428 731 q 365 833 401 807 q 305 864 338 853 q 238 879 272 875 q 228 878 233 879 q 217 876 224 878 q 219 726 218 801 q 222 575 221 651 z "},"S":{"ha":644,"x_min":0,"x_max":583,"o":"m 539 993 q 579 957 574 992 q 583 921 583 940 q 582 826 582 872 q 579 732 582 779 q 569 701 578 708 q 538 690 561 693 q 494 689 515 689 q 451 689 472 689 q 417 711 425 688 q 407 738 411 725 q 396 763 403 750 q 381 793 389 778 q 364 824 374 808 q 331 855 351 844 q 288 868 311 865 q 231 838 249 872 q 221 769 213 804 q 256 701 229 732 q 292 660 274 681 q 331 619 311 639 q 381 565 356 592 q 431 511 407 539 q 508 385 481 453 q 536 238 536 317 q 522 150 538 192 q 478 72 506 108 q 457 51 469 61 q 432 35 444 42 q 350 8 392 15 q 264 3 308 0 q 239 3 251 4 q 214 6 226 3 q 179 15 196 10 q 144 28 163 21 q 127 5 140 10 q 97 0 114 0 q 70 0 83 0 q 43 1 57 0 q 10 36 11 6 q 6 63 7 50 q 4 90 4 76 q 1 163 1 126 q 0 235 1 199 q 1 249 0 242 q 3 264 1 257 q 15 295 7 288 q 46 306 22 303 q 81 309 64 308 q 118 308 99 310 q 149 297 140 306 q 160 267 157 289 q 162 240 161 253 q 163 214 163 228 q 175 183 163 194 q 225 148 199 160 q 286 143 251 136 q 335 171 318 150 q 353 224 353 192 q 308 350 353 293 q 276 388 293 369 q 242 425 260 406 q 199 469 221 447 q 157 514 178 490 q 95 601 119 554 q 63 703 71 649 q 70 835 51 774 q 142 944 89 896 q 224 992 179 981 q 319 1001 269 1004 q 351 998 339 1000 q 373 992 363 996 q 397 979 383 988 q 435 957 411 971 q 453 990 442 982 q 492 996 464 997 q 515 995 503 996 q 539 993 528 994 z "},"T":{"ha":710,"x_min":0,"x_max":649,"o":"m 607 1003 q 640 993 631 1001 q 649 961 649 985 q 647 892 649 926 q 642 824 644 858 q 632 799 639 806 q 606 793 625 793 q 572 792 589 792 q 539 794 556 792 q 513 822 514 796 q 512 841 511 832 q 511 861 513 850 q 504 883 510 878 q 482 888 499 888 q 444 887 463 886 q 406 888 425 888 l 406 167 q 435 163 421 164 q 465 160 450 163 q 490 150 485 156 q 497 125 496 144 q 501 31 501 76 q 478 6 501 10 q 465 3 471 4 q 453 3 460 3 q 340 1 396 1 q 226 0 285 0 q 176 10 186 -1 q 165 61 165 21 q 165 118 164 89 q 178 151 168 142 q 213 161 189 161 q 230 162 221 163 q 250 161 239 161 q 247 522 249 343 q 244 883 246 701 l 160 883 q 146 865 146 883 q 147 846 146 856 q 147 825 147 836 q 138 795 146 804 q 110 783 131 786 q 78 781 94 781 q 44 785 61 782 q 11 818 18 786 q 3 885 6 851 q 0 954 0 919 q 8 990 0 982 q 43 1001 15 999 q 190 1006 115 1006 q 339 1005 265 1006 q 488 1004 413 1004 q 547 1003 517 1003 q 607 1003 576 1004 z "},"U":{"ha":817,"x_min":0,"x_max":757,"o":"m 701 1003 q 734 994 724 1003 q 750 964 744 985 q 756 919 757 940 q 750 874 754 897 q 715 836 744 847 q 701 832 708 833 q 683 828 693 831 l 683 801 l 683 546 q 676 354 683 449 q 650 164 668 260 q 510 14 628 47 q 433 1 471 3 q 354 0 394 -1 q 282 8 318 1 q 190 50 224 17 q 142 138 157 83 q 122 233 128 185 q 111 331 117 282 q 97 549 100 439 q 90 768 93 658 q 90 801 90 785 q 89 836 89 818 q 62 838 74 838 q 39 839 50 839 q 15 847 24 842 q 6 869 7 853 q 1 918 3 893 q 0 968 0 943 q 24 997 0 990 q 57 1004 42 1004 q 183 1005 121 1004 q 308 1006 246 1006 q 346 974 340 1006 q 349 922 351 947 q 344 869 347 896 q 310 840 340 844 q 296 839 303 839 q 281 839 289 839 q 279 826 279 832 q 279 814 279 821 q 281 675 276 743 q 290 538 285 607 q 297 433 293 485 q 304 328 300 381 q 319 249 308 289 q 339 211 326 228 q 372 186 351 194 q 436 191 404 175 q 482 243 468 207 q 492 296 489 265 q 497 413 494 354 q 499 531 499 472 q 497 663 499 597 q 492 794 494 728 q 490 813 490 804 q 488 833 489 822 q 475 834 481 833 q 463 835 469 835 q 426 865 435 839 q 421 965 413 914 q 433 987 424 979 q 453 997 442 994 q 489 1001 471 1001 q 595 1003 542 1003 q 701 1003 649 1003 z "},"V":{"ha":913,"x_min":0,"x_max":856,"o":"m 803 1003 q 844 967 836 999 q 844 894 856 933 q 826 871 839 878 q 799 863 814 864 l 751 863 q 742 815 746 839 q 732 767 738 790 q 685 583 708 675 q 639 400 663 492 q 606 260 622 329 q 571 121 589 192 q 558 81 565 101 q 543 42 550 61 q 479 1 526 0 q 419 0 449 1 q 360 0 390 -1 q 288 58 301 3 q 256 186 272 124 q 222 313 239 249 q 176 488 199 400 q 131 663 153 575 q 110 740 119 701 q 92 818 101 779 q 89 829 90 824 q 85 842 88 835 l 39 842 q 12 850 19 844 q 3 874 4 856 q 0 926 0 900 q 0 978 0 951 q 5 990 0 983 q 15 999 10 996 q 43 1004 26 1004 q 150 1005 96 1004 q 257 1006 204 1006 q 278 1004 271 1006 q 317 964 313 997 q 319 931 319 947 q 318 897 319 914 q 308 865 317 875 q 276 851 299 856 q 261 847 272 850 q 347 522 304 683 q 435 192 390 360 q 441 204 439 200 q 443 213 443 208 q 476 355 460 283 q 508 497 492 426 q 548 667 528 583 q 588 838 568 751 q 591 851 590 844 q 594 865 592 857 q 570 865 582 865 q 547 867 558 865 q 517 875 524 868 q 508 907 510 882 q 509 938 508 922 q 510 968 510 953 q 540 1004 511 999 q 558 1006 547 1006 q 671 1005 615 1006 q 783 1004 726 1004 q 793 1003 789 1004 q 803 1003 797 1003 z "},"W":{"ha":1103,"x_min":0,"x_max":1046,"o":"m 979 1004 q 1040 933 1046 1004 q 1039 926 1039 931 q 1038 918 1039 922 q 1020 874 1033 888 q 975 858 1007 861 q 962 857 968 857 q 947 857 956 857 q 928 794 938 825 q 910 731 918 763 q 838 435 874 582 q 767 139 803 288 q 756 97 761 118 q 744 56 751 76 q 726 25 738 33 q 690 17 714 17 l 624 17 q 586 39 599 17 q 538 136 561 88 q 516 189 526 163 q 493 244 506 215 q 488 232 490 238 q 482 222 485 226 q 448 140 465 181 q 415 57 431 99 q 333 0 393 0 q 293 2 308 0 q 267 12 278 4 q 251 34 257 19 q 239 72 244 49 q 199 262 218 168 q 161 451 179 356 q 124 651 142 551 q 89 851 107 751 q 87 857 88 854 q 85 863 86 860 q 63 863 74 863 q 42 864 53 863 q 4 893 8 864 q 1 935 1 914 q 0 976 0 956 q 9 995 0 989 q 29 1004 18 1001 q 51 1008 40 1007 q 72 1010 61 1010 q 170 1009 121 1010 q 268 1008 219 1008 q 304 979 297 1007 q 308 938 311 958 q 300 897 306 917 q 285 878 296 883 q 263 869 275 872 q 248 867 256 867 q 229 865 240 867 q 285 561 257 713 q 349 254 313 410 q 354 265 351 261 q 358 272 357 268 q 397 374 378 324 q 433 478 415 425 q 447 499 439 492 q 469 508 454 507 q 502 510 486 510 q 535 510 518 510 q 569 483 561 507 q 586 429 578 456 q 604 375 594 403 l 629 292 q 633 283 631 288 q 638 272 635 279 q 715 570 678 424 q 792 865 753 717 q 777 867 783 867 q 764 868 771 867 q 721 908 725 872 q 719 938 718 924 q 721 967 719 951 q 746 994 724 990 q 771 1001 758 997 q 796 1004 783 1004 q 979 1004 888 1006 z "},"X":{"ha":824,"x_min":-1,"x_max":763,"o":"m 726 1008 q 753 1003 746 1008 q 761 978 760 997 q 762 930 763 954 q 760 882 761 906 q 728 850 758 854 q 710 849 719 849 q 693 849 701 849 q 661 828 671 847 q 592 699 626 763 q 522 569 558 635 l 476 486 q 485 471 482 475 l 626 208 l 639 183 q 661 171 646 171 q 700 171 682 172 q 738 143 726 171 q 749 87 747 115 q 749 31 751 58 q 714 3 747 4 q 619 1 665 1 q 524 0 572 0 q 449 8 486 0 q 422 22 429 13 q 414 50 415 31 q 414 79 414 65 q 415 108 414 93 q 427 143 418 132 q 460 161 436 154 q 469 163 464 163 q 481 167 474 164 q 435 247 457 207 q 389 329 413 288 q 341 244 364 285 q 294 163 318 204 q 310 159 303 160 q 325 156 318 158 q 356 122 354 149 q 359 85 358 103 q 358 47 360 67 q 347 19 357 28 q 319 8 338 11 q 297 6 308 7 q 274 6 285 6 q 189 10 231 8 q 104 14 147 11 q 60 28 74 15 q 44 71 47 40 q 46 133 42 106 q 96 183 51 178 q 115 185 106 185 q 135 185 124 185 q 158 200 150 185 q 231 335 194 268 q 307 471 268 401 q 253 569 279 519 q 201 667 228 618 q 160 747 181 707 q 119 826 139 786 q 82 849 107 850 q 59 848 71 847 q 36 850 47 849 q 10 858 18 851 q 1 882 3 864 q -1 930 0 906 q 0 978 -1 954 q 10 1003 1 997 q 39 1008 19 1010 q 66 1007 53 1007 q 92 1006 79 1007 q 190 1001 140 1003 q 288 997 239 1000 q 321 988 311 996 q 333 956 331 979 q 333 896 336 925 q 324 863 331 871 q 292 847 318 854 q 347 734 319 790 q 403 619 374 678 q 464 731 435 676 q 522 843 493 785 q 512 844 515 843 q 504 844 508 844 q 473 854 481 847 q 463 883 465 861 q 460 924 460 903 q 461 964 460 944 q 499 1006 463 999 q 529 1010 515 1010 q 601 1009 565 1010 q 674 1008 638 1008 l 726 1008 l 726 1008 z "},"Y":{"ha":840,"x_min":0,"x_max":781,"o":"m 721 1003 q 769 989 757 1001 q 778 940 781 976 q 776 928 776 933 q 776 915 776 922 q 758 872 772 886 q 714 857 743 858 q 683 856 699 856 q 654 857 668 857 q 651 854 651 854 q 649 853 650 854 q 565 697 607 774 q 481 543 524 621 q 472 519 474 531 q 469 492 469 507 q 474 351 472 421 q 478 211 475 282 q 478 182 478 196 q 481 153 479 168 q 501 152 492 153 q 522 151 511 151 q 575 92 576 147 q 575 70 575 81 q 572 49 575 60 q 526 4 567 8 q 419 0 472 -1 q 353 2 386 0 q 285 6 319 4 l 275 6 q 230 19 240 8 q 218 64 219 29 q 217 87 218 75 q 218 110 217 99 q 249 144 219 139 q 277 148 263 147 q 308 151 292 149 q 309 166 308 158 q 308 182 310 174 q 302 326 306 254 q 294 472 299 399 q 289 497 294 488 q 206 674 247 586 q 122 850 164 761 q 118 858 119 854 q 114 865 117 861 q 79 869 96 868 q 46 871 63 869 q 16 882 25 874 q 4 910 7 890 q 1 940 1 925 q 0 971 0 956 q 32 1004 0 1003 q 108 1004 71 1004 q 185 1003 146 1004 q 238 1002 211 1003 q 290 1000 264 1001 q 326 989 317 999 q 338 953 336 979 q 337 933 338 943 q 335 913 336 924 q 296 868 331 876 q 283 864 289 868 q 331 758 307 811 q 382 649 356 706 q 433 759 408 706 q 482 867 457 813 q 469 869 475 868 q 458 869 464 869 q 428 896 431 869 q 426 937 426 915 q 426 979 426 958 q 447 999 429 996 q 467 1003 457 1001 q 488 1004 476 1004 l 706 1004 q 713 1003 708 1004 q 721 1003 717 1003 z "},"Z":{"ha":749,"x_min":-1,"x_max":688,"o":"m 683 219 q 687 137 686 178 q 683 54 688 96 q 683 48 683 51 q 682 42 682 44 q 667 8 678 18 q 632 0 657 -1 q 590 2 611 0 q 547 6 568 4 q 316 7 431 7 q 85 8 201 7 q 64 8 74 8 q 43 10 54 8 q 10 24 22 13 q 0 57 -1 36 q 3 106 1 82 q 11 154 6 131 q 19 176 14 165 q 31 194 24 186 q 190 410 111 303 q 349 625 269 517 q 416 719 383 672 q 482 815 449 767 q 485 821 483 818 q 489 829 486 824 q 361 826 424 832 q 233 822 299 821 q 232 807 232 814 q 231 793 232 800 q 229 776 229 785 q 228 760 229 768 q 192 725 221 729 q 136 722 164 724 q 81 722 108 721 q 53 732 61 724 q 44 760 46 740 q 38 864 40 813 q 40 968 35 915 q 79 1003 42 1001 q 119 1002 99 1003 q 160 1001 139 1001 l 583 1001 q 625 985 607 1001 q 646 946 643 969 q 651 890 649 918 q 656 833 653 861 q 638 749 660 788 q 601 683 619 717 q 563 618 583 650 q 463 469 514 543 q 361 319 411 394 q 324 263 342 292 q 289 204 307 233 q 281 188 286 199 q 397 190 340 189 q 511 193 453 192 l 511 225 q 519 258 511 247 q 550 272 528 269 q 599 274 575 275 q 647 272 624 274 q 678 247 668 271 q 681 233 681 240 q 683 219 682 226 z "},"¦":{"ha":193,"x_min":0,"x_max":132,"o":"m 35 528 q 6 557 10 529 q 1 597 3 576 q 0 638 0 618 q 3 748 1 693 q 7 857 4 803 q 19 892 8 882 q 54 901 31 901 q 74 901 65 901 q 93 900 83 901 q 126 872 121 899 q 132 822 132 850 q 131 787 132 807 q 131 747 131 767 l 131 701 l 131 560 q 126 537 131 543 q 106 529 121 531 q 70 528 88 528 q 35 528 53 528 m 132 374 q 131 338 132 358 q 131 299 131 318 l 131 254 l 131 113 q 126 90 131 96 q 106 82 121 83 q 35 81 74 78 q 6 108 10 82 q 1 149 3 129 q 0 190 0 169 q 3 300 1 246 q 7 410 4 354 q 19 443 8 433 q 54 453 31 453 q 74 453 65 453 q 93 451 83 453 q 126 424 121 450 q 131 399 129 413 q 132 374 132 386 z "},"|":{"ha":247,"x_min":0,"x_max":186,"o":"m 186 115 q 185 82 186 99 q 181 49 183 65 q 147 11 178 17 q 100 2 124 4 q 53 4 76 0 q 22 14 31 7 q 11 44 14 21 q 8 88 8 65 q 6 131 7 110 q 2 320 4 226 q 0 508 0 414 q 1 689 0 600 q 3 868 1 778 q 2 907 3 888 q 1 946 1 926 q 3 968 1 961 q 26 992 7 989 q 87 994 57 993 q 146 994 117 994 q 169 985 161 994 q 181 960 178 975 q 184 934 183 947 q 186 908 185 921 l 186 503 l 186 115 z "},"©":{"ha":700,"x_min":0,"x_max":647,"o":"m 575 700 q 633 558 619 632 q 625 404 647 485 q 603 342 615 372 q 574 285 590 313 q 489 193 539 226 q 372 144 439 160 q 272 144 324 135 q 172 178 219 153 q 88 245 125 204 q 31 339 50 286 q 8 419 15 382 q 0 506 0 457 q 8 588 0 546 q 35 669 15 629 q 126 779 71 739 q 257 835 181 819 q 350 839 304 844 q 438 815 396 833 q 515 767 479 797 q 575 700 550 738 m 532 332 q 560 419 551 375 q 569 511 568 464 q 444 753 571 664 q 360 790 404 781 q 274 790 317 799 q 195 756 232 782 q 132 689 158 731 q 92 591 101 642 q 79 488 82 540 q 97 388 79 435 q 144 300 114 342 q 363 206 225 185 q 465 244 421 214 q 532 332 508 274 m 181 506 q 193 580 181 546 q 233 642 206 614 q 324 681 272 682 q 414 638 376 679 q 438 610 426 624 q 433 569 451 586 q 417 555 426 561 q 397 542 407 549 q 368 547 382 531 q 353 565 360 558 q 308 567 331 583 q 288 540 296 556 q 280 506 281 524 q 284 470 279 488 q 300 442 289 453 q 367 443 335 410 q 388 460 382 458 q 413 451 393 461 q 427 443 419 447 q 442 433 435 439 q 451 403 460 421 q 442 386 447 394 q 431 371 438 378 q 376 338 406 349 q 317 331 346 328 q 260 349 288 333 q 215 393 233 364 q 189 447 199 419 q 181 506 179 475 z "},"®":{"ha":608,"x_min":-6,"x_max":550,"o":"m 508 853 q 541 755 532 804 q 543 653 550 706 q 491 527 533 576 q 376 450 449 478 q 331 438 357 442 q 291 433 311 435 q 251 429 271 432 q 188 435 219 429 q 128 454 157 440 q 39 540 65 485 q 1 674 7 607 q 21 811 -6 742 q 77 904 40 864 q 163 966 114 944 q 270 989 213 988 q 388 965 328 990 q 459 920 429 949 q 508 853 489 892 m 306 493 q 425 552 376 508 q 483 672 474 596 q 481 741 488 708 q 460 806 475 774 q 388 890 433 864 q 281 919 343 917 q 260 917 271 918 q 239 914 250 917 q 142 863 179 900 q 83 769 104 825 q 73 663 64 717 q 113 567 82 608 q 193 503 143 525 q 306 493 243 481 m 246 636 q 247 617 246 625 q 247 600 247 608 q 242 578 247 585 q 219 571 236 572 q 206 571 213 568 q 183 592 185 572 q 179 625 179 608 q 178 709 179 667 q 178 793 178 751 q 188 827 179 817 q 219 844 196 838 q 290 838 254 853 q 343 790 326 822 q 351 730 360 760 q 311 683 343 700 q 302 678 307 681 q 290 672 297 675 q 320 645 306 658 q 350 618 335 632 q 361 610 353 615 q 357 586 375 593 q 328 581 342 582 q 301 592 314 581 q 276 613 289 603 q 246 636 263 624 m 239 715 q 290 754 294 722 q 275 781 289 771 q 239 792 261 792 l 239 715 z "},"‡":{"ha":492,"x_min":-1,"x_max":435,"o":"m 428 385 q 419 317 435 338 q 354 293 403 296 q 317 291 335 292 q 281 290 299 290 q 278 283 278 282 q 265 242 275 253 q 225 228 256 232 q 192 227 208 225 q 158 232 175 229 q 135 256 139 235 q 131 274 132 265 q 126 293 129 282 q 97 292 111 293 q 68 293 83 292 q 49 294 58 293 q 31 296 40 294 q 13 304 19 297 q 3 322 6 311 q 1 360 -1 342 q 7 399 3 379 q 17 415 10 410 q 35 422 25 419 q 63 426 49 425 q 90 429 76 428 l 126 429 l 126 539 l 72 539 q 51 540 61 540 q 29 543 40 540 q 3 572 4 547 q 1 597 1 585 q 0 622 0 610 q 8 651 1 643 q 36 661 15 658 q 70 663 53 664 q 106 663 88 663 q 128 664 113 664 q 128 691 128 678 q 129 719 129 704 q 138 750 131 742 q 167 761 146 758 q 222 761 194 764 q 274 715 263 760 q 276 702 275 708 q 276 689 276 696 q 278 676 278 682 q 279 661 279 669 q 299 660 290 661 q 319 660 308 660 q 351 658 335 658 q 383 656 368 657 q 422 622 417 651 q 414 549 429 585 q 400 532 410 536 q 379 528 390 528 l 297 528 q 289 527 293 528 q 279 526 285 526 l 279 425 l 303 425 q 349 422 326 422 q 396 418 372 421 q 418 410 411 417 q 428 388 425 403 l 428 385 z "},"†":{"ha":389,"x_min":0,"x_max":329,"o":"m 290 654 q 317 646 310 653 q 326 619 325 639 q 326 581 329 600 q 319 558 325 565 q 299 547 314 551 q 282 544 290 544 q 265 543 274 544 l 238 543 q 236 531 236 539 q 234 415 235 472 q 232 300 233 358 q 220 258 232 271 q 181 243 208 246 q 131 243 156 240 q 90 279 97 246 q 88 294 89 286 q 88 310 88 303 q 88 415 88 363 q 89 519 89 467 l 89 554 l 35 554 q 7 564 14 557 q 0 592 0 571 q 4 633 0 613 q 13 651 6 644 q 31 660 19 657 q 60 663 46 663 q 92 667 75 664 l 92 707 q 99 741 92 732 q 131 753 106 750 q 193 756 165 757 q 222 747 213 756 q 233 719 231 739 q 236 689 236 704 q 238 656 236 674 q 264 654 251 654 q 290 654 276 654 z "},"/":{"ha":554,"x_min":-1,"x_max":496,"o":"m 451 1000 q 488 986 479 997 q 490 947 496 975 q 479 908 486 931 q 351 530 410 719 q 235 149 293 340 q 219 101 228 125 q 204 51 211 76 q 146 3 189 7 q 117 0 131 0 q 85 -3 103 0 q 55 1 71 0 q 24 4 39 1 q 3 13 8 7 q 0 33 -1 19 q 1 40 0 36 q 3 46 3 43 q 54 208 29 128 q 104 371 79 289 q 190 647 147 510 q 278 922 233 783 q 284 947 281 933 q 290 971 288 960 q 305 999 297 992 q 333 1004 313 1006 q 392 1003 363 1004 q 451 1000 422 1003 z "},"\\":{"ha":554,"x_min":-4,"x_max":493,"o":"m 492 33 q 469 4 493 8 q 437 1 453 1 q 407 -3 421 0 q 375 0 389 0 q 346 3 361 0 q 288 51 303 7 q 272 101 281 76 q 257 149 264 125 q 140 530 199 340 q 13 908 82 719 q 1 947 6 931 q 5 986 -4 975 q 42 1000 14 997 q 100 1003 71 1003 q 158 1004 129 1004 q 187 999 179 1006 q 201 971 194 992 q 208 947 206 960 q 215 922 211 933 q 301 647 258 783 q 388 371 344 510 q 439 208 414 289 q 489 46 464 128 q 492 33 492 38 z "},"*":{"ha":456,"x_min":-1,"x_max":401,"o":"m 381 746 q 386 706 401 729 q 355 678 371 682 q 315 688 339 674 q 277 710 296 699 q 239 733 258 721 q 237 724 238 728 q 236 717 236 721 q 236 690 236 703 q 235 664 236 678 q 201 633 231 633 q 190 635 196 635 q 179 636 185 635 q 153 664 154 640 q 150 694 150 679 q 149 726 150 708 q 131 708 139 714 q 110 687 119 697 q 89 667 100 676 q 29 674 64 646 q 26 724 4 696 q 58 761 42 743 q 90 799 75 779 q 100 810 96 804 q 78 824 89 817 q 57 839 67 832 q 35 854 46 846 q 14 871 25 863 q -1 893 0 883 q 8 918 -1 903 l 11 921 q 37 944 26 942 q 69 936 47 947 q 106 916 88 926 q 144 894 124 906 q 145 914 144 906 q 146 932 146 922 q 147 957 147 944 q 147 982 146 969 q 174 1004 149 1006 q 207 1000 190 1004 q 231 993 226 997 q 238 969 235 989 q 240 940 240 954 q 243 908 240 925 q 258 921 250 915 q 273 935 265 928 q 289 949 281 942 q 318 964 307 964 q 346 949 329 964 q 350 945 349 946 q 353 942 351 944 q 372 912 372 924 q 353 881 372 900 q 322 850 338 865 q 290 819 307 835 q 299 811 296 815 q 307 804 303 807 q 344 775 326 789 q 381 746 363 761 z "},"(":{"ha":468,"x_min":-1,"x_max":407,"o":"m 364 193 q 399 135 393 169 q 406 81 404 107 q 404 28 407 56 q 358 -3 397 -19 q 313 16 335 6 q 272 42 292 26 q 153 146 207 90 q 63 275 99 201 q 39 327 50 301 q 17 381 28 353 q 3 434 7 407 q 0 489 0 461 q 40 706 -1 607 q 156 893 81 806 q 212 948 181 924 q 281 989 243 972 q 326 1003 301 999 q 356 983 353 1010 q 356 956 357 969 q 356 929 356 943 l 357 929 q 354 899 356 914 q 353 869 353 885 q 332 833 350 846 q 258 761 288 803 q 206 671 228 719 q 188 614 193 643 q 181 554 183 585 q 179 472 178 513 q 193 390 181 431 q 234 306 208 344 q 301 239 260 267 q 333 216 318 228 q 364 193 349 204 z "},")":{"ha":468,"x_min":-1,"x_max":407,"o":"m 42 193 q 72 216 57 204 q 104 239 88 228 q 172 306 146 267 q 213 390 197 344 q 226 472 225 431 q 225 554 228 513 q 217 614 222 585 q 200 671 213 643 q 148 761 178 719 q 74 833 118 803 q 54 869 54 847 q 52 899 53 885 q 50 929 51 914 q 49 956 50 943 q 50 983 49 969 q 79 1003 54 1008 q 102 997 90 1000 q 125 989 114 994 q 194 948 163 972 q 251 893 225 924 q 365 706 324 806 q 406 489 407 606 q 403 434 406 461 q 389 381 400 407 q 367 327 378 353 q 343 275 356 301 q 253 146 307 201 q 133 42 199 90 q 92 16 114 26 q 47 -3 71 6 q 3 28 7 -19 q 0 81 -1 56 q 7 135 1 107 q 42 193 13 169 z "},"⁄":{"ha":807,"x_min":-17,"x_max":750,"o":"m 743 969 q 737 953 740 961 q 728 938 733 944 q 585 682 653 811 q 446 422 517 553 q 345 242 397 331 q 242 61 293 153 q 234 50 238 56 q 226 38 231 44 q 150 -4 200 -1 q 126 -4 143 -4 q 91 -3 110 -4 q 55 -2 72 -3 q 29 -1 38 -1 q 10 43 -17 3 q 90 169 50 107 q 167 297 131 232 q 272 490 221 393 q 376 685 324 588 q 441 806 408 746 q 506 925 474 865 q 521 951 513 939 q 536 975 529 963 q 588 1006 556 1006 q 650 1003 619 1004 q 711 1000 681 1003 q 731 994 719 1000 q 743 969 750 988 z "},"}":{"ha":521,"x_min":-6,"x_max":460,"o":"m 36 1006 q 64 1004 50 1004 q 93 1003 78 1004 q 219 982 157 1001 q 344 867 313 954 q 354 834 350 851 q 363 800 358 817 q 377 726 369 764 q 393 653 385 689 q 407 617 397 633 q 436 589 417 600 q 457 557 454 579 q 459 515 458 536 q 460 475 460 494 q 433 439 460 447 q 400 416 410 432 q 389 376 390 400 q 390 332 389 354 q 389 286 390 310 q 387 236 388 261 q 383 186 386 211 q 338 73 372 111 q 231 17 303 35 q 168 4 199 8 q 120 0 144 1 q 72 -1 96 -1 q 38 8 47 -1 q 29 42 29 17 q 28 67 28 54 q 31 92 29 79 q 71 132 35 126 q 98 134 85 133 q 124 138 111 135 q 154 144 139 140 q 185 153 169 147 q 231 213 226 168 l 239 317 q 241 355 240 336 q 244 393 242 374 q 257 440 247 418 q 286 481 267 463 q 295 488 290 485 q 307 496 300 490 q 267 538 279 514 q 250 588 256 561 q 246 608 247 599 q 243 629 244 618 q 236 693 239 661 q 226 757 233 725 q 117 864 210 847 q 79 868 97 867 q 42 872 61 869 q 10 897 15 875 q 4 982 -6 940 q 15 1001 8 996 q 36 1006 21 1006 z "},"{":{"ha":521,"x_min":0,"x_max":465,"o":"m 424 1006 q 445 1001 439 1006 q 456 982 451 996 q 450 897 465 940 q 418 872 444 875 q 381 868 399 869 q 343 864 363 867 q 233 757 250 847 q 224 693 226 725 q 217 629 221 661 q 213 608 214 618 q 210 588 213 599 q 192 538 204 561 q 153 496 181 514 q 165 488 160 490 q 174 481 169 485 q 203 440 193 463 q 215 393 213 418 q 219 355 218 374 q 221 317 219 336 l 229 213 q 275 153 233 168 q 305 144 290 147 q 335 138 319 140 q 362 134 349 135 q 389 132 375 133 q 429 92 425 126 q 431 67 431 79 q 431 42 431 54 q 422 8 431 17 q 388 -1 413 -1 q 340 0 364 -1 q 292 4 315 1 q 229 17 260 8 q 122 73 157 35 q 76 186 88 111 q 73 236 74 211 q 71 286 72 261 q 70 332 69 310 q 69 376 71 354 q 60 416 69 400 q 26 439 50 432 q 0 475 0 447 q 1 515 0 494 q 3 557 1 536 q 24 589 6 579 q 53 617 43 600 q 67 653 63 633 q 82 726 75 689 q 97 800 89 764 q 105 834 101 817 q 115 867 108 851 q 240 982 147 954 q 367 1003 303 1001 q 396 1004 382 1004 q 424 1006 410 1004 z "},"]":{"ha":481,"x_min":0,"x_max":419,"o":"m 38 135 q 107 138 72 138 q 178 139 142 138 l 257 139 q 260 182 258 147 q 261 267 261 217 q 260 381 261 318 q 258 508 260 443 q 256 634 257 572 q 252 747 254 696 q 248 831 250 797 q 244 872 246 864 q 234 873 239 872 q 224 874 229 874 q 184 872 204 872 q 144 872 164 871 q 94 872 119 872 q 44 875 69 872 q 11 908 13 876 q 10 931 10 919 q 11 954 11 943 q 22 997 13 988 q 65 1007 31 1007 q 157 1006 111 1007 q 249 1006 203 1006 q 303 1006 276 1006 q 357 1003 329 1006 q 391 991 381 1001 q 404 957 401 981 q 406 935 406 946 q 407 914 407 925 q 413 741 410 826 q 418 568 415 656 q 419 381 419 474 q 419 193 419 288 q 417 131 418 161 q 414 69 417 100 q 368 14 413 24 q 318 8 347 8 q 249 6 283 7 q 178 4 214 6 q 109 3 143 3 q 42 3 75 3 q 0 43 3 1 q 0 69 0 56 q 1 96 0 82 q 10 124 3 115 q 38 135 17 132 z "},"[":{"ha":481,"x_min":0,"x_max":421,"o":"m 382 135 q 409 124 401 132 q 418 96 417 115 q 418 43 421 68 q 378 3 418 0 q 309 3 343 3 q 242 4 275 3 l 100 8 q 50 14 72 8 q 4 69 6 24 q 1 131 3 100 q 0 193 0 161 q 0 381 0 288 q 1 568 0 474 q 6 741 3 656 q 11 914 8 826 q 13 935 13 925 q 15 957 14 946 q 28 991 18 981 q 61 1003 38 1001 q 115 1006 89 1006 q 169 1006 142 1006 q 262 1006 215 1006 q 354 1007 308 1007 q 397 997 388 1007 q 408 954 407 988 q 409 931 408 943 q 408 908 410 919 q 399 884 406 892 q 375 875 392 876 q 324 872 350 872 q 274 872 299 872 q 235 872 254 871 q 196 874 215 872 q 185 873 190 874 q 174 872 179 872 q 170 831 172 864 q 167 747 168 797 q 163 634 165 696 q 160 508 161 572 q 159 381 160 443 q 158 267 158 318 q 159 182 158 217 q 161 139 160 147 l 240 139 q 311 138 276 138 q 382 135 346 138 z "},":":{"ha":265,"x_min":0,"x_max":204,"o":"m 107 539 q 65 547 85 539 q 31 569 46 556 q 8 601 17 583 q 0 640 0 619 q 30 717 0 686 q 103 746 60 747 q 174 713 143 744 q 204 638 204 681 q 174 568 203 597 q 107 539 146 539 m 103 463 q 174 429 143 461 q 204 354 204 397 q 174 285 203 314 q 107 257 146 256 q 31 287 63 257 q 0 358 0 317 q 30 433 0 403 q 103 463 60 464 z "},";":{"ha":265,"x_min":0,"x_max":204,"o":"m 178 413 q 180 375 179 393 q 181 338 181 357 q 181 330 181 338 q 182 310 182 322 q 182 286 182 299 q 182 265 182 274 q 177 242 182 247 q 154 236 172 236 l 72 236 q 59 238 65 238 q 46 240 53 239 q 28 261 28 242 q 26 340 26 301 q 24 418 25 378 q 26 439 24 425 q 47 457 31 457 l 150 457 q 172 440 168 457 q 178 413 175 429 m 107 567 q 31 597 63 567 q 0 668 0 626 q 30 743 0 713 q 103 772 60 774 q 174 739 143 771 q 204 664 204 707 q 174 594 203 624 q 107 567 146 565 z "},",":{"ha":219,"x_min":0,"x_max":158,"o":"m 157 99 q 158 91 157 99 q 158 72 158 83 q 158 49 158 61 q 158 26 158 36 q 153 3 158 8 q 131 -1 149 -1 q 49 -1 89 -3 q 35 -1 42 -1 q 22 1 29 0 q 4 22 4 3 q 2 101 3 63 q 0 179 1 140 q 3 200 0 186 q 24 218 7 218 q 128 218 75 219 q 149 201 144 218 q 152 188 151 194 q 154 174 153 181 q 156 136 156 154 q 157 99 157 118 z "},"!":{"ha":264,"x_min":0,"x_max":203,"o":"m 13 617 q 9 783 10 700 q 6 950 8 867 q 16 991 6 979 q 56 1004 26 1003 q 99 1003 78 1006 q 142 999 119 1001 q 183 960 174 994 q 191 923 188 940 q 194 886 194 906 l 194 272 q 182 232 193 243 q 142 221 171 221 q 100 222 121 221 q 58 224 79 222 q 19 257 26 225 q 17 279 17 271 l 13 617 m 107 193 q 173 163 144 192 q 203 96 201 133 q 172 26 203 54 q 94 -3 140 -3 q 58 5 75 -3 q 28 26 42 13 q 8 56 15 39 q 0 92 0 74 q 9 130 0 111 q 33 163 18 149 q 67 185 47 176 q 107 193 86 193 z "},"\"":{"ha":415,"x_min":-1,"x_max":354,"o":"m 146 969 q 149 947 149 958 q 151 925 150 936 q 153 844 154 885 q 146 764 151 804 q 110 725 142 729 q 76 721 93 722 q 42 721 58 719 q 1 764 3 725 q -1 822 -1 792 q 0 892 0 853 q 2 924 1 904 q 6 965 3 943 q 15 994 7 986 q 43 1004 22 1003 q 79 1004 61 1006 q 115 1000 97 1003 q 146 969 142 996 m 351 925 q 353 844 354 885 q 347 764 351 804 q 311 725 343 729 q 276 721 293 722 q 242 721 258 719 q 201 764 203 725 q 201 822 200 792 q 201 892 201 853 q 202 924 201 904 q 206 965 203 943 q 215 994 207 986 q 244 1004 222 1003 q 280 1004 263 1006 q 315 1000 297 1003 q 346 969 342 996 q 350 947 349 958 q 351 925 351 936 z "},"#":{"ha":822,"x_min":-7,"x_max":763,"o":"m 613 532 q 601 531 607 532 q 589 531 596 531 l 589 432 q 632 433 611 432 q 674 432 653 433 q 692 431 683 432 q 711 429 701 431 q 742 399 735 425 q 735 343 747 371 q 683 311 722 315 q 649 309 665 310 q 615 306 632 308 q 603 306 608 306 q 590 304 597 306 l 590 238 q 589 217 589 226 q 586 197 589 207 q 543 154 581 158 q 503 154 524 153 q 464 157 483 156 q 443 178 447 158 q 439 201 440 189 q 438 224 438 213 q 436 262 436 243 q 436 301 436 281 l 347 301 q 346 292 346 296 q 344 283 346 288 q 343 240 343 261 q 342 196 343 218 q 310 156 339 164 q 276 150 293 153 q 243 144 260 147 q 190 185 199 142 q 186 226 188 206 q 183 267 185 246 q 183 288 182 278 q 183 310 183 299 q 172 310 176 310 q 163 311 167 311 q 120 312 142 313 q 78 313 99 311 q 45 322 58 313 q 25 344 32 331 q 18 373 18 357 q 28 406 18 389 q 54 424 36 421 q 95 428 75 426 q 136 432 115 431 q 157 433 147 433 q 178 432 167 432 l 178 538 l 149 538 q 101 540 125 539 q 53 543 76 540 q 7 573 21 547 q 6 629 -7 599 q 46 660 17 657 q 96 664 71 663 q 147 667 121 665 q 161 667 154 668 q 178 667 168 667 q 178 678 178 674 q 179 686 179 682 q 179 727 179 707 q 181 767 179 747 q 244 835 181 831 q 290 832 265 836 q 340 783 333 825 q 344 739 343 761 q 349 693 346 717 q 350 679 350 686 q 350 664 350 672 l 435 664 l 435 692 q 435 745 435 719 q 436 797 435 771 q 456 848 439 835 q 510 856 472 861 q 522 853 517 854 q 533 851 526 853 q 586 792 582 838 q 588 745 589 768 q 589 699 588 722 l 589 661 q 598 660 593 661 q 607 660 603 660 q 653 660 631 660 q 699 658 675 660 q 715 658 707 658 q 731 656 722 657 q 760 619 757 647 l 760 617 q 747 555 763 572 q 688 535 732 538 q 650 533 668 533 q 613 532 632 533 m 435 531 l 350 531 l 350 436 l 393 436 l 435 436 l 435 531 z "},"$":{"ha":461,"x_min":-8,"x_max":406,"o":"m 246 557 q 354 422 310 496 q 394 324 382 375 q 396 218 406 274 q 367 143 389 175 q 303 93 346 111 q 290 88 297 90 q 291 59 290 72 q 290 31 292 46 q 257 -1 289 -1 q 210 -2 233 -3 q 164 0 188 -1 q 140 8 147 1 q 131 32 133 15 q 130 45 131 39 q 129 58 129 51 l 129 82 q 124 86 126 85 q 119 89 122 88 q 44 151 72 113 q 3 239 17 190 q 1 244 1 242 q 0 249 1 246 q 39 292 -4 293 q 83 290 61 292 q 128 286 106 289 q 168 257 158 283 q 177 239 171 247 q 190 224 183 231 q 229 213 207 203 q 248 226 240 218 q 254 249 256 235 q 249 276 251 263 q 242 301 247 289 q 204 369 226 338 q 157 432 182 401 q 105 495 131 464 q 54 558 79 526 q 4 736 -8 638 q 88 868 17 824 q 101 876 94 872 q 115 883 107 879 l 115 932 q 117 945 117 939 q 119 958 118 951 q 150 982 126 982 q 213 982 181 983 q 257 936 251 978 q 258 915 258 925 q 258 893 258 904 q 271 889 265 890 q 282 885 276 888 q 361 822 329 867 q 393 729 393 778 q 385 697 393 706 q 354 685 378 688 q 313 683 333 683 q 269 683 292 683 q 231 711 242 683 q 219 735 225 724 q 207 757 214 746 q 178 772 197 776 q 149 746 153 768 q 147 732 147 739 q 147 718 146 725 q 192 614 151 658 q 218 585 206 599 q 246 557 231 571 z "},"¡":{"ha":264,"x_min":-1,"x_max":203,"o":"m 190 385 q 193 219 192 301 q 196 53 194 136 q 187 11 197 22 q 147 -1 176 0 q 103 -1 125 -3 q 61 4 82 1 q 19 43 26 8 q 12 79 15 61 q 8 115 8 97 q 8 422 7 269 q 8 729 8 575 q 20 770 8 758 q 61 781 32 782 q 103 780 82 781 q 144 778 124 779 q 183 744 178 776 q 185 734 185 739 q 186 722 185 729 l 190 385 m 96 810 q 29 839 58 810 q 0 907 0 868 q 31 976 -1 947 q 108 1004 63 1004 q 144 997 126 1004 q 174 976 161 989 q 195 945 188 963 q 203 910 203 928 q 194 872 203 890 q 169 839 185 853 q 135 817 154 825 q 96 810 117 810 z "},"•":{"ha":371,"x_min":-1,"x_max":322,"o":"m 157 658 q 275 597 231 658 q 304 456 322 531 q 293 426 301 440 q 253 381 279 400 q 198 352 228 361 q 136 344 168 343 q 78 360 104 346 q 22 413 39 379 q 1 488 6 447 q 3 531 -1 507 q 52 624 13 593 q 157 658 92 656 z "},"·":{"ha":265,"x_min":0,"x_max":204,"o":"m 103 603 q 174 569 143 601 q 204 493 204 538 q 174 425 203 454 q 107 396 146 396 q 31 426 63 396 q 0 497 0 456 q 30 574 0 543 q 103 603 60 604 z "},"?":{"ha":532,"x_min":-1,"x_max":471,"o":"m 442 882 q 470 760 469 821 q 443 638 471 700 q 422 593 433 614 q 399 550 410 572 q 362 482 379 517 q 338 408 344 447 q 329 360 332 385 q 324 311 326 335 q 321 288 321 300 q 318 264 321 276 q 293 240 314 242 q 251 238 272 239 q 211 239 231 236 q 183 249 192 240 q 171 276 174 257 q 168 299 168 288 q 167 321 168 310 q 256 589 171 469 q 292 648 275 618 q 315 714 308 678 q 297 818 326 771 q 217 839 268 867 q 168 783 183 821 q 158 755 163 768 q 147 726 153 742 q 103 699 135 694 q 67 705 85 701 q 32 715 49 708 q 5 736 11 724 q 1 771 -1 749 q 36 869 8 825 q 51 892 43 881 q 65 915 58 904 q 118 967 88 949 q 185 996 149 985 q 297 997 246 1013 q 393 946 347 982 q 422 917 410 933 q 442 882 433 901 m 249 201 q 289 191 271 201 q 319 164 307 181 q 339 127 332 147 q 346 89 346 107 q 317 26 346 53 q 250 -1 288 -1 q 173 29 204 0 q 142 101 142 58 q 175 172 143 142 q 249 201 207 201 z "},"¿":{"ha":532,"x_min":-1,"x_max":472,"o":"m 438 288 q 465 268 458 281 q 469 233 472 256 q 435 135 461 176 q 419 110 428 122 q 404 88 411 99 q 352 37 383 56 q 285 7 321 18 q 174 6 225 -10 q 76 58 124 22 q 28 121 44 85 q 0 244 1 183 q 26 367 -1 304 q 49 410 38 389 q 72 453 61 432 q 108 522 90 488 q 132 596 125 557 q 140 644 138 619 q 146 692 143 668 q 149 716 149 704 q 151 739 149 728 q 176 764 156 763 q 218 765 197 764 q 260 765 239 767 q 288 756 279 764 q 299 728 296 747 q 301 705 301 717 q 303 682 301 693 q 215 415 299 533 q 178 356 194 386 q 154 289 161 325 q 172 186 143 233 q 254 164 201 136 q 301 221 286 182 q 312 249 307 235 q 322 276 317 263 q 367 304 336 310 q 403 298 385 301 q 438 288 421 294 m 221 803 q 180 813 197 803 q 150 840 163 824 q 131 875 138 856 q 125 914 125 894 q 153 978 125 951 q 221 1004 182 1006 q 297 974 265 1004 q 328 901 328 944 q 296 832 328 861 q 221 803 264 803 z "},"_":{"ha":671,"x_min":-1,"x_max":610,"o":"m 563 151 q 596 141 588 150 q 607 108 604 132 q 608 81 607 94 q 610 53 608 68 q 609 40 610 46 q 607 28 608 35 q 581 3 603 4 q 563 1 572 1 q 544 1 554 1 q 474 2 515 1 q 396 3 433 3 q 332 5 358 4 q 306 6 306 6 q 190 2 247 3 q 74 -1 132 1 l 47 -1 q 15 7 24 -1 q 3 39 6 15 q -1 76 0 58 q 0 114 -1 94 q 13 144 3 136 q 44 153 22 153 q 111 151 78 153 q 176 150 144 150 q 320 151 249 150 q 464 151 392 151 l 563 151 l 563 151 z "},"—":{"ha":829,"x_min":0,"x_max":768,"o":"m 726 571 q 758 562 750 569 q 767 531 767 554 q 767 494 768 513 q 765 458 767 476 q 740 432 764 436 q 726 430 733 431 q 713 429 719 429 q 548 426 628 426 q 408 424 468 425 l 39 424 q 8 431 15 424 q 0 461 1 438 l 0 524 q 12 562 1 551 q 50 572 22 572 q 85 572 68 572 q 118 571 101 571 q 383 572 251 571 q 646 572 514 572 q 686 572 665 572 q 726 571 707 572 z "},".":{"ha":232,"x_min":0,"x_max":171,"o":"m 88 168 q 145 145 119 168 q 171 83 171 122 q 144 22 171 43 q 85 0 117 0 q 23 24 44 1 q 0 86 1 46 q 8 121 0 106 q 28 147 15 136 q 56 163 40 157 q 88 168 72 168 z "},"-":{"ha":581,"x_min":-1,"x_max":519,"o":"m 514 547 q 518 468 519 507 q 509 447 518 454 q 488 436 500 439 q 453 431 469 433 q 418 428 436 428 q 340 428 378 428 q 261 429 301 429 q 172 431 217 431 q 81 432 126 431 q 59 433 69 432 q 38 435 49 433 q 3 471 10 440 q 0 513 -1 492 q 7 554 1 533 q 38 583 11 579 q 52 586 44 586 q 67 586 60 586 l 251 586 l 440 586 q 463 583 451 586 q 485 578 474 581 q 514 547 511 574 z "},"¢":{"ha":571,"x_min":-8,"x_max":517,"o":"m 492 346 q 506 306 517 332 q 494 285 500 294 q 479 267 488 275 q 431 226 456 243 q 375 197 406 208 q 368 193 372 194 q 358 189 364 192 q 358 159 358 174 q 357 129 358 144 q 345 91 356 101 q 307 82 335 81 q 283 83 294 83 q 258 85 271 83 q 237 94 243 88 q 229 115 231 100 q 226 148 226 132 q 225 181 226 164 q 211 186 219 183 q 21 365 68 221 q 2 530 -8 450 q 56 686 13 610 q 119 766 82 732 q 213 811 157 800 q 218 815 215 814 l 222 874 q 233 901 225 893 q 261 911 242 908 l 267 911 q 323 899 307 914 q 340 842 339 883 l 340 811 q 347 806 344 807 q 418 771 388 794 q 474 715 449 747 q 485 692 486 700 q 469 674 485 685 q 447 657 458 665 q 422 640 435 649 q 389 642 407 631 q 363 657 375 650 q 336 671 350 664 q 232 656 278 700 q 200 615 213 638 q 181 569 188 593 q 170 478 168 524 q 186 386 172 432 q 222 331 197 350 q 308 311 260 297 q 378 357 351 324 q 442 369 403 389 q 467 358 454 363 q 492 346 479 353 z "},"˜":{"ha":767,"x_min":-4,"x_max":711,"o":"m 683 1014 q 704 986 711 1011 q 676 892 689 939 q 631 804 663 844 q 530 739 592 756 q 411 747 468 722 q 319 817 358 772 q 297 840 308 829 q 275 863 286 851 q 243 879 261 875 q 188 872 211 886 q 157 825 164 857 q 154 809 154 818 q 151 792 154 800 q 143 771 149 776 q 122 764 138 765 l 61 764 l 24 768 q 1 796 -4 769 q 6 818 3 807 q 11 840 8 829 q 92 971 39 918 q 221 1029 146 1025 q 300 1010 265 1026 q 363 961 335 993 l 408 911 q 422 899 415 904 q 436 889 429 893 q 495 878 467 869 q 536 921 524 886 q 544 952 542 936 q 550 983 547 968 q 562 1014 554 1007 q 593 1021 569 1021 q 639 1019 617 1021 q 683 1014 661 1017 z "},"÷":{"ha":611,"x_min":0,"x_max":554,"o":"m 546 553 q 544 471 554 510 q 500 433 539 438 q 481 431 490 432 q 460 431 471 431 q 331 429 394 431 q 204 429 268 428 q 128 432 165 429 q 53 438 90 435 q 17 451 28 440 q 4 486 7 461 q 0 551 0 519 q 39 596 0 589 q 53 597 46 597 q 68 597 61 597 q 128 596 93 596 q 194 594 163 596 q 271 592 231 593 l 468 592 q 511 588 490 592 q 546 553 539 582 m 251 617 q 191 641 214 618 q 168 700 168 664 q 194 763 169 738 q 254 789 218 789 q 320 763 293 789 q 346 699 347 736 q 318 639 344 663 q 251 617 292 615 m 251 240 q 191 265 214 242 q 168 324 168 288 q 194 387 169 361 q 254 413 218 413 q 320 386 293 413 q 346 322 347 360 q 318 263 344 286 q 251 240 292 239 z "},"×":{"ha":631,"x_min":-1,"x_max":576,"o":"m 561 292 q 560 253 576 269 q 535 231 549 242 q 508 211 522 221 q 489 206 499 204 q 469 214 479 207 q 408 260 435 236 q 359 306 383 283 q 310 353 335 329 q 299 363 304 358 q 288 374 294 367 q 251 328 268 350 q 215 285 233 307 q 189 253 201 269 q 163 222 176 238 q 134 202 146 204 q 101 211 122 200 q 74 226 88 217 q 63 289 36 253 q 126 378 96 336 q 158 420 142 399 q 189 463 174 442 q 194 471 192 467 q 200 479 197 475 q 192 488 196 483 q 185 496 189 492 q 105 591 144 544 q 25 686 65 638 q 17 695 21 690 q 11 706 14 700 q 0 739 -1 725 q 18 771 1 753 q 72 805 51 807 q 121 774 93 803 q 195 693 158 733 q 268 613 232 653 q 279 601 274 607 q 292 588 285 594 q 326 633 310 611 q 358 678 342 656 q 392 724 375 701 q 426 768 408 746 q 467 800 447 796 q 518 789 486 804 q 531 782 525 786 q 544 775 538 778 q 558 732 568 758 q 550 713 554 722 q 539 697 546 704 q 467 602 503 649 q 396 508 432 556 q 389 499 393 503 q 381 489 385 494 q 410 457 396 472 q 439 426 425 442 q 492 369 467 399 q 544 313 518 340 q 553 303 549 308 q 561 292 558 299 z "},"»":{"ha":732,"x_min":0,"x_max":671,"o":"m 331 303 q 358 333 344 318 q 385 364 371 349 q 442 424 414 394 q 500 485 471 454 q 490 497 494 492 q 482 507 486 501 q 390 607 436 557 q 299 706 344 657 q 279 756 279 729 q 278 792 278 774 q 278 828 278 810 q 278 854 278 842 q 279 881 278 867 q 280 900 279 890 q 292 914 281 910 q 309 912 303 918 q 321 899 315 906 q 334 884 328 892 q 347 869 340 876 q 492 694 417 778 q 644 528 568 611 q 654 517 650 522 q 663 507 658 513 q 671 488 671 496 q 663 468 671 479 q 642 443 653 456 q 621 419 632 431 q 526 315 572 367 q 438 204 481 263 q 396 155 418 179 q 351 107 374 131 q 324 83 340 93 q 297 90 306 71 q 292 106 294 97 q 289 121 289 114 q 288 164 288 143 q 290 207 289 185 q 301 259 290 235 q 331 303 311 283 m 21 706 q 1 756 1 729 q 0 792 0 774 q 0 828 0 810 q 0 854 0 842 q 1 881 0 867 q 2 900 1 890 q 14 914 3 910 q 31 912 25 918 q 44 899 38 906 l 69 869 q 215 694 139 778 q 367 528 290 611 q 376 517 372 522 q 385 507 381 513 q 393 488 393 496 q 385 468 393 479 q 365 443 375 456 q 343 419 354 431 q 249 315 294 367 q 160 204 203 263 q 118 155 140 179 q 74 107 96 131 q 47 83 63 94 q 19 90 28 71 q 14 106 17 97 q 11 121 11 114 q 11 164 11 143 q 13 207 11 185 q 53 303 14 263 q 80 333 67 318 q 107 364 93 349 q 165 424 136 394 q 222 485 193 454 q 213 497 217 492 q 204 507 208 501 q 113 607 158 557 q 21 706 67 657 z "},"«":{"ha":732,"x_min":0,"x_max":671,"o":"m 340 303 q 370 259 360 283 q 381 207 381 235 q 383 164 382 185 q 382 121 383 143 q 379 106 382 114 q 374 90 376 97 q 347 83 365 71 q 319 107 331 93 q 275 155 297 131 q 233 204 253 179 q 145 315 192 263 q 50 419 99 367 q 28 443 39 431 q 8 468 18 456 q 0 488 0 479 q 8 507 0 496 q 17 517 13 513 q 26 528 21 522 q 178 694 103 611 q 324 869 254 778 q 337 884 331 876 q 350 899 343 892 q 362 912 356 906 q 379 914 368 918 q 391 900 390 910 q 392 881 392 890 q 393 854 393 867 q 393 828 393 842 q 393 792 393 810 q 392 756 393 774 q 372 706 392 729 q 281 607 326 657 q 189 507 235 557 q 181 497 185 501 q 171 485 176 492 q 228 424 200 454 q 286 364 257 394 q 313 333 300 349 q 340 303 326 318 m 650 706 q 558 607 604 657 q 467 507 513 557 q 458 497 463 501 q 449 485 454 492 q 506 424 478 454 q 564 364 535 394 q 591 333 578 349 q 618 303 604 318 q 648 259 638 283 q 658 207 658 235 q 660 164 660 185 q 660 121 660 143 q 657 106 660 114 q 651 90 654 97 q 625 83 643 71 q 597 107 608 93 q 553 155 575 131 q 511 204 531 179 q 422 315 468 263 q 328 419 376 367 q 306 443 317 431 q 286 468 296 456 q 278 488 278 479 q 286 507 278 496 q 294 517 290 513 q 304 528 299 522 q 456 694 381 611 q 601 869 532 778 q 615 884 608 876 q 628 899 621 892 q 640 912 633 906 q 657 914 646 918 q 669 900 668 910 q 669 881 669 890 q 671 854 671 867 q 671 828 671 842 q 671 792 671 810 q 669 756 671 774 q 650 706 669 729 z "},"¤":{"ha":638,"x_min":-1,"x_max":576,"o":"m 551 311 q 567 294 563 300 q 567 269 575 282 q 544 242 557 254 q 515 221 531 231 q 486 224 500 211 q 467 239 476 231 q 449 256 458 247 q 435 267 442 261 q 422 281 429 274 q 356 250 389 258 q 289 244 322 242 q 222 255 256 246 q 154 276 188 264 q 128 252 142 265 q 100 225 114 239 q 78 207 86 213 q 62 201 69 201 q 47 208 54 201 q 26 229 39 215 l 13 243 q 1 263 1 254 q 11 283 0 271 q 60 336 33 310 l 81 357 q 50 494 46 426 q 81 631 54 561 q 49 661 65 646 q 17 692 32 676 q 0 714 1 707 q 13 738 -1 721 q 27 754 19 746 q 42 769 35 763 q 79 775 60 788 q 100 760 90 768 q 119 744 110 753 q 136 730 128 738 q 154 715 144 722 q 294 753 225 754 q 429 699 363 751 q 460 726 444 713 q 490 751 475 739 q 519 766 508 767 q 547 749 529 765 l 564 728 q 576 703 576 713 q 563 679 576 694 q 547 663 556 671 q 531 647 539 656 q 514 628 522 638 q 496 607 506 618 q 520 490 519 549 q 494 368 521 431 q 523 340 510 354 q 551 311 536 326 m 381 419 q 408 486 413 451 q 375 581 408 538 q 251 617 325 643 q 176 529 189 593 q 176 463 169 494 q 211 408 183 432 q 297 380 249 376 q 381 419 346 383 z "},"£":{"ha":628,"x_min":0,"x_max":567,"o":"m 517 168 q 551 158 542 167 q 564 122 561 149 q 566 105 565 114 q 565 86 567 96 q 556 63 563 71 q 532 51 549 54 q 499 49 515 49 q 467 49 483 49 q 311 51 388 50 q 156 53 235 51 q 118 52 136 53 q 81 51 100 51 q 47 61 57 53 q 33 93 36 69 q 32 117 32 104 q 29 140 32 129 q 50 178 28 164 q 79 196 65 188 q 107 214 93 204 q 151 258 133 232 q 174 315 168 285 q 173 378 179 346 q 147 443 167 411 q 100 443 124 443 q 53 444 76 443 q 11 454 19 446 q 0 496 3 463 q 0 517 0 507 q 1 539 0 528 q 6 556 1 551 q 25 564 11 561 q 55 566 40 565 q 88 567 69 567 q 78 622 81 594 q 78 676 75 649 q 114 799 83 739 q 218 890 147 863 q 321 913 269 910 q 424 892 372 915 q 494 828 468 871 q 493 797 506 810 q 462 769 478 782 q 429 744 446 757 q 418 742 425 742 q 404 744 411 743 q 394 749 399 746 q 386 756 390 753 q 367 767 376 761 q 347 776 358 772 q 272 780 303 796 q 229 717 240 764 q 233 631 221 674 q 247 597 240 614 q 261 564 254 581 q 281 563 268 563 q 395 558 339 560 q 510 553 451 556 q 542 542 533 551 q 551 510 550 533 l 551 504 q 536 453 549 467 q 486 439 524 440 q 406 438 446 438 q 326 439 367 439 l 303 439 q 295 299 310 364 q 233 171 281 233 q 278 171 257 171 q 319 169 299 171 q 418 169 368 169 q 517 168 468 169 z "},"€":{"ha":614,"x_min":0,"x_max":553,"o":"m 528 213 q 553 183 553 206 q 552 145 553 164 q 550 107 551 126 q 517 78 546 78 q 460 82 486 78 q 193 228 301 111 q 160 272 174 247 q 138 322 147 296 q 133 333 135 328 q 128 346 131 339 l 51 346 q 7 390 7 347 q 7 406 7 399 q 8 422 7 414 q 17 451 10 443 q 46 464 25 460 q 61 466 53 465 q 76 467 69 467 q 91 468 83 468 q 106 469 99 468 l 106 531 q 85 531 94 531 q 67 532 76 531 q 46 533 56 532 q 25 535 36 533 q 3 556 6 538 q 1 586 1 571 q 0 617 0 601 q 28 647 0 640 q 45 650 36 649 q 63 651 54 651 q 95 652 79 653 q 126 651 111 651 q 132 660 132 660 q 197 767 154 722 q 292 847 239 811 q 381 894 335 878 q 481 915 428 910 q 490 916 485 915 q 499 915 494 917 q 529 892 528 915 q 533 796 533 843 q 526 780 533 785 q 508 772 518 775 q 467 760 489 765 q 426 747 446 754 q 314 663 361 721 q 310 657 311 660 q 306 650 308 654 l 414 650 q 429 651 421 650 q 444 651 438 651 q 463 646 457 650 q 472 629 469 642 q 472 557 476 593 q 444 535 472 535 q 399 534 421 533 q 353 535 376 535 l 265 535 q 259 510 260 519 q 263 478 258 500 l 288 478 q 360 480 324 479 q 435 481 397 481 l 449 481 q 471 472 464 478 q 479 450 478 467 q 481 423 481 436 q 481 394 481 410 q 473 370 479 376 q 449 363 467 364 q 388 359 418 360 q 328 356 358 358 l 303 356 q 309 346 307 350 q 314 339 311 342 q 358 289 333 311 q 413 250 382 267 q 443 238 428 243 q 475 226 458 232 q 501 219 488 222 q 528 213 514 215 z "},"¥":{"ha":679,"x_min":-7,"x_max":621,"o":"m 601 978 q 615 954 621 974 q 607 936 614 944 q 511 742 558 839 q 415 547 464 644 q 398 513 406 531 q 381 474 390 494 l 410 474 l 490 474 q 517 466 510 474 q 526 439 524 458 q 528 415 528 428 q 529 390 529 403 q 499 354 531 356 q 447 350 472 351 q 397 346 422 349 q 391 344 394 344 q 382 343 388 344 l 382 310 q 415 310 399 310 q 449 308 432 310 l 489 308 q 524 271 524 304 q 523 246 524 258 q 521 221 522 233 q 513 200 518 206 q 492 193 507 194 q 453 190 472 190 q 415 189 435 190 l 382 189 q 381 177 382 182 q 381 167 381 172 l 381 40 q 374 13 381 21 q 349 3 368 4 q 282 3 315 -1 q 249 35 253 4 q 246 75 247 54 q 243 117 244 96 l 243 183 q 230 184 236 183 q 218 185 224 185 q 166 183 192 183 q 114 183 140 183 q 82 192 90 183 q 74 224 74 200 q 74 252 74 239 q 76 281 75 265 q 84 305 78 300 q 110 310 90 310 l 224 310 q 240 311 233 310 l 240 354 l 214 354 q 160 355 186 356 q 107 357 135 354 q 82 367 88 360 q 76 393 76 374 l 76 431 q 87 459 79 451 q 115 468 94 467 q 161 469 139 469 q 207 471 183 469 q 216 472 211 471 q 228 474 221 472 q 221 488 224 482 q 215 501 218 494 q 128 692 171 597 q 38 881 86 788 q 19 919 28 900 q 3 958 11 939 q 18 982 -7 982 q 72 983 46 983 q 125 982 99 982 q 167 953 154 982 q 213 842 190 897 q 260 732 236 788 q 281 681 271 707 q 300 631 290 656 q 306 619 303 625 q 313 604 308 614 q 322 628 318 618 q 331 647 326 638 q 390 785 361 717 q 451 921 419 853 q 469 956 461 943 q 487 974 476 968 q 513 982 497 981 q 553 983 528 983 q 576 981 564 982 q 601 978 589 981 z "},"+":{"ha":588,"x_min":-3,"x_max":526,"o":"m 476 586 q 507 578 497 586 q 519 550 517 569 q 524 517 522 533 q 525 485 525 500 q 515 446 526 457 q 476 433 504 435 q 425 431 450 431 q 374 429 400 431 l 349 429 q 347 417 347 422 q 347 407 347 413 l 347 276 q 339 242 347 253 q 307 229 331 232 q 267 226 288 226 q 228 226 247 225 q 189 267 193 228 q 185 308 186 288 q 183 351 183 329 q 182 390 182 371 q 182 429 182 410 l 110 429 q 76 431 93 431 q 44 431 60 431 q 4 464 10 433 q 0 535 -3 499 q 35 571 3 567 q 75 577 54 575 q 115 581 96 579 q 148 581 132 582 q 183 581 164 581 l 183 610 q 182 671 182 640 q 182 732 182 701 q 213 767 182 767 q 260 764 236 765 q 307 760 283 763 q 328 747 322 757 q 336 724 335 738 q 340 685 339 704 q 342 646 340 665 q 344 617 343 632 q 344 588 344 603 q 356 586 351 586 q 365 586 360 586 l 476 586 l 476 586 z "},"–":{"ha":433,"x_min":0,"x_max":372,"o":"m 372 507 q 372 470 372 488 q 371 435 371 453 q 353 411 368 415 q 324 406 340 406 q 255 405 289 404 q 186 406 221 406 q 169 406 186 406 q 129 406 153 406 q 80 406 106 406 q 35 408 54 407 q 8 417 14 410 q 0 443 1 424 l 0 501 q 38 539 1 538 q 74 540 56 540 q 111 539 92 539 q 165 538 139 538 q 219 536 192 538 q 283 533 251 535 q 347 529 315 532 q 372 507 371 529 z "},"=":{"ha":696,"x_min":0,"x_max":638,"o":"m 36 543 q 6 574 8 543 q 1 612 3 593 q 0 650 0 631 q 24 682 0 676 q 40 685 32 685 q 57 685 49 685 q 186 683 122 683 q 314 681 250 682 q 414 678 365 679 q 501 676 456 676 q 579 675 546 675 q 617 664 604 675 q 632 621 629 653 q 625 557 638 574 q 569 539 613 540 q 442 538 506 538 q 314 540 379 539 l 89 540 q 63 541 76 540 q 36 543 50 542 m 579 483 q 617 472 604 483 q 632 429 629 461 q 626 365 638 382 q 569 347 614 349 q 442 346 506 344 q 314 347 379 347 q 201 349 257 349 q 89 349 146 349 q 63 349 76 349 q 36 350 50 350 q 6 382 8 353 q 1 420 3 401 q 0 458 0 439 q 24 490 0 485 q 40 493 32 493 q 57 493 49 493 q 186 491 122 492 q 314 489 250 490 q 414 486 365 488 q 501 484 456 485 q 579 483 546 483 z "},"“":{"ha":463,"x_min":-4,"x_max":401,"o":"m 161 981 q 185 946 185 972 q 181 900 185 922 q 165 821 175 860 q 143 743 156 782 q 100 713 133 711 q 66 716 83 714 q 32 722 49 718 q 1 772 -4 733 q 12 830 6 800 q 26 897 18 860 q 34 929 29 910 q 46 969 39 949 q 61 996 51 989 q 92 1000 71 1003 q 126 992 110 997 q 161 981 143 986 m 378 981 q 401 946 401 972 q 397 900 401 922 q 382 821 392 860 q 360 743 372 782 q 317 713 350 711 q 283 716 300 714 q 249 722 265 718 q 218 772 213 733 q 228 830 222 800 q 243 897 235 860 q 251 929 246 910 q 263 969 256 949 q 278 996 268 989 q 308 1000 288 1003 q 343 992 326 997 q 378 981 360 986 z "},"”":{"ha":463,"x_min":-4,"x_max":401,"o":"m 161 981 q 185 946 185 972 q 181 900 185 922 q 165 821 175 860 q 143 743 156 782 q 100 713 133 711 q 66 716 83 714 q 32 722 49 718 q 1 772 -4 733 q 12 830 6 800 q 26 897 18 860 q 34 929 29 910 q 46 969 39 949 q 61 996 51 989 q 92 1000 71 1003 q 126 992 110 997 q 161 981 143 986 m 378 981 q 401 946 401 972 q 397 900 401 922 q 382 821 392 860 q 360 743 372 782 q 317 713 350 711 q 283 716 300 714 q 249 722 265 718 q 218 772 213 733 q 228 830 222 800 q 243 897 235 860 q 251 929 246 910 q 263 969 256 949 q 278 996 268 989 q 308 1000 288 1003 q 343 992 326 997 q 378 981 360 986 z "},"%":{"ha":744,"x_min":0,"x_max":685,"o":"m 635 957 q 576 807 607 882 q 474 578 525 692 q 374 350 424 465 q 310 202 342 275 q 247 54 279 129 l 226 13 q 197 -6 218 -6 q 172 -6 186 -6 q 145 -8 158 -7 q 122 -8 132 -8 q 107 -8 111 -8 q 76 -9 92 -8 q 44 -8 60 -10 q 22 21 14 -8 q 29 42 25 32 q 39 63 33 51 q 185 385 113 225 q 332 707 258 544 q 381 823 357 765 q 429 939 406 881 q 444 971 438 960 q 458 988 450 982 q 480 996 467 994 q 515 997 493 997 q 564 997 539 997 q 613 993 589 996 q 638 983 635 990 q 635 957 642 976 m 239 631 q 186 601 213 608 q 135 597 160 593 q 89 613 111 600 q 50 643 67 625 q 13 701 25 669 q 0 768 1 733 q 12 849 0 813 q 51 915 24 885 q 138 960 88 956 q 232 931 189 964 q 268 893 254 913 q 297 829 289 865 q 301 756 306 793 q 281 686 297 719 q 239 631 265 653 m 647 307 q 676 242 668 278 q 681 170 685 207 q 660 100 676 133 q 618 44 644 67 q 566 14 592 22 q 516 9 540 6 q 469 25 492 13 q 431 56 447 38 q 379 182 382 108 q 432 328 379 271 q 519 372 468 368 q 611 343 569 376 q 647 307 632 328 z "},"&":{"ha":661,"x_min":-3,"x_max":613,"o":"m 590 82 q 581 31 613 50 q 526 4 558 15 q 501 4 513 -1 q 482 21 490 10 q 458 49 469 35 q 436 76 447 63 q 421 94 428 88 q 402 81 411 88 q 385 68 393 75 q 316 26 351 44 q 240 1 281 8 q 178 -3 208 -4 q 118 11 147 -1 q 36 70 65 32 q 1 178 7 108 q 9 272 -3 226 q 46 358 21 317 q 92 428 67 394 q 140 497 117 463 q 147 506 143 501 q 154 515 150 511 q 134 555 143 535 q 115 596 125 575 q 83 683 96 638 q 65 774 71 728 q 69 844 61 808 q 99 910 78 879 q 151 964 119 942 q 225 993 183 986 q 268 997 247 996 q 311 994 289 999 q 411 942 368 983 q 465 843 454 900 q 469 790 472 817 q 460 738 467 764 q 413 624 444 674 q 378 572 396 597 q 342 519 360 546 q 335 510 339 515 q 328 501 332 506 q 378 406 353 453 q 436 314 404 358 q 452 326 444 321 q 468 338 460 332 q 513 335 490 353 q 556 281 542 313 q 553 235 568 257 q 536 210 544 222 q 517 183 528 197 q 527 169 522 176 q 538 156 532 163 q 590 82 567 118 m 239 826 q 233 756 232 790 q 242 686 235 721 q 247 666 244 675 q 251 647 249 657 q 257 646 256 647 q 265 657 263 654 q 324 781 307 713 q 328 807 328 793 q 326 836 329 821 q 313 872 325 853 q 265 878 293 901 q 239 826 243 858 m 214 150 q 279 177 250 157 q 336 222 308 197 q 285 299 311 261 q 233 378 260 338 q 198 328 214 353 q 169 278 182 304 q 156 248 163 263 q 146 218 150 233 q 155 160 136 178 q 214 150 174 142 z "},"@":{"ha":839,"x_min":-3,"x_max":778,"o":"m 704 794 q 755 690 736 744 q 776 575 774 635 q 777 533 778 554 q 771 490 776 511 q 753 422 764 456 q 731 354 742 389 q 706 310 722 331 q 671 271 690 289 q 624 246 650 254 q 572 238 599 238 q 519 248 544 239 q 474 276 493 257 q 463 286 469 279 q 434 273 447 279 q 406 264 421 267 q 344 260 378 257 q 279 280 310 264 q 224 326 249 296 q 192 404 200 357 q 190 514 181 461 q 228 615 200 567 q 283 675 249 656 q 360 701 317 694 q 444 681 404 707 q 492 701 463 697 q 542 693 521 704 q 555 678 553 686 q 557 658 557 669 q 558 572 558 615 q 558 486 558 529 q 560 440 560 463 q 563 393 561 417 q 569 371 564 381 q 583 353 575 361 q 615 354 601 338 q 628 372 624 363 q 657 622 692 490 q 638 676 649 650 q 610 726 626 703 q 550 787 585 764 q 476 819 515 810 q 397 822 436 828 q 322 793 357 815 q 222 696 265 757 q 170 603 192 651 q 142 501 149 556 q 144 368 132 436 q 169 312 151 336 q 213 268 186 288 q 288 226 247 240 q 369 206 328 213 q 434 197 401 200 q 500 200 467 194 q 517 204 508 203 q 535 208 526 206 q 578 183 567 214 q 581 174 581 179 q 583 165 582 169 q 557 110 592 126 q 488 83 524 93 q 415 76 453 74 q 349 81 382 78 q 283 90 315 83 q 157 144 211 107 q 67 231 103 181 q 14 340 31 281 q 0 463 -3 400 q 36 624 6 549 q 118 768 67 700 q 379 926 217 897 q 574 908 478 944 q 649 863 617 892 q 704 794 681 833 m 426 546 q 427 560 426 553 q 428 575 428 567 q 358 577 392 590 q 311 532 324 564 q 333 389 282 456 q 371 367 349 369 q 413 378 393 365 q 424 391 421 385 q 426 408 426 397 q 426 477 425 443 q 426 546 426 511 z "},"¬":{"ha":753,"x_min":0,"x_max":692,"o":"m 638 615 q 669 606 658 614 q 685 576 679 597 q 692 517 692 544 q 691 435 692 476 q 689 354 690 394 q 671 331 689 335 q 615 323 643 324 q 560 325 588 322 q 544 333 549 326 q 539 351 540 340 l 535 435 q 533 451 533 440 l 506 451 q 318 449 411 450 q 129 446 225 447 q 85 446 107 446 q 40 447 64 446 q 8 457 17 449 q 0 489 0 465 q 1 531 0 510 q 3 575 1 553 q 10 597 4 590 q 32 607 17 604 q 78 611 54 611 q 330 615 204 614 q 582 618 456 615 q 610 617 596 618 q 638 615 624 617 z "},"~":{"ha":822,"x_min":-3,"x_max":761,"o":"m 739 654 q 761 626 761 647 q 742 508 761 564 q 679 408 724 453 q 583 358 639 367 q 474 372 526 349 q 429 397 450 383 q 388 425 408 411 q 355 450 371 436 q 324 476 339 464 q 251 508 289 500 q 175 479 203 517 q 157 444 164 464 q 149 415 150 429 q 131 379 142 388 q 92 369 119 371 q 63 369 76 369 q 33 372 49 369 q 1 403 6 376 q 2 474 -3 438 q 22 542 7 510 q 63 601 36 574 q 128 647 89 629 q 214 665 165 665 q 357 614 293 665 q 388 590 372 603 q 418 564 403 576 q 453 539 436 551 q 489 517 469 526 q 553 513 524 499 q 592 565 582 528 q 600 618 599 593 q 612 650 603 642 q 643 658 621 658 q 672 659 658 658 q 701 658 686 660 q 739 654 722 658 z "},"¶":{"ha":689,"x_min":-8,"x_max":628,"o":"m 390 872 q 392 710 392 790 q 396 546 393 629 q 403 308 399 426 q 404 68 407 189 q 397 14 404 44 q 385 -7 392 -3 q 361 -11 378 -11 q 332 -12 346 -11 q 303 -11 318 -12 q 269 -7 286 -11 q 245 5 251 -3 q 238 31 239 13 q 231 201 235 117 q 224 371 226 285 q 222 413 222 392 q 221 457 221 435 q 195 458 207 458 q 172 461 183 458 q 123 477 144 464 q 82 511 101 490 q 29 596 47 550 q 4 693 11 642 q 18 853 -8 775 q 186 994 60 974 q 253 1005 219 1001 q 321 1004 286 1008 q 332 1003 326 1003 q 343 1001 338 1003 q 377 984 368 994 q 388 949 386 974 q 390 910 390 929 q 390 872 389 892 m 626 242 q 628 151 628 197 q 628 60 628 106 q 613 2 626 15 q 556 -12 600 -11 q 524 -13 540 -14 q 490 -11 507 -12 q 458 19 463 -10 q 455 48 456 35 q 453 76 454 61 q 449 294 450 185 q 446 511 449 403 q 445 535 446 511 q 444 597 444 558 q 442 684 443 635 q 440 784 440 733 q 438 883 439 835 q 436 971 436 932 q 442 994 436 986 q 465 1003 449 1003 q 520 1001 493 1003 q 575 999 547 1000 q 606 971 601 997 q 610 940 608 956 q 611 908 611 924 q 610 790 611 849 q 613 671 610 731 q 619 456 615 563 q 626 242 624 350 z "},"§":{"ha":550,"x_min":-4,"x_max":500,"o":"m 383 664 q 474 573 447 632 q 481 443 500 514 q 367 322 456 354 q 339 313 351 318 q 363 287 351 299 q 385 261 375 275 q 404 144 424 208 q 363 65 390 99 q 290 13 335 32 q 213 -6 253 -3 q 133 6 174 -10 q 90 33 110 17 q 50 85 65 57 q 24 146 35 114 q 43 192 14 178 q 89 208 65 201 q 131 193 114 217 q 151 164 140 178 q 174 136 163 150 q 225 110 193 114 q 271 126 250 104 q 271 172 288 149 q 255 190 264 182 q 236 206 246 199 q 171 249 204 228 q 106 294 138 271 q 25 406 43 339 q 39 544 7 472 q 64 589 50 568 q 97 629 78 610 q 87 637 92 633 q 76 644 82 640 q 28 692 47 663 q 2 758 8 722 q 4 830 -4 793 q 38 899 13 867 q 201 992 103 979 q 231 996 217 994 q 260 997 244 997 q 354 968 310 999 q 454 856 418 921 q 462 827 464 838 q 444 803 460 817 q 433 792 438 797 q 421 783 428 788 q 397 772 406 772 q 374 785 389 772 q 351 806 363 796 q 328 826 339 817 q 288 854 308 842 q 244 874 268 867 q 172 864 206 882 q 140 826 150 851 q 138 778 129 801 q 164 749 147 760 q 190 736 176 742 q 215 726 203 731 q 301 699 260 714 q 383 664 343 683 m 344 429 q 364 479 364 451 q 333 538 364 514 q 244 581 296 567 q 218 575 228 585 q 194 551 206 564 q 171 525 182 539 q 158 499 160 514 q 160 469 157 485 q 190 415 167 433 q 246 383 214 396 q 252 383 249 382 q 258 383 256 383 q 305 400 283 390 q 344 429 326 410 z "},"Ø":{"ha":807,"x_min":-1,"x_max":746,"o":"m 726 824 q 700 790 713 807 q 674 757 688 774 q 667 747 671 751 q 660 738 663 743 q 667 725 664 729 q 717 628 699 678 q 738 519 735 578 q 736 415 740 467 q 715 313 732 363 q 557 126 676 188 q 460 89 510 103 q 356 78 410 75 q 270 92 311 81 q 192 131 229 103 l 178 117 q 147 77 163 97 q 115 38 131 57 q 87 17 100 19 q 54 28 74 15 q 33 43 43 35 q 13 61 24 51 q 0 82 1 72 q 7 107 -1 92 q 24 131 15 119 q 42 156 33 143 q 64 183 53 169 q 86 210 75 196 q 90 247 101 226 q 40 585 6 411 q 89 718 56 657 q 183 826 122 779 q 444 883 297 914 q 507 863 478 876 q 565 831 536 850 l 582 847 q 609 878 596 863 q 636 908 622 893 q 678 917 656 931 q 708 894 693 906 q 739 871 724 883 q 745 860 746 867 q 742 847 744 854 q 726 824 736 835 m 178 422 q 186 392 181 407 q 197 360 192 378 q 335 538 268 451 q 474 715 403 625 q 415 731 443 725 q 358 733 388 736 q 231 669 283 728 q 197 624 211 647 q 176 571 183 600 q 170 497 169 535 q 178 422 171 460 m 600 424 q 592 556 608 490 q 583 585 588 571 q 571 615 578 599 q 431 438 500 524 q 293 264 363 351 q 302 260 299 261 q 310 257 306 258 q 402 249 357 243 q 492 275 447 256 q 567 334 542 296 q 600 424 593 372 z "},"'":{"ha":246,"x_min":-4,"x_max":185,"o":"m 161 981 q 185 946 185 972 q 181 900 185 922 q 165 821 175 860 q 143 743 156 782 q 100 713 133 711 q 66 716 83 714 q 32 722 49 718 q 1 772 -4 733 q 12 830 6 800 q 26 897 18 860 q 34 929 29 910 q 46 969 39 949 q 61 996 51 989 q 92 1000 71 1003 q 126 992 110 997 q 161 981 143 986 z "},"™":{"ha":557,"x_min":0,"x_max":496,"o":"m 190 1006 q 204 993 204 1006 q 203 972 204 982 q 201 950 203 961 q 190 940 200 940 q 169 940 179 938 q 161 949 161 940 l 161 961 q 151 969 160 969 l 128 969 l 128 743 q 137 742 132 742 q 146 740 142 742 q 154 738 153 739 q 156 731 156 738 q 157 715 157 722 q 157 700 157 707 q 150 693 157 693 q 142 692 147 692 q 106 691 124 692 q 71 690 89 690 q 55 694 58 690 q 51 710 51 697 l 51 728 q 67 742 53 742 l 79 742 q 78 854 78 799 q 76 968 78 910 l 50 968 q 46 963 46 968 l 46 950 q 35 936 46 938 q 14 938 21 936 q 4 947 4 938 q 0 990 0 968 q 14 1006 0 1004 q 37 1006 25 1006 q 60 1007 49 1007 q 106 1006 83 1007 q 153 1006 129 1006 l 190 1006 m 481 743 q 494 732 493 743 q 495 717 494 725 q 496 703 496 710 q 483 692 496 692 q 465 692 474 692 q 446 690 456 692 l 413 690 q 393 708 394 692 q 392 719 393 714 q 393 731 392 725 q 410 744 393 746 l 417 744 q 418 772 418 747 q 417 826 418 797 q 416 881 417 856 q 414 910 415 906 q 411 906 413 907 q 410 903 410 906 q 391 873 400 888 q 372 843 382 858 q 359 833 365 832 q 346 842 353 833 q 328 865 336 853 q 310 889 319 876 q 300 901 304 897 q 299 876 299 889 q 300 850 300 863 q 301 823 300 836 q 301 796 301 810 l 301 743 q 308 742 304 742 q 314 740 311 742 q 324 728 324 738 l 324 704 q 311 692 322 693 l 286 692 q 267 691 276 692 q 249 690 258 690 l 242 690 q 229 703 229 692 q 228 715 228 710 q 228 726 228 721 q 243 742 228 742 q 246 742 244 742 q 249 743 247 743 q 250 778 250 746 q 249 847 250 810 q 248 917 249 885 q 247 957 247 950 l 239 957 q 226 968 226 958 q 226 997 224 982 q 235 1006 226 1006 l 258 1006 q 281 1005 269 1006 q 304 1004 293 1004 q 318 996 314 1004 q 335 961 325 978 q 357 929 346 944 q 360 926 357 929 q 364 936 363 932 q 382 967 374 951 q 399 999 390 983 q 410 1007 403 1007 l 433 1007 q 456 1006 444 1006 q 478 1004 467 1006 q 492 990 492 1003 l 492 965 q 478 954 490 954 q 464 953 474 953 q 466 849 467 900 q 469 744 465 797 q 481 743 476 744 z "}," ":{"ha":406,"x_min":0,"x_max":0,"o":""},"´":{"ha":400,"x_min":-11,"x_max":342,"o":"m 314 1042 q 335 1029 329 1039 q 336 1006 342 1019 q 317 963 331 986 q 253 869 286 914 q 181 782 219 824 q 150 765 167 765 q 128 765 139 764 q 111 764 118 765 l 32 764 q 22 765 28 765 q 4 800 -11 772 q 17 822 11 811 q 32 843 24 832 q 94 921 64 882 q 157 999 125 960 q 217 1033 179 1028 q 256 1038 236 1036 q 296 1043 276 1040 q 305 1043 300 1043 q 314 1042 310 1043 z "},"`":{"ha":400,"x_min":-4,"x_max":349,"o":"m 24 1042 q 33 1043 28 1043 q 42 1043 38 1043 q 81 1038 61 1040 q 121 1033 101 1036 q 181 999 158 1028 q 243 921 213 960 q 306 843 274 882 q 320 822 314 832 q 333 800 326 811 q 315 765 349 772 q 306 764 310 765 l 226 764 q 209 765 219 765 q 188 765 199 764 q 157 782 171 765 q 85 869 118 824 q 21 963 51 914 q 1 1006 7 986 q 2 1029 -4 1019 q 24 1042 8 1039 z "},"˘":{"ha":571,"x_min":0,"x_max":513,"o":"m 481 1033 q 508 999 513 1033 q 503 968 506 979 q 458 878 485 919 q 389 804 431 836 q 292 761 343 769 q 188 768 242 753 q 91 817 131 783 q 25 901 51 851 q 0 1007 0 951 q 6 1031 0 1024 q 28 1042 13 1039 q 59 1044 40 1044 q 79 1044 78 1044 l 107 1044 q 138 1037 131 1043 q 149 1008 144 1031 q 155 981 151 994 q 164 954 158 968 q 214 892 176 917 q 263 877 240 876 q 311 904 285 878 q 351 978 340 933 q 356 996 354 988 q 361 1013 358 1004 q 386 1033 365 1033 q 433 1034 410 1033 q 481 1033 457 1035 z "},"˝":{"ha":463,"x_min":-4,"x_max":401,"o":"m 161 981 q 185 946 185 972 q 181 900 185 922 q 165 821 175 860 q 143 743 156 782 q 100 713 133 711 q 66 716 83 714 q 32 722 49 718 q 1 772 -4 733 q 12 830 6 800 q 26 897 18 860 q 34 929 29 910 q 46 969 39 949 q 61 996 51 989 q 92 1000 71 1003 q 126 992 110 997 q 161 981 143 986 m 378 981 q 401 946 401 972 q 397 900 401 922 q 382 821 392 860 q 360 743 372 782 q 317 713 350 711 q 283 716 300 714 q 249 722 265 718 q 218 772 213 733 q 228 830 222 800 q 243 897 235 860 q 251 929 246 910 q 263 969 256 949 q 278 996 268 989 q 308 1000 288 1003 q 343 992 326 997 q 378 981 360 986 z "},"ˇ":{"ha":556,"x_min":-8,"x_max":496,"o":"m 17 1042 q 81 1042 49 1042 q 144 1043 113 1042 q 176 1024 167 1043 q 202 968 189 996 q 228 913 215 940 q 237 894 232 903 q 249 874 242 885 q 257 889 253 883 q 264 901 261 894 q 299 961 282 932 q 333 1022 317 990 q 351 1039 340 1035 q 375 1043 361 1043 q 423 1042 399 1042 q 471 1043 447 1043 q 484 1043 478 1043 q 493 1036 490 1043 q 492 1022 496 1031 q 489 1013 489 1014 q 418 901 453 956 q 349 790 383 846 q 300 765 331 764 l 208 769 q 183 777 193 769 q 163 796 172 785 q 89 899 126 849 q 15 1001 51 950 q 10 1009 13 1006 q 4 1017 7 1013 q 17 1042 -8 1039 z "},"˚":{"ha":417,"x_min":0,"x_max":360,"o":"m 346 928 q 354 848 360 886 q 329 780 349 810 q 279 729 310 750 q 213 700 249 708 q 129 703 168 692 q 33 764 67 719 q 0 875 0 808 q 44 1001 0 946 q 204 1054 108 1079 q 292 1010 256 1039 q 346 928 329 981 m 204 779 q 276 876 276 800 q 251 947 276 915 q 163 976 218 992 q 114 952 135 969 q 83 906 93 935 q 78 861 75 882 q 93 824 82 840 q 121 795 104 807 q 158 779 138 783 q 204 779 181 772 z "},"¨":{"ha":468,"x_min":1,"x_max":407,"o":"m 89 933 q 147 910 121 933 q 172 849 172 888 q 145 787 172 808 q 86 765 118 765 q 24 789 46 767 q 1 851 3 811 q 9 886 1 871 q 29 912 17 901 q 58 928 42 922 q 89 933 74 933 m 324 933 q 381 910 356 933 q 407 849 407 888 q 380 787 407 808 q 321 765 353 765 q 259 789 281 767 q 236 851 238 811 q 244 886 236 871 q 264 912 251 901 q 292 928 276 922 q 324 933 308 933 z "},"ˆ":{"ha":460,"x_min":-11,"x_max":413,"o":"m 392 818 q 367 767 413 774 q 315 764 340 764 q 263 765 289 764 q 243 772 251 765 q 231 790 235 779 q 216 828 224 810 q 201 867 208 847 l 193 892 q 186 893 189 892 q 169 852 178 872 q 153 810 160 832 q 106 769 140 774 q 67 766 86 767 q 28 764 47 765 q 3 800 -11 764 q 7 809 6 804 q 11 818 8 814 q 60 910 35 864 q 108 1004 85 956 q 172 1044 128 1044 l 235 1049 q 279 1025 264 1049 q 392 818 340 928 z "},"≠":{"ha":693,"x_min":-1,"x_max":632,"o":"m 389 539 q 364 525 371 539 q 352 506 358 515 q 339 483 346 496 q 354 483 349 483 q 367 482 360 482 q 458 483 413 483 q 550 485 504 483 l 567 485 q 617 469 603 485 q 629 418 632 454 q 628 405 629 411 q 626 392 628 399 q 585 354 618 358 q 563 352 574 353 q 542 351 553 351 q 419 352 479 351 q 296 354 358 353 q 263 333 272 354 q 231 277 247 306 q 197 221 214 249 q 132 186 176 182 q 103 186 117 188 q 74 186 89 185 q 41 201 49 188 q 44 236 33 214 q 70 283 57 260 q 96 329 83 306 q 102 341 99 335 q 111 357 106 347 l 58 357 q 46 357 51 357 q 33 358 40 357 q 9 367 15 361 q 1 392 3 372 q 1 442 -1 417 q 51 489 6 486 q 78 490 65 490 q 103 488 90 489 q 133 487 118 488 q 163 485 147 486 l 179 485 q 193 510 186 497 q 208 538 200 522 l 185 538 q 123 538 153 539 q 61 539 93 538 q 26 547 35 539 q 13 582 17 556 q 10 611 10 597 q 10 639 10 625 q 43 678 11 671 q 64 681 54 681 q 83 681 74 681 l 281 681 q 313 733 297 707 q 344 785 328 758 q 356 803 350 794 q 369 819 363 811 q 413 838 388 839 l 479 833 q 493 829 485 832 q 511 782 528 814 q 490 744 500 763 q 468 706 479 725 q 460 693 464 699 q 451 679 457 688 q 471 678 463 679 q 488 678 479 678 l 565 678 q 582 676 574 678 q 599 672 590 675 q 617 662 610 669 q 626 643 625 654 q 631 608 629 625 q 631 574 632 590 q 589 538 626 539 l 510 538 q 449 538 479 538 q 389 539 419 538 z "},"∑":{"ha":619,"x_min":-6,"x_max":558,"o":"m 519 135 q 546 124 539 132 q 556 97 553 117 q 558 64 558 81 q 557 31 558 47 q 549 10 556 15 q 528 1 543 4 q 511 0 519 0 q 494 0 503 0 l 101 0 q 71 0 86 0 q 40 1 56 0 q 7 32 11 3 q 4 138 -6 88 q 10 158 6 149 q 22 175 15 167 q 139 329 81 253 q 257 483 197 406 q 258 486 258 485 q 260 490 258 488 q 229 541 244 515 q 197 590 214 567 q 118 725 154 657 q 46 861 82 793 q 32 917 32 889 q 35 974 32 944 q 54 993 38 990 q 72 995 64 994 q 90 996 81 996 q 180 996 135 996 q 269 997 225 996 l 471 997 q 492 997 482 997 q 514 994 503 996 q 542 967 539 992 q 542 906 543 936 q 531 882 539 889 q 507 872 524 875 q 470 869 488 869 q 433 867 453 868 l 247 867 l 219 867 q 228 846 224 854 q 319 695 274 771 q 410 543 365 619 q 422 522 417 532 q 433 501 426 513 q 429 457 446 478 q 410 432 419 444 q 390 407 401 419 q 296 283 343 344 q 200 158 249 221 q 194 149 199 157 q 210 146 203 147 q 224 144 217 144 q 292 142 258 143 q 360 140 325 142 q 423 140 392 140 q 486 139 454 139 q 503 138 494 138 q 519 135 511 138 z "},"◊":{"ha":560,"x_min":-8,"x_max":499,"o":"m 492 550 q 498 526 499 538 q 492 504 497 515 q 458 436 475 469 q 425 369 442 403 q 377 270 401 319 q 329 171 353 221 q 296 146 318 147 q 271 144 283 144 q 246 143 258 143 q 203 167 219 143 q 103 322 153 244 q 8 479 54 399 q 7 531 -8 506 q 65 626 36 579 q 121 722 93 674 q 152 774 136 749 q 182 828 168 800 q 243 865 203 867 q 251 865 247 864 q 257 865 254 865 l 272 865 q 329 836 308 867 q 367 776 349 806 q 403 715 385 747 q 448 633 426 675 q 492 550 469 590 m 265 300 q 316 416 292 360 q 365 529 340 472 q 310 628 338 579 q 254 729 282 678 q 195 623 224 675 q 138 518 167 571 q 201 410 169 464 q 265 300 232 357 z "},"∏":{"ha":650,"x_min":0,"x_max":590,"o":"m 532 994 q 570 985 558 996 q 585 950 582 975 q 586 869 590 913 q 575 839 583 846 q 543 833 567 832 l 522 833 q 522 816 522 824 q 522 800 521 808 q 524 419 524 608 q 528 36 525 229 q 517 -1 528 8 q 476 -8 507 -11 q 446 -7 461 -7 q 415 -7 431 -7 q 374 35 375 -6 q 374 61 374 49 q 374 88 375 74 q 371 296 372 192 q 369 504 369 400 q 369 619 368 563 q 372 735 371 676 l 372 831 l 222 831 q 221 818 221 825 q 221 603 221 710 q 222 390 221 497 q 225 265 222 328 q 229 140 228 203 q 228 86 229 113 q 226 32 228 60 q 189 -3 225 -4 q 153 -1 171 -3 q 117 3 135 0 q 90 31 93 7 q 86 81 86 56 q 82 447 83 265 q 79 813 81 628 l 79 831 l 33 831 q 10 836 15 831 q 3 860 4 842 q 1 902 1 881 q 0 944 0 924 q 8 979 0 969 q 43 992 17 989 q 110 994 76 994 q 176 993 143 993 q 301 992 239 992 q 425 992 363 992 q 479 993 453 992 q 532 994 506 994 z "},"√":{"ha":699,"x_min":-12,"x_max":638,"o":"m 636 968 q 637 940 636 953 q 638 913 638 926 q 631 884 638 892 q 601 874 624 876 q 546 870 574 871 q 490 867 518 869 l 464 867 q 458 824 461 844 q 453 783 456 804 q 411 476 432 628 q 369 168 390 324 q 360 103 365 136 q 350 38 356 71 q 337 1 346 10 q 300 -8 328 -7 q 267 -11 283 -11 q 233 -12 250 -11 q 169 19 190 -15 q 89 141 129 81 q 8 263 49 201 q 22 315 -12 296 q 54 331 38 324 q 86 344 71 338 q 118 336 104 353 q 133 315 125 325 q 149 294 142 306 q 186 240 168 267 q 224 188 204 214 q 243 163 229 179 q 259 298 251 233 q 275 428 267 363 q 288 512 281 469 q 300 596 294 554 q 313 705 307 650 q 325 814 318 760 q 333 886 329 850 q 342 958 338 922 q 349 981 343 975 q 374 989 356 988 q 451 993 411 993 q 563 997 507 997 q 588 997 575 997 q 613 994 600 996 q 636 968 635 990 z "},"∞":{"ha":983,"x_min":-4,"x_max":928,"o":"m 915 535 q 915 441 928 486 q 872 356 901 396 q 816 312 849 325 q 746 294 783 299 q 576 326 660 289 q 529 351 553 338 q 482 378 506 364 q 470 385 475 381 q 460 392 465 389 q 431 372 444 381 q 406 351 418 363 q 351 315 378 332 q 292 288 324 299 q 219 272 256 275 q 147 275 183 268 q 10 403 42 297 q 1 499 -4 450 q 22 555 6 529 q 59 599 38 581 q 107 628 81 618 q 161 639 133 639 q 263 628 214 639 q 357 589 311 617 q 403 561 381 575 q 447 532 425 547 q 501 570 475 551 q 553 607 526 589 q 738 669 636 667 q 851 639 804 672 q 915 535 899 606 m 199 381 q 290 404 250 381 q 368 460 331 428 q 364 465 365 463 q 360 468 363 467 q 200 535 289 522 q 147 528 174 539 q 115 505 128 519 q 101 468 103 490 q 136 396 97 422 q 199 381 164 378 m 821 464 q 818 521 822 489 q 771 565 811 561 q 714 565 742 569 q 624 534 665 557 q 546 476 583 511 q 626 432 586 449 q 711 404 667 415 q 747 400 729 400 q 797 418 776 401 q 821 464 817 435 z "},"∫":{"ha":558,"x_min":-3,"x_max":497,"o":"m 492 972 q 494 957 493 965 q 496 942 494 949 q 497 924 497 933 l 497 893 q 474 861 494 871 q 414 815 433 844 q 386 747 394 785 q 367 628 374 688 q 358 508 361 569 q 344 360 354 433 q 314 211 335 286 q 292 153 306 181 q 258 99 279 125 q 169 27 221 51 q 54 -3 118 3 q 22 3 31 -4 q 8 29 13 10 q 0 97 0 63 q 38 144 -3 136 q 122 187 92 156 q 171 263 153 218 q 201 389 193 322 q 217 512 208 451 q 233 635 225 572 q 245 717 239 676 q 258 800 251 758 q 308 919 269 865 q 340 954 324 939 q 379 982 357 969 q 419 995 399 992 q 460 997 439 999 q 492 972 488 997 z "},"≤":{"ha":644,"x_min":0,"x_max":586,"o":"m 33 519 q 14 548 15 535 q 28 579 13 561 q 53 604 38 593 q 90 628 72 617 q 126 651 107 640 q 268 740 197 696 q 411 828 339 783 q 438 844 425 836 q 465 860 451 853 q 498 863 486 871 q 508 832 510 856 q 507 799 508 815 q 504 765 506 782 q 469 713 500 731 q 442 697 456 706 q 415 681 429 689 q 315 621 365 650 q 211 560 264 592 q 310 510 261 535 q 407 460 358 485 q 435 445 421 453 q 463 431 449 438 q 493 379 493 414 q 494 333 493 356 q 493 286 494 310 q 465 269 493 256 q 415 295 440 282 q 365 322 390 308 q 266 379 315 350 q 167 436 217 408 q 113 467 139 451 q 61 500 88 483 q 47 509 54 504 q 33 519 40 514 m 582 192 q 575 138 586 151 q 524 122 564 124 q 406 121 465 119 q 289 122 347 122 q 186 122 238 122 q 82 124 135 122 q 58 124 69 124 q 33 125 46 124 q 4 151 8 125 q 1 184 3 168 q 0 217 0 200 q 22 243 0 239 q 38 246 29 246 q 53 246 46 246 q 172 244 113 244 q 289 242 231 243 q 315 242 289 242 q 380 241 342 242 q 460 239 418 240 q 533 238 503 238 q 568 228 557 238 q 582 192 579 218 z "},"≥":{"ha":649,"x_min":1,"x_max":588,"o":"m 554 519 q 540 509 547 514 q 526 500 533 504 q 474 467 500 483 q 421 436 449 451 q 322 379 371 408 q 222 322 272 350 q 172 295 197 308 q 122 269 147 282 q 94 286 94 256 q 94 333 93 310 q 94 379 94 356 q 125 431 94 414 q 153 445 139 438 q 181 460 167 453 q 278 510 229 485 q 376 560 326 535 q 273 621 324 592 q 172 681 222 650 q 145 697 158 689 q 118 713 132 706 q 83 765 88 731 q 81 799 82 782 q 79 832 79 815 q 90 863 78 856 q 122 860 101 871 q 149 844 136 853 q 176 828 163 836 q 319 740 249 783 q 461 651 390 696 q 498 628 481 640 q 535 604 515 617 q 560 579 549 593 q 574 548 575 561 q 554 519 572 535 m 6 192 q 19 228 8 218 q 54 238 31 238 q 127 239 85 238 q 208 241 169 240 q 272 242 246 242 q 299 242 299 242 q 416 244 357 243 q 535 246 475 244 q 550 246 542 246 q 565 243 558 246 q 588 217 588 239 q 586 184 588 200 q 583 151 585 168 q 554 125 579 125 q 530 124 542 124 q 506 124 518 124 q 401 122 453 122 q 299 122 350 122 q 181 121 240 122 q 64 122 122 119 q 13 138 24 124 q 6 192 1 151 z "},"∂":{"ha":692,"x_min":-3,"x_max":633,"o":"m 617 560 q 630 403 633 481 q 600 247 626 325 q 549 151 582 193 q 469 75 515 108 q 412 44 442 56 q 350 29 382 33 q 256 27 301 22 q 165 53 210 32 q 47 148 86 88 q 1 292 8 208 q 11 386 -3 342 q 53 472 25 431 q 128 547 82 518 q 226 588 174 576 q 333 594 279 600 q 431 564 386 589 q 435 562 433 563 q 440 560 438 561 q 444 563 442 560 q 425 601 435 582 q 404 639 415 621 q 338 725 375 686 q 253 792 300 764 q 147 835 200 825 q 121 846 128 838 q 115 874 114 854 q 118 907 117 890 q 122 940 119 924 q 160 976 129 975 q 194 976 176 976 q 228 972 211 975 q 479 824 381 940 q 565 701 528 765 q 617 560 601 636 m 465 311 q 467 326 467 318 q 467 340 468 333 q 456 383 465 363 q 431 417 446 403 q 398 442 417 432 q 361 454 379 451 q 215 426 281 467 q 163 364 179 404 q 158 283 147 324 q 301 171 186 174 q 358 181 331 171 q 408 210 386 192 q 446 256 431 229 q 465 311 461 282 z "},"":{"ha":278,"x_min":-6,"x_max":217,"o":"m 181 143 q 210 117 204 133 q 217 79 217 101 q 213 54 214 67 q 210 29 213 42 q 146 -11 199 -24 q 110 1 128 -6 q 76 17 92 7 q 0 157 -6 64 q 7 198 3 176 q 18 239 11 219 q 82 275 33 283 q 98 271 90 274 q 114 265 106 268 q 135 235 133 257 q 139 200 135 217 q 152 165 142 181 q 181 143 163 150 z "},"Ĺ":{"ha":739,"x_min":-1,"x_max":678,"o":"m 675 233 q 676 218 676 228 q 678 132 678 175 q 678 46 678 89 q 668 10 676 18 q 632 1 660 3 q 546 0 589 0 q 460 0 503 0 q 306 1 382 0 q 151 1 229 1 q 91 1 121 1 q 32 3 61 1 q 10 11 19 3 q 1 32 1 19 q -1 85 0 58 q 1 139 -1 111 q 13 167 3 160 q 42 174 22 175 l 104 174 q 106 509 103 343 q 101 844 110 675 q 69 846 85 846 q 39 847 54 846 q 15 854 19 850 q 7 879 10 858 q 6 913 6 896 q 6 949 6 931 q 42 989 7 983 q 63 990 49 990 q 146 988 104 989 q 229 985 188 986 l 307 985 q 327 985 318 985 q 346 982 336 985 q 369 957 367 979 q 370 912 369 933 q 368 868 371 890 q 342 846 367 846 q 310 844 326 844 q 278 844 294 844 q 283 510 281 676 q 289 171 286 343 l 521 171 l 521 219 q 528 250 521 243 q 557 257 535 257 q 603 258 581 258 q 647 256 625 257 q 667 251 661 256 q 675 233 672 246 m 514 1319 q 535 1307 529 1317 q 536 1283 542 1297 q 517 1240 531 1264 q 453 1147 486 1192 q 381 1060 419 1101 q 350 1043 367 1043 q 328 1042 339 1042 q 311 1042 318 1043 l 232 1042 q 222 1043 228 1043 q 204 1078 189 1050 q 217 1099 211 1089 q 232 1121 224 1110 q 294 1199 264 1160 q 357 1276 325 1238 q 417 1311 379 1306 q 456 1316 436 1314 q 496 1321 476 1318 q 505 1321 500 1321 q 514 1319 510 1321 z "},"Á":{"ha":838,"x_min":-1,"x_max":776,"o":"m 774 115 q 776 73 776 94 q 776 31 776 51 q 758 10 776 13 q 731 6 743 6 l 493 10 q 467 33 468 10 q 463 76 464 54 q 461 118 463 97 q 466 138 461 133 q 486 146 471 143 l 525 146 q 490 285 507 217 q 453 424 474 353 q 378 426 415 426 q 303 422 342 425 q 276 285 289 351 q 249 147 263 218 q 269 147 260 147 q 289 146 279 147 q 321 117 319 144 q 322 78 322 97 q 322 39 322 58 q 316 17 321 24 q 296 7 311 11 q 288 6 292 7 q 281 6 285 6 q 160 2 219 3 q 40 0 101 1 q 13 4 18 -1 q 6 33 8 10 q 2 69 3 51 q 0 106 1 88 q 5 137 -1 131 q 35 142 11 143 l 81 142 q 92 193 86 168 q 103 243 97 218 q 138 432 121 339 q 174 621 154 525 q 249 958 208 789 q 264 994 256 989 q 304 1000 272 1000 q 357 1001 331 1001 q 410 1000 383 1000 q 467 960 454 1000 q 499 858 482 908 q 529 754 517 807 q 592 508 558 629 q 661 264 626 388 q 678 206 669 235 q 694 146 686 176 l 744 142 q 766 135 760 140 q 774 115 772 131 m 401 586 q 378 665 390 626 q 356 742 367 703 q 334 665 344 703 q 319 586 324 626 l 401 586 m 599 1319 q 620 1307 614 1317 q 621 1283 626 1297 q 601 1240 615 1264 q 538 1147 571 1192 q 465 1060 504 1101 q 435 1043 451 1043 q 413 1042 424 1042 q 396 1042 403 1043 l 317 1042 q 307 1043 313 1043 q 289 1078 274 1050 q 302 1099 296 1089 q 317 1121 308 1110 q 379 1199 349 1160 q 442 1276 410 1238 q 501 1311 464 1306 q 541 1316 521 1314 q 581 1321 561 1318 q 590 1321 585 1321 q 599 1319 594 1321 z "},"Ŕ":{"ha":701,"x_min":0,"x_max":640,"o":"m 638 101 q 640 75 639 89 q 638 49 640 61 q 589 0 633 4 q 554 -1 571 -1 q 519 0 538 0 q 458 -1 489 0 q 397 1 428 -1 q 369 5 379 3 q 353 12 358 7 q 344 27 347 17 q 340 54 342 38 q 336 110 336 81 q 343 135 338 129 q 367 143 349 140 q 375 145 371 144 q 386 147 379 146 q 307 292 346 221 q 229 436 268 364 q 224 435 228 435 q 225 292 222 364 q 226 150 228 221 q 247 149 238 149 q 264 146 256 149 q 291 134 283 143 q 301 106 299 125 q 302 81 301 93 q 301 57 303 68 q 254 10 300 10 q 169 8 211 8 q 82 7 126 8 q 65 10 76 7 q 44 18 53 11 q 35 39 36 25 q 31 74 32 57 q 29 110 29 92 q 36 139 29 132 q 67 149 43 146 q 75 151 67 149 q 71 504 74 329 q 57 857 68 679 q 41 861 49 860 q 26 864 33 863 q 1 889 3 865 q 0 928 0 908 q 0 967 0 947 q 22 993 1 985 q 63 1007 42 1004 q 106 1011 85 1010 q 209 1013 158 1014 q 313 1003 260 1011 q 451 944 389 990 q 474 926 463 936 q 493 904 485 915 q 556 738 546 822 q 517 565 565 654 q 406 461 478 497 q 396 457 400 458 q 386 453 392 456 q 392 438 389 442 q 422 383 407 410 q 453 331 438 357 q 503 246 478 288 q 554 163 529 204 q 583 143 564 144 q 600 142 594 143 q 638 101 633 133 m 222 575 q 374 624 313 568 q 399 654 389 638 q 415 690 408 671 q 415 769 428 731 q 365 833 401 807 q 305 864 338 853 q 238 879 272 875 q 228 878 233 879 q 217 876 224 878 q 219 726 218 801 q 222 575 221 651 m 496 1319 q 517 1307 511 1317 q 518 1283 524 1297 q 499 1240 513 1264 q 435 1147 468 1192 q 363 1060 401 1101 q 332 1043 349 1043 q 310 1042 321 1042 q 293 1042 300 1043 l 214 1042 q 204 1043 210 1043 q 186 1078 171 1050 q 199 1099 193 1089 q 214 1121 206 1110 q 276 1199 246 1160 q 339 1276 307 1238 q 399 1311 361 1306 q 438 1316 418 1314 q 478 1321 458 1318 q 487 1321 482 1321 q 496 1319 492 1321 z "},"Ć":{"ha":650,"x_min":-1,"x_max":589,"o":"m 588 194 q 589 112 589 153 q 589 29 589 71 q 585 9 589 14 q 567 3 582 4 q 528 1 547 1 q 489 0 508 0 q 472 5 478 -1 q 461 22 465 11 q 451 19 456 21 q 442 17 447 18 q 350 2 396 3 q 260 17 304 1 q 219 31 239 24 q 181 49 199 38 q 110 106 139 72 q 61 183 81 140 q 20 301 36 242 q 1 424 4 360 q 4 577 -1 501 q 31 728 10 653 q 51 784 39 757 q 79 838 63 811 q 249 971 139 935 q 433 943 347 1003 q 440 938 436 940 q 451 931 444 935 q 452 953 451 943 q 453 972 453 963 q 469 992 453 989 q 516 994 493 993 q 563 994 539 994 q 583 971 583 994 q 585 941 585 956 q 586 911 586 926 q 585 823 586 867 q 583 735 585 779 q 577 705 583 711 q 547 699 571 699 q 506 698 526 699 q 467 697 486 697 q 433 703 440 697 q 422 735 426 710 q 416 768 419 751 q 407 801 413 785 q 366 848 396 838 q 303 839 336 858 q 249 789 269 819 q 217 722 228 758 q 193 617 201 669 q 182 510 185 564 q 182 394 178 451 q 199 317 185 354 q 236 244 213 281 q 268 217 247 228 q 313 203 289 207 q 360 203 336 200 q 399 217 383 206 q 419 237 411 225 q 432 263 426 249 q 463 282 440 282 q 506 283 485 282 q 550 285 528 285 q 576 279 569 285 q 585 256 582 274 q 587 225 586 240 q 588 194 588 210 m 554 1319 q 576 1307 569 1317 q 576 1283 582 1297 q 557 1240 571 1264 q 493 1147 526 1192 q 421 1060 460 1101 q 390 1043 407 1043 q 369 1042 379 1042 q 351 1042 358 1043 l 272 1042 q 263 1043 268 1043 q 244 1078 229 1050 q 258 1099 251 1089 q 272 1121 264 1110 q 335 1199 304 1160 q 397 1276 365 1238 q 457 1311 419 1306 q 497 1316 476 1314 q 536 1321 517 1318 q 545 1321 540 1321 q 554 1319 550 1321 z "},"É":{"ha":600,"x_min":-1,"x_max":539,"o":"m 515 153 q 539 128 539 149 q 538 85 539 106 q 535 43 538 64 q 486 3 529 3 q 328 1 407 1 q 168 0 249 0 q 106 -1 136 0 q 43 0 75 -1 q 12 9 19 1 q 1 40 4 17 q -1 89 -1 64 q 0 138 0 114 q 19 157 0 154 q 43 158 31 158 q 67 160 56 158 q 86 165 82 161 q 90 183 90 168 q 87 498 88 342 q 85 813 86 654 l 85 839 q 63 840 74 840 q 42 842 53 840 q 15 849 22 843 q 6 875 8 856 q 1 956 1 914 q 8 983 1 975 q 33 992 14 990 q 92 992 63 993 q 149 992 121 992 q 241 992 194 992 q 333 993 288 992 q 410 994 372 993 q 489 993 449 994 q 518 984 510 993 q 528 954 526 975 q 528 914 528 935 q 525 874 528 893 q 516 851 522 857 q 492 843 510 844 q 441 841 467 842 q 389 838 415 840 q 358 837 374 838 q 326 836 342 836 q 300 834 313 835 q 272 832 288 833 l 272 599 l 325 599 q 377 597 351 597 q 429 597 403 597 q 463 587 454 596 q 471 553 472 578 q 470 506 471 529 q 468 460 469 483 q 460 429 467 438 q 431 418 453 421 q 397 415 414 415 q 364 415 381 415 l 272 415 q 273 289 269 351 q 278 163 276 226 q 315 160 297 161 q 350 158 332 160 l 465 158 q 490 157 478 158 q 515 153 503 156 m 444 1319 q 466 1307 460 1317 q 467 1283 472 1297 q 447 1240 461 1264 q 383 1147 417 1192 q 311 1060 350 1101 q 281 1043 297 1043 q 259 1042 269 1042 q 242 1042 249 1043 l 163 1042 q 153 1043 158 1043 q 135 1078 119 1050 q 148 1099 142 1089 q 163 1121 154 1110 q 225 1199 194 1160 q 288 1276 256 1238 q 347 1311 310 1306 q 387 1316 367 1314 q 426 1321 407 1318 q 435 1321 431 1321 q 444 1319 440 1321 z "},"Í":{"ha":475,"x_min":-1,"x_max":414,"o":"m 336 157 q 369 146 361 154 q 378 114 378 138 q 378 74 378 94 q 376 33 378 54 q 368 6 375 13 q 340 0 361 0 q 212 0 275 0 q 83 1 149 0 q 54 3 64 1 q 39 9 44 4 q 31 24 33 14 q 28 51 29 33 q 24 88 25 69 q 25 125 24 106 q 61 161 25 160 q 74 163 68 163 q 85 163 79 163 l 111 163 q 112 506 114 336 q 111 847 110 675 q 33 853 74 857 q 6 857 14 851 q 0 882 -1 863 q 3 928 1 906 q 7 975 4 951 q 26 994 10 992 q 75 999 51 999 q 115 998 94 999 q 156 997 136 997 l 368 993 q 397 986 388 993 q 410 960 407 979 q 414 886 414 924 q 390 861 414 863 q 347 858 368 858 q 304 856 325 857 l 274 856 q 278 507 276 679 q 282 160 279 335 q 310 158 297 158 q 336 157 324 158 m 382 1319 q 403 1307 397 1317 q 404 1283 410 1297 q 385 1240 399 1264 q 321 1147 354 1192 q 249 1060 288 1101 q 218 1043 235 1043 q 197 1042 207 1042 q 179 1042 186 1043 l 100 1042 q 90 1043 96 1043 q 72 1078 57 1050 q 85 1099 79 1089 q 100 1121 92 1110 q 163 1199 132 1160 q 225 1276 193 1238 q 285 1311 247 1306 q 324 1316 304 1314 q 364 1321 344 1318 q 373 1321 368 1321 q 382 1319 378 1321 z "},"Ś":{"ha":644,"x_min":0,"x_max":583,"o":"m 539 993 q 579 957 574 992 q 583 921 583 940 q 582 826 582 872 q 579 732 582 779 q 569 701 578 708 q 538 690 561 693 q 494 689 515 689 q 451 689 472 689 q 417 711 425 688 q 407 738 411 725 q 396 763 403 750 q 381 793 389 778 q 364 824 374 808 q 331 855 351 844 q 288 868 311 865 q 231 838 249 872 q 221 769 213 804 q 256 701 229 732 q 292 660 274 681 q 331 619 311 639 q 381 565 356 592 q 431 511 407 539 q 508 385 481 453 q 536 238 536 317 q 522 150 538 192 q 478 72 506 108 q 457 51 469 61 q 432 35 444 42 q 350 8 392 15 q 264 3 308 0 q 239 3 251 4 q 214 6 226 3 q 179 15 196 10 q 144 28 163 21 q 127 5 140 10 q 97 0 114 0 q 70 0 83 0 q 43 1 57 0 q 10 36 11 6 q 6 63 7 50 q 4 90 4 76 q 1 163 1 126 q 0 235 1 199 q 1 249 0 242 q 3 264 1 257 q 15 295 7 288 q 46 306 22 303 q 81 309 64 308 q 118 308 99 310 q 149 297 140 306 q 160 267 157 289 q 162 240 161 253 q 163 214 163 228 q 175 183 163 194 q 225 148 199 160 q 286 143 251 136 q 335 171 318 150 q 353 224 353 192 q 308 350 353 293 q 276 388 293 369 q 242 425 260 406 q 199 469 221 447 q 157 514 178 490 q 95 601 119 554 q 63 703 71 649 q 70 835 51 774 q 142 944 89 896 q 224 992 179 981 q 319 1001 269 1004 q 351 998 339 1000 q 373 992 363 996 q 397 979 383 988 q 435 957 411 971 q 453 990 442 982 q 492 996 464 997 q 515 995 503 996 q 539 993 528 994 m 532 1319 q 553 1307 547 1317 q 554 1283 560 1297 q 535 1240 549 1264 q 471 1147 504 1192 q 399 1060 438 1101 q 368 1043 385 1043 q 347 1042 357 1042 q 329 1042 336 1043 l 250 1042 q 240 1043 246 1043 q 222 1078 207 1050 q 235 1099 229 1089 q 250 1121 242 1110 q 313 1199 282 1160 q 375 1276 343 1238 q 435 1311 397 1306 q 474 1316 454 1314 q 514 1321 494 1318 q 523 1321 518 1321 q 532 1319 528 1321 z "},"Ź":{"ha":749,"x_min":-1,"x_max":688,"o":"m 683 219 q 687 137 686 178 q 683 54 688 96 q 683 48 683 51 q 682 42 682 44 q 667 8 678 18 q 632 0 657 -1 q 590 2 611 0 q 547 6 568 4 q 316 7 431 7 q 85 8 201 7 q 64 8 74 8 q 43 10 54 8 q 10 24 22 13 q 0 57 -1 36 q 3 106 1 82 q 11 154 6 131 q 19 176 14 165 q 31 194 24 186 q 190 410 111 303 q 349 625 269 517 q 416 719 383 672 q 482 815 449 767 q 485 821 483 818 q 489 829 486 824 q 361 826 424 832 q 233 822 299 821 q 232 807 232 814 q 231 793 232 800 q 229 776 229 785 q 228 760 229 768 q 192 725 221 729 q 136 722 164 724 q 81 722 108 721 q 53 732 61 724 q 44 760 46 740 q 38 864 40 813 q 40 968 35 915 q 79 1003 42 1001 q 119 1002 99 1003 q 160 1001 139 1001 l 583 1001 q 625 985 607 1001 q 646 946 643 969 q 651 890 649 918 q 656 833 653 861 q 638 749 660 788 q 601 683 619 717 q 563 618 583 650 q 463 469 514 543 q 361 319 411 394 q 324 263 342 292 q 289 204 307 233 q 281 188 286 199 q 397 190 340 189 q 511 193 453 192 l 511 225 q 519 258 511 247 q 550 272 528 269 q 599 274 575 275 q 647 272 624 274 q 678 247 668 271 q 681 233 681 240 q 683 219 682 226 m 561 1319 q 583 1307 576 1317 q 583 1283 589 1297 q 564 1240 578 1264 q 500 1147 533 1192 q 428 1060 467 1101 q 397 1043 414 1043 q 376 1042 386 1042 q 358 1042 365 1043 l 279 1042 q 269 1043 275 1043 q 251 1078 236 1050 q 265 1099 258 1089 q 279 1121 271 1110 q 342 1199 311 1160 q 404 1276 372 1238 q 464 1311 426 1306 q 503 1316 483 1314 q 543 1321 524 1318 q 552 1321 547 1321 q 561 1319 557 1321 z "},"Ú":{"ha":817,"x_min":0,"x_max":757,"o":"m 701 1003 q 734 994 724 1003 q 750 964 744 985 q 756 919 757 940 q 750 874 754 897 q 715 836 744 847 q 701 832 708 833 q 683 828 693 831 l 683 801 l 683 546 q 676 354 683 449 q 650 164 668 260 q 510 14 628 47 q 433 1 471 3 q 354 0 394 -1 q 282 8 318 1 q 190 50 224 17 q 142 138 157 83 q 122 233 128 185 q 111 331 117 282 q 97 549 100 439 q 90 768 93 658 q 90 801 90 785 q 89 836 89 818 q 62 838 74 838 q 39 839 50 839 q 15 847 24 842 q 6 869 7 853 q 1 918 3 893 q 0 968 0 943 q 24 997 0 990 q 57 1004 42 1004 q 183 1005 121 1004 q 308 1006 246 1006 q 346 974 340 1006 q 349 922 351 947 q 344 869 347 896 q 310 840 340 844 q 296 839 303 839 q 281 839 289 839 q 279 826 279 832 q 279 814 279 821 q 281 675 276 743 q 290 538 285 607 q 297 433 293 485 q 304 328 300 381 q 319 249 308 289 q 339 211 326 228 q 372 186 351 194 q 436 191 404 175 q 482 243 468 207 q 492 296 489 265 q 497 413 494 354 q 499 531 499 472 q 497 663 499 597 q 492 794 494 728 q 490 813 490 804 q 488 833 489 822 q 475 834 481 833 q 463 835 469 835 q 426 865 435 839 q 421 965 413 914 q 433 987 424 979 q 453 997 442 994 q 489 1001 471 1001 q 595 1003 542 1003 q 701 1003 649 1003 m 600 1319 q 622 1307 615 1317 q 622 1283 628 1297 q 603 1240 617 1264 q 539 1147 572 1192 q 467 1060 506 1101 q 436 1043 453 1043 q 415 1042 425 1042 q 397 1042 404 1043 l 318 1042 q 308 1043 314 1043 q 290 1078 275 1050 q 303 1099 297 1089 q 318 1121 310 1110 q 381 1199 350 1160 q 443 1276 411 1238 q 503 1311 465 1306 q 542 1316 522 1314 q 582 1321 563 1318 q 591 1321 586 1321 q 600 1319 596 1321 z "},"Ý":{"ha":840,"x_min":0,"x_max":781,"o":"m 721 1003 q 769 989 757 1001 q 778 940 781 976 q 776 928 776 933 q 776 915 776 922 q 758 872 772 886 q 714 857 743 858 q 683 856 699 856 q 654 857 668 857 q 651 854 651 854 q 649 853 650 854 q 565 697 607 774 q 481 543 524 621 q 472 519 474 531 q 469 492 469 507 q 474 351 472 421 q 478 211 475 282 q 478 182 478 196 q 481 153 479 168 q 501 152 492 153 q 522 151 511 151 q 575 92 576 147 q 575 70 575 81 q 572 49 575 60 q 526 4 567 8 q 419 0 472 -1 q 353 2 386 0 q 285 6 319 4 l 275 6 q 230 19 240 8 q 218 64 219 29 q 217 87 218 75 q 218 110 217 99 q 249 144 219 139 q 277 148 263 147 q 308 151 292 149 q 309 166 308 158 q 308 182 310 174 q 302 326 306 254 q 294 472 299 399 q 289 497 294 488 q 206 674 247 586 q 122 850 164 761 q 118 858 119 854 q 114 865 117 861 q 79 869 96 868 q 46 871 63 869 q 16 882 25 874 q 4 910 7 890 q 1 940 1 925 q 0 971 0 956 q 32 1004 0 1003 q 108 1004 71 1004 q 185 1003 146 1004 q 238 1002 211 1003 q 290 1000 264 1001 q 326 989 317 999 q 338 953 336 979 q 337 933 338 943 q 335 913 336 924 q 296 868 331 876 q 283 864 289 868 q 331 758 307 811 q 382 649 356 706 q 433 759 408 706 q 482 867 457 813 q 469 869 475 868 q 458 869 464 869 q 428 896 431 869 q 426 937 426 915 q 426 979 426 958 q 447 999 429 996 q 467 1003 457 1001 q 488 1004 476 1004 l 706 1004 q 713 1003 708 1004 q 721 1003 717 1003 m 619 1319 q 641 1307 635 1317 q 642 1283 647 1297 q 622 1240 636 1264 q 558 1147 592 1192 q 486 1060 525 1101 q 456 1043 472 1043 q 434 1042 444 1042 q 417 1042 424 1043 l 338 1042 q 328 1043 333 1043 q 310 1078 294 1050 q 323 1099 317 1089 q 338 1121 329 1110 q 400 1199 369 1160 q 463 1276 431 1238 q 522 1311 485 1306 q 562 1316 542 1314 q 601 1321 582 1318 q 610 1321 606 1321 q 619 1319 615 1321 z "},"Ń":{"ha":932,"x_min":0,"x_max":872,"o":"m 869 963 q 870 909 872 935 q 865 856 868 883 q 853 835 863 842 q 828 826 843 829 q 801 824 814 825 q 772 821 788 824 l 772 781 q 776 577 775 678 q 779 375 778 476 q 782 305 781 339 q 783 235 783 271 q 779 51 783 143 q 739 10 779 13 l 606 6 q 554 33 572 6 q 544 50 550 39 q 406 340 474 196 q 267 629 338 483 q 260 642 264 636 q 254 656 257 649 l 250 656 l 249 654 l 249 639 q 253 406 250 521 q 263 172 256 290 q 272 170 268 171 q 281 169 276 169 q 299 169 290 168 q 318 167 308 169 q 347 138 343 163 q 352 91 350 114 q 356 44 354 68 q 349 13 357 21 q 319 3 342 6 q 292 1 306 1 q 267 0 279 0 q 161 1 214 0 q 56 3 108 1 q 24 11 31 4 q 15 43 18 18 q 13 87 14 65 q 10 132 11 108 q 15 160 10 154 q 43 165 21 165 l 78 165 q 71 493 69 331 q 60 819 72 656 q 43 822 54 819 q 10 837 19 826 q 0 871 1 847 q 0 896 0 883 q 1 921 0 908 q 3 942 1 932 q 4 964 4 953 q 26 992 7 988 q 52 997 39 994 q 79 1001 65 1000 q 185 1001 132 1004 q 290 993 238 999 q 333 958 321 989 q 367 873 350 915 q 403 789 383 831 q 503 567 453 676 q 606 344 554 457 q 614 331 611 336 q 615 372 615 336 q 615 458 615 407 q 612 567 614 508 q 608 679 610 626 q 603 771 606 732 q 599 821 600 810 q 584 824 592 822 q 568 825 576 825 q 524 864 532 828 q 524 972 511 918 q 551 996 528 993 q 610 1000 581 1000 q 718 999 664 1000 q 826 999 772 999 q 869 963 868 999 m 611 1319 q 633 1307 626 1317 q 633 1283 639 1297 q 614 1240 628 1264 q 550 1147 583 1192 q 478 1060 517 1101 q 447 1043 464 1043 q 426 1042 436 1042 q 408 1042 415 1043 l 329 1042 q 319 1043 325 1043 q 301 1078 286 1050 q 315 1099 308 1089 q 329 1121 321 1110 q 392 1199 361 1160 q 454 1276 422 1238 q 514 1311 476 1306 q 553 1316 533 1314 q 593 1321 574 1318 q 602 1321 597 1321 q 611 1319 607 1321 z "},"Ó":{"ha":782,"x_min":-10,"x_max":721,"o":"m 683 747 q 712 626 703 689 q 721 479 721 563 q 706 346 718 421 q 664 194 694 271 q 631 129 649 158 q 541 38 594 68 q 418 1 488 7 q 103 142 225 -15 q 42 251 63 193 q 10 372 21 310 q 9 591 -10 485 q 76 800 28 697 q 106 852 89 828 q 144 900 124 876 q 338 996 219 981 q 417 992 379 1001 q 493 967 456 983 q 613 878 568 935 q 683 747 657 822 m 501 231 q 542 339 531 283 q 554 453 554 394 q 544 561 554 508 q 515 665 533 614 q 469 758 497 714 q 443 790 458 776 q 413 819 428 804 q 343 829 379 846 q 290 796 315 817 q 248 742 263 772 q 222 679 233 711 q 197 531 200 606 q 204 382 194 457 q 219 315 208 347 q 249 251 229 282 q 308 192 274 213 q 388 174 342 171 q 397 173 393 174 q 404 174 401 172 q 461 189 436 176 q 501 231 486 201 m 608 1319 q 630 1307 624 1317 q 631 1283 636 1297 q 611 1240 625 1264 q 547 1147 581 1192 q 475 1060 514 1101 q 444 1043 461 1043 q 423 1042 433 1042 q 406 1042 413 1043 l 326 1042 q 317 1043 322 1043 q 299 1078 283 1050 q 312 1099 306 1089 q 326 1121 318 1110 q 389 1199 358 1160 q 451 1276 419 1238 q 511 1311 474 1306 q 551 1316 531 1314 q 590 1321 571 1318 q 599 1321 594 1321 q 608 1319 604 1321 z "},"Š":{"ha":644,"x_min":0,"x_max":583,"o":"m 539 993 q 579 957 574 992 q 583 921 583 940 q 582 826 582 872 q 579 732 582 779 q 569 701 578 708 q 538 690 561 693 q 494 689 515 689 q 451 689 472 689 q 417 711 425 688 q 407 738 411 725 q 396 763 403 750 q 381 793 389 778 q 364 824 374 808 q 331 855 351 844 q 288 868 311 865 q 231 838 249 872 q 221 769 213 804 q 256 701 229 732 q 292 660 274 681 q 331 619 311 639 q 381 565 356 592 q 431 511 407 539 q 508 385 481 453 q 536 238 536 317 q 522 150 538 192 q 478 72 506 108 q 457 51 469 61 q 432 35 444 42 q 350 8 392 15 q 264 3 308 0 q 239 3 251 4 q 214 6 226 3 q 179 15 196 10 q 144 28 163 21 q 127 5 140 10 q 97 0 114 0 q 70 0 83 0 q 43 1 57 0 q 10 36 11 6 q 6 63 7 50 q 4 90 4 76 q 1 163 1 126 q 0 235 1 199 q 1 249 0 242 q 3 264 1 257 q 15 295 7 288 q 46 306 22 303 q 81 309 64 308 q 118 308 99 310 q 149 297 140 306 q 160 267 157 289 q 162 240 161 253 q 163 214 163 228 q 175 183 163 194 q 225 148 199 160 q 286 143 251 136 q 335 171 318 150 q 353 224 353 192 q 308 350 353 293 q 276 388 293 369 q 242 425 260 406 q 199 469 221 447 q 157 514 178 490 q 95 601 119 554 q 63 703 71 649 q 70 835 51 774 q 142 944 89 896 q 224 992 179 981 q 319 1001 269 1004 q 351 998 339 1000 q 373 992 363 996 q 397 979 383 988 q 435 957 411 971 q 453 990 442 982 q 492 996 464 997 q 515 995 503 996 q 539 993 528 994 m 93 1319 q 157 1319 125 1319 q 221 1321 189 1319 q 253 1301 243 1321 q 278 1246 265 1274 q 304 1190 292 1218 q 313 1172 308 1181 q 325 1151 318 1163 q 333 1167 329 1161 q 340 1179 338 1172 q 376 1239 358 1210 q 410 1300 393 1268 q 427 1317 417 1313 q 451 1321 438 1321 q 499 1320 475 1319 q 547 1321 524 1321 q 560 1321 554 1321 q 569 1314 567 1321 q 569 1300 572 1308 q 565 1290 565 1292 q 494 1178 529 1233 q 425 1068 460 1124 q 376 1043 407 1042 l 285 1047 q 259 1055 269 1047 q 239 1074 249 1063 q 165 1177 203 1126 q 92 1279 128 1228 q 86 1287 89 1283 q 81 1294 83 1290 q 93 1319 68 1317 z "},"Ť":{"ha":710,"x_min":0,"x_max":649,"o":"m 607 1003 q 640 993 631 1001 q 649 961 649 985 q 647 892 649 926 q 642 824 644 858 q 632 799 639 806 q 606 793 625 793 q 572 792 589 792 q 539 794 556 792 q 513 822 514 796 q 512 841 511 832 q 511 861 513 850 q 504 883 510 878 q 482 888 499 888 q 444 887 463 886 q 406 888 425 888 l 406 167 q 435 163 421 164 q 465 160 450 163 q 490 150 485 156 q 497 125 496 144 q 501 31 501 76 q 478 6 501 10 q 465 3 471 4 q 453 3 460 3 q 340 1 396 1 q 226 0 285 0 q 176 10 186 -1 q 165 61 165 21 q 165 118 164 89 q 178 151 168 142 q 213 161 189 161 q 230 162 221 163 q 250 161 239 161 q 247 522 249 343 q 244 883 246 701 l 160 883 q 146 865 146 883 q 147 846 146 856 q 147 825 147 836 q 138 795 146 804 q 110 783 131 786 q 78 781 94 781 q 44 785 61 782 q 11 818 18 786 q 3 885 6 851 q 0 954 0 919 q 8 990 0 982 q 43 1001 15 999 q 190 1006 115 1006 q 339 1005 265 1006 q 488 1004 413 1004 q 547 1003 517 1003 q 607 1003 576 1004 m 100 1319 q 164 1319 132 1319 q 228 1321 196 1319 q 260 1301 250 1321 q 285 1246 272 1274 q 311 1190 299 1218 q 320 1172 315 1181 q 332 1151 325 1163 q 340 1167 336 1161 q 347 1179 344 1172 q 383 1239 365 1210 q 417 1300 400 1268 q 434 1317 424 1313 q 458 1321 444 1321 q 506 1320 482 1319 q 554 1321 531 1321 q 567 1321 561 1321 q 576 1314 574 1321 q 576 1300 579 1308 q 572 1290 572 1292 q 501 1178 536 1233 q 432 1068 467 1124 q 383 1043 414 1042 l 292 1047 q 266 1055 276 1047 q 246 1074 256 1063 q 172 1177 210 1126 q 99 1279 135 1228 q 93 1287 96 1283 q 88 1294 90 1290 q 100 1319 75 1317 z "},"Ž":{"ha":749,"x_min":-1,"x_max":688,"o":"m 683 219 q 687 137 686 178 q 683 54 688 96 q 683 48 683 51 q 682 42 682 44 q 667 8 678 18 q 632 0 657 -1 q 590 2 611 0 q 547 6 568 4 q 316 7 431 7 q 85 8 201 7 q 64 8 74 8 q 43 10 54 8 q 10 24 22 13 q 0 57 -1 36 q 3 106 1 82 q 11 154 6 131 q 19 176 14 165 q 31 194 24 186 q 190 410 111 303 q 349 625 269 517 q 416 719 383 672 q 482 815 449 767 q 485 821 483 818 q 489 829 486 824 q 361 826 424 832 q 233 822 299 821 q 232 807 232 814 q 231 793 232 800 q 229 776 229 785 q 228 760 229 768 q 192 725 221 729 q 136 722 164 724 q 81 722 108 721 q 53 732 61 724 q 44 760 46 740 q 38 864 40 813 q 40 968 35 915 q 79 1003 42 1001 q 119 1002 99 1003 q 160 1001 139 1001 l 583 1001 q 625 985 607 1001 q 646 946 643 969 q 651 890 649 918 q 656 833 653 861 q 638 749 660 788 q 601 683 619 717 q 563 618 583 650 q 463 469 514 543 q 361 319 411 394 q 324 263 342 292 q 289 204 307 233 q 281 188 286 199 q 397 190 340 189 q 511 193 453 192 l 511 225 q 519 258 511 247 q 550 272 528 269 q 599 274 575 275 q 647 272 624 274 q 678 247 668 271 q 681 233 681 240 q 683 219 682 226 m 135 1319 q 199 1319 167 1319 q 263 1321 231 1319 q 294 1301 285 1321 q 320 1246 307 1274 q 346 1190 333 1218 q 355 1172 350 1181 q 367 1151 360 1163 q 375 1167 371 1161 q 382 1179 379 1172 q 417 1239 400 1210 q 451 1300 435 1268 q 469 1317 458 1313 q 493 1321 479 1321 q 541 1320 517 1319 q 589 1321 565 1321 q 602 1321 596 1321 q 611 1314 608 1321 q 610 1300 614 1308 q 607 1290 607 1292 q 536 1178 571 1233 q 467 1068 501 1124 q 418 1043 449 1042 l 326 1047 q 301 1055 311 1047 q 281 1074 290 1063 q 207 1177 244 1126 q 133 1279 169 1228 q 128 1287 131 1283 q 122 1294 125 1290 q 135 1319 110 1317 z "},"Ï":{"ha":475,"x_min":-1,"x_max":414,"o":"m 336 157 q 369 146 361 154 q 378 114 378 138 q 378 74 378 94 q 376 33 378 54 q 368 6 375 13 q 340 0 361 0 q 212 0 275 0 q 83 1 149 0 q 54 3 64 1 q 39 9 44 4 q 31 24 33 14 q 28 51 29 33 q 24 88 25 69 q 25 125 24 106 q 61 161 25 160 q 74 163 68 163 q 85 163 79 163 l 111 163 q 112 506 114 336 q 111 847 110 675 q 33 853 74 857 q 6 857 14 851 q 0 882 -1 863 q 3 928 1 906 q 7 975 4 951 q 26 994 10 992 q 75 999 51 999 q 115 998 94 999 q 156 997 136 997 l 368 993 q 397 986 388 993 q 410 960 407 979 q 414 886 414 924 q 390 861 414 863 q 347 858 368 858 q 304 856 325 857 l 274 856 q 278 507 276 679 q 282 160 279 335 q 310 158 297 158 q 336 157 324 158 m 89 1211 q 147 1188 121 1211 q 172 1126 172 1165 q 145 1065 172 1086 q 86 1043 118 1043 q 24 1067 46 1044 q 1 1129 3 1089 q 9 1164 1 1149 q 29 1190 17 1179 q 58 1206 42 1200 q 89 1211 74 1211 m 324 1211 q 381 1188 356 1211 q 407 1126 407 1165 q 380 1065 407 1086 q 321 1043 353 1043 q 259 1067 281 1044 q 236 1129 238 1089 q 244 1164 236 1149 q 264 1190 251 1179 q 292 1206 276 1200 q 324 1211 308 1211 z "},"Ë":{"ha":600,"x_min":-1,"x_max":539,"o":"m 515 153 q 539 128 539 149 q 538 85 539 106 q 535 43 538 64 q 486 3 529 3 q 328 1 407 1 q 168 0 249 0 q 106 -1 136 0 q 43 0 75 -1 q 12 9 19 1 q 1 40 4 17 q -1 89 -1 64 q 0 138 0 114 q 19 157 0 154 q 43 158 31 158 q 67 160 56 158 q 86 165 82 161 q 90 183 90 168 q 87 498 88 342 q 85 813 86 654 l 85 839 q 63 840 74 840 q 42 842 53 840 q 15 849 22 843 q 6 875 8 856 q 1 956 1 914 q 8 983 1 975 q 33 992 14 990 q 92 992 63 993 q 149 992 121 992 q 241 992 194 992 q 333 993 288 992 q 410 994 372 993 q 489 993 449 994 q 518 984 510 993 q 528 954 526 975 q 528 914 528 935 q 525 874 528 893 q 516 851 522 857 q 492 843 510 844 q 441 841 467 842 q 389 838 415 840 q 358 837 374 838 q 326 836 342 836 q 300 834 313 835 q 272 832 288 833 l 272 599 l 325 599 q 377 597 351 597 q 429 597 403 597 q 463 587 454 596 q 471 553 472 578 q 470 506 471 529 q 468 460 469 483 q 460 429 467 438 q 431 418 453 421 q 397 415 414 415 q 364 415 381 415 l 272 415 q 273 289 269 351 q 278 163 276 226 q 315 160 297 161 q 350 158 332 160 l 465 158 q 490 157 478 158 q 515 153 503 156 m 157 1211 q 215 1188 189 1211 q 240 1126 240 1165 q 213 1065 240 1086 q 154 1043 186 1043 q 92 1067 114 1044 q 69 1129 71 1089 q 77 1164 69 1149 q 97 1190 85 1179 q 126 1206 110 1200 q 157 1211 142 1211 m 392 1211 q 449 1188 424 1211 q 475 1126 475 1165 q 448 1065 475 1086 q 389 1043 421 1043 q 327 1067 349 1044 q 304 1129 306 1089 q 312 1164 304 1149 q 332 1190 319 1179 q 360 1206 344 1200 q 392 1211 376 1211 z "},"È":{"ha":600,"x_min":-1,"x_max":539,"o":"m 515 153 q 539 128 539 149 q 538 85 539 106 q 535 43 538 64 q 486 3 529 3 q 328 1 407 1 q 168 0 249 0 q 106 -1 136 0 q 43 0 75 -1 q 12 9 19 1 q 1 40 4 17 q -1 89 -1 64 q 0 138 0 114 q 19 157 0 154 q 43 158 31 158 q 67 160 56 158 q 86 165 82 161 q 90 183 90 168 q 87 498 88 342 q 85 813 86 654 l 85 839 q 63 840 74 840 q 42 842 53 840 q 15 849 22 843 q 6 875 8 856 q 1 956 1 914 q 8 983 1 975 q 33 992 14 990 q 92 992 63 993 q 149 992 121 992 q 241 992 194 992 q 333 993 288 992 q 410 994 372 993 q 489 993 449 994 q 518 984 510 993 q 528 954 526 975 q 528 914 528 935 q 525 874 528 893 q 516 851 522 857 q 492 843 510 844 q 441 841 467 842 q 389 838 415 840 q 358 837 374 838 q 326 836 342 836 q 300 834 313 835 q 272 832 288 833 l 272 599 l 325 599 q 377 597 351 597 q 429 597 403 597 q 463 587 454 596 q 471 553 472 578 q 470 506 471 529 q 468 460 469 483 q 460 429 467 438 q 431 418 453 421 q 397 415 414 415 q 364 415 381 415 l 272 415 q 273 289 269 351 q 278 163 276 226 q 315 160 297 161 q 350 158 332 160 l 465 158 q 490 157 478 158 q 515 153 503 156 m 132 1319 q 141 1321 136 1321 q 150 1321 146 1321 q 190 1316 169 1318 q 229 1311 210 1314 q 289 1276 267 1306 q 351 1199 321 1238 q 414 1121 382 1160 q 428 1099 422 1110 q 442 1078 435 1089 q 424 1043 457 1050 q 414 1042 418 1043 l 335 1042 q 317 1042 328 1043 q 296 1043 307 1042 q 265 1060 279 1043 q 193 1147 226 1101 q 129 1240 160 1192 q 110 1283 115 1264 q 110 1307 104 1297 q 132 1319 117 1317 z "},"Ä":{"ha":838,"x_min":-1,"x_max":776,"o":"m 774 115 q 776 73 776 94 q 776 31 776 51 q 758 10 776 13 q 731 6 743 6 l 493 10 q 467 33 468 10 q 463 76 464 54 q 461 118 463 97 q 466 138 461 133 q 486 146 471 143 l 525 146 q 490 285 507 217 q 453 424 474 353 q 378 426 415 426 q 303 422 342 425 q 276 285 289 351 q 249 147 263 218 q 269 147 260 147 q 289 146 279 147 q 321 117 319 144 q 322 78 322 97 q 322 39 322 58 q 316 17 321 24 q 296 7 311 11 q 288 6 292 7 q 281 6 285 6 q 160 2 219 3 q 40 0 101 1 q 13 4 18 -1 q 6 33 8 10 q 2 69 3 51 q 0 106 1 88 q 5 137 -1 131 q 35 142 11 143 l 81 142 q 92 193 86 168 q 103 243 97 218 q 138 432 121 339 q 174 621 154 525 q 249 958 208 789 q 264 994 256 989 q 304 1000 272 1000 q 357 1001 331 1001 q 410 1000 383 1000 q 467 960 454 1000 q 499 858 482 908 q 529 754 517 807 q 592 508 558 629 q 661 264 626 388 q 678 206 669 235 q 694 146 686 176 l 744 142 q 766 135 760 140 q 774 115 772 131 m 401 586 q 378 665 390 626 q 356 742 367 703 q 334 665 344 703 q 319 586 324 626 l 401 586 m 256 1211 q 313 1188 288 1211 q 339 1126 339 1165 q 312 1065 339 1086 q 253 1043 285 1043 q 191 1067 213 1044 q 168 1129 169 1089 q 176 1164 168 1149 q 196 1190 183 1179 q 224 1206 208 1200 q 256 1211 240 1211 m 490 1211 q 548 1188 522 1211 q 574 1126 574 1165 q 547 1065 574 1086 q 488 1043 519 1043 q 426 1067 447 1044 q 403 1129 404 1089 q 410 1164 403 1149 q 431 1190 418 1179 q 459 1206 443 1200 q 490 1211 475 1211 z "},"À":{"ha":838,"x_min":-1,"x_max":776,"o":"m 774 115 q 776 73 776 94 q 776 31 776 51 q 758 10 776 13 q 731 6 743 6 l 493 10 q 467 33 468 10 q 463 76 464 54 q 461 118 463 97 q 466 138 461 133 q 486 146 471 143 l 525 146 q 490 285 507 217 q 453 424 474 353 q 378 426 415 426 q 303 422 342 425 q 276 285 289 351 q 249 147 263 218 q 269 147 260 147 q 289 146 279 147 q 321 117 319 144 q 322 78 322 97 q 322 39 322 58 q 316 17 321 24 q 296 7 311 11 q 288 6 292 7 q 281 6 285 6 q 160 2 219 3 q 40 0 101 1 q 13 4 18 -1 q 6 33 8 10 q 2 69 3 51 q 0 106 1 88 q 5 137 -1 131 q 35 142 11 143 l 81 142 q 92 193 86 168 q 103 243 97 218 q 138 432 121 339 q 174 621 154 525 q 249 958 208 789 q 264 994 256 989 q 304 1000 272 1000 q 357 1001 331 1001 q 410 1000 383 1000 q 467 960 454 1000 q 499 858 482 908 q 529 754 517 807 q 592 508 558 629 q 661 264 626 388 q 678 206 669 235 q 694 146 686 176 l 744 142 q 766 135 760 140 q 774 115 772 131 m 401 586 q 378 665 390 626 q 356 742 367 703 q 334 665 344 703 q 319 586 324 626 l 401 586 m 121 1319 q 130 1321 125 1321 q 139 1321 135 1321 q 178 1316 158 1318 q 218 1311 199 1314 q 278 1276 256 1306 q 340 1199 310 1238 q 403 1121 371 1160 q 417 1099 411 1110 q 431 1078 424 1089 q 413 1043 446 1050 q 403 1042 407 1043 l 324 1042 q 306 1042 317 1043 q 285 1043 296 1042 q 254 1060 268 1043 q 182 1147 215 1101 q 118 1240 149 1192 q 99 1283 104 1264 q 99 1307 93 1297 q 121 1319 106 1317 z "},"Ù":{"ha":817,"x_min":0,"x_max":757,"o":"m 701 1003 q 734 994 724 1003 q 750 964 744 985 q 756 919 757 940 q 750 874 754 897 q 715 836 744 847 q 701 832 708 833 q 683 828 693 831 l 683 801 l 683 546 q 676 354 683 449 q 650 164 668 260 q 510 14 628 47 q 433 1 471 3 q 354 0 394 -1 q 282 8 318 1 q 190 50 224 17 q 142 138 157 83 q 122 233 128 185 q 111 331 117 282 q 97 549 100 439 q 90 768 93 658 q 90 801 90 785 q 89 836 89 818 q 62 838 74 838 q 39 839 50 839 q 15 847 24 842 q 6 869 7 853 q 1 918 3 893 q 0 968 0 943 q 24 997 0 990 q 57 1004 42 1004 q 183 1005 121 1004 q 308 1006 246 1006 q 346 974 340 1006 q 349 922 351 947 q 344 869 347 896 q 310 840 340 844 q 296 839 303 839 q 281 839 289 839 q 279 826 279 832 q 279 814 279 821 q 281 675 276 743 q 290 538 285 607 q 297 433 293 485 q 304 328 300 381 q 319 249 308 289 q 339 211 326 228 q 372 186 351 194 q 436 191 404 175 q 482 243 468 207 q 492 296 489 265 q 497 413 494 354 q 499 531 499 472 q 497 663 499 597 q 492 794 494 728 q 490 813 490 804 q 488 833 489 822 q 475 834 481 833 q 463 835 469 835 q 426 865 435 839 q 421 965 413 914 q 433 987 424 979 q 453 997 442 994 q 489 1001 471 1001 q 595 1003 542 1003 q 701 1003 649 1003 m 157 1319 q 166 1321 161 1321 q 175 1321 171 1321 q 215 1316 194 1318 q 254 1311 235 1314 q 314 1276 292 1306 q 376 1199 346 1238 q 439 1121 407 1160 q 453 1099 447 1110 q 467 1078 460 1089 q 449 1043 482 1050 q 439 1042 443 1043 l 360 1042 q 342 1042 353 1043 q 321 1043 332 1042 q 290 1060 304 1043 q 218 1147 251 1101 q 154 1240 185 1192 q 135 1283 140 1264 q 135 1307 129 1297 q 157 1319 142 1317 z "},"Ü":{"ha":817,"x_min":0,"x_max":757,"o":"m 701 1003 q 734 994 724 1003 q 750 964 744 985 q 756 919 757 940 q 750 874 754 897 q 715 836 744 847 q 701 832 708 833 q 683 828 693 831 l 683 801 l 683 546 q 676 354 683 449 q 650 164 668 260 q 510 14 628 47 q 433 1 471 3 q 354 0 394 -1 q 282 8 318 1 q 190 50 224 17 q 142 138 157 83 q 122 233 128 185 q 111 331 117 282 q 97 549 100 439 q 90 768 93 658 q 90 801 90 785 q 89 836 89 818 q 62 838 74 838 q 39 839 50 839 q 15 847 24 842 q 6 869 7 853 q 1 918 3 893 q 0 968 0 943 q 24 997 0 990 q 57 1004 42 1004 q 183 1005 121 1004 q 308 1006 246 1006 q 346 974 340 1006 q 349 922 351 947 q 344 869 347 896 q 310 840 340 844 q 296 839 303 839 q 281 839 289 839 q 279 826 279 832 q 279 814 279 821 q 281 675 276 743 q 290 538 285 607 q 297 433 293 485 q 304 328 300 381 q 319 249 308 289 q 339 211 326 228 q 372 186 351 194 q 436 191 404 175 q 482 243 468 207 q 492 296 489 265 q 497 413 494 354 q 499 531 499 472 q 497 663 499 597 q 492 794 494 728 q 490 813 490 804 q 488 833 489 822 q 475 834 481 833 q 463 835 469 835 q 426 865 435 839 q 421 965 413 914 q 433 987 424 979 q 453 997 442 994 q 489 1001 471 1001 q 595 1003 542 1003 q 701 1003 649 1003 m 293 1211 q 351 1188 325 1211 q 376 1126 376 1165 q 349 1065 376 1086 q 290 1043 322 1043 q 228 1067 250 1044 q 206 1129 207 1089 q 213 1164 206 1149 q 233 1190 221 1179 q 262 1206 246 1200 q 293 1211 278 1211 m 528 1211 q 585 1188 560 1211 q 611 1126 611 1165 q 584 1065 611 1086 q 525 1043 557 1043 q 463 1067 485 1044 q 440 1129 442 1089 q 448 1164 440 1149 q 468 1190 456 1179 q 497 1206 481 1200 q 528 1211 513 1211 z "},"Ì":{"ha":475,"x_min":-1,"x_max":414,"o":"m 336 157 q 369 146 361 154 q 378 114 378 138 q 378 74 378 94 q 376 33 378 54 q 368 6 375 13 q 340 0 361 0 q 212 0 275 0 q 83 1 149 0 q 54 3 64 1 q 39 9 44 4 q 31 24 33 14 q 28 51 29 33 q 24 88 25 69 q 25 125 24 106 q 61 161 25 160 q 74 163 68 163 q 85 163 79 163 l 111 163 q 112 506 114 336 q 111 847 110 675 q 33 853 74 857 q 6 857 14 851 q 0 882 -1 863 q 3 928 1 906 q 7 975 4 951 q 26 994 10 992 q 75 999 51 999 q 115 998 94 999 q 156 997 136 997 l 368 993 q 397 986 388 993 q 410 960 407 979 q 414 886 414 924 q 390 861 414 863 q 347 858 368 858 q 304 856 325 857 l 274 856 q 278 507 276 679 q 282 160 279 335 q 310 158 297 158 q 336 157 324 158 m 68 1319 q 77 1321 72 1321 q 86 1321 82 1321 q 126 1316 106 1318 q 165 1311 146 1314 q 225 1276 203 1306 q 288 1199 257 1238 q 350 1121 318 1160 q 365 1099 358 1110 q 378 1078 371 1089 q 360 1043 393 1050 q 350 1042 354 1043 l 271 1042 q 253 1042 264 1043 q 232 1043 243 1042 q 201 1060 215 1043 q 129 1147 163 1101 q 65 1240 96 1192 q 46 1283 51 1264 q 47 1307 40 1297 q 68 1319 53 1317 z "},"Ö":{"ha":782,"x_min":-10,"x_max":721,"o":"m 683 747 q 712 626 703 689 q 721 479 721 563 q 706 346 718 421 q 664 194 694 271 q 631 129 649 158 q 541 38 594 68 q 418 1 488 7 q 103 142 225 -15 q 42 251 63 193 q 10 372 21 310 q 9 591 -10 485 q 76 800 28 697 q 106 852 89 828 q 144 900 124 876 q 338 996 219 981 q 417 992 379 1001 q 493 967 456 983 q 613 878 568 935 q 683 747 657 822 m 501 231 q 542 339 531 283 q 554 453 554 394 q 544 561 554 508 q 515 665 533 614 q 469 758 497 714 q 443 790 458 776 q 413 819 428 804 q 343 829 379 846 q 290 796 315 817 q 248 742 263 772 q 222 679 233 711 q 197 531 200 606 q 204 382 194 457 q 219 315 208 347 q 249 251 229 282 q 308 192 274 213 q 388 174 342 171 q 397 173 393 174 q 404 174 401 172 q 461 189 436 176 q 501 231 486 201 m 256 1211 q 313 1188 288 1211 q 339 1126 339 1165 q 312 1065 339 1086 q 253 1043 285 1043 q 191 1067 213 1044 q 168 1129 169 1089 q 176 1164 168 1149 q 196 1190 183 1179 q 224 1206 208 1200 q 256 1211 240 1211 m 490 1211 q 548 1188 522 1211 q 574 1126 574 1165 q 547 1065 574 1086 q 488 1043 519 1043 q 426 1067 447 1044 q 403 1129 404 1089 q 410 1164 403 1149 q 431 1190 418 1179 q 459 1206 443 1200 q 490 1211 475 1211 z "},"Ÿ":{"ha":840,"x_min":0,"x_max":781,"o":"m 721 1003 q 769 989 757 1001 q 778 940 781 976 q 776 928 776 933 q 776 915 776 922 q 758 872 772 886 q 714 857 743 858 q 683 856 699 856 q 654 857 668 857 q 651 854 651 854 q 649 853 650 854 q 565 697 607 774 q 481 543 524 621 q 472 519 474 531 q 469 492 469 507 q 474 351 472 421 q 478 211 475 282 q 478 182 478 196 q 481 153 479 168 q 501 152 492 153 q 522 151 511 151 q 575 92 576 147 q 575 70 575 81 q 572 49 575 60 q 526 4 567 8 q 419 0 472 -1 q 353 2 386 0 q 285 6 319 4 l 275 6 q 230 19 240 8 q 218 64 219 29 q 217 87 218 75 q 218 110 217 99 q 249 144 219 139 q 277 148 263 147 q 308 151 292 149 q 309 166 308 158 q 308 182 310 174 q 302 326 306 254 q 294 472 299 399 q 289 497 294 488 q 206 674 247 586 q 122 850 164 761 q 118 858 119 854 q 114 865 117 861 q 79 869 96 868 q 46 871 63 869 q 16 882 25 874 q 4 910 7 890 q 1 940 1 925 q 0 971 0 956 q 32 1004 0 1003 q 108 1004 71 1004 q 185 1003 146 1004 q 238 1002 211 1003 q 290 1000 264 1001 q 326 989 317 999 q 338 953 336 979 q 337 933 338 943 q 335 913 336 924 q 296 868 331 876 q 283 864 289 868 q 331 758 307 811 q 382 649 356 706 q 433 759 408 706 q 482 867 457 813 q 469 869 475 868 q 458 869 464 869 q 428 896 431 869 q 426 937 426 915 q 426 979 426 958 q 447 999 429 996 q 467 1003 457 1001 q 488 1004 476 1004 l 706 1004 q 713 1003 708 1004 q 721 1003 717 1003 m 267 1211 q 324 1188 299 1211 q 350 1126 350 1165 q 323 1065 350 1086 q 264 1043 296 1043 q 202 1067 224 1044 q 179 1129 181 1089 q 187 1164 179 1149 q 207 1190 194 1179 q 235 1206 219 1200 q 267 1211 251 1211 m 501 1211 q 559 1188 533 1211 q 585 1126 585 1165 q 558 1065 585 1086 q 499 1043 531 1043 q 437 1067 458 1044 q 414 1129 415 1089 q 422 1164 414 1149 q 442 1190 429 1179 q 470 1206 454 1200 q 501 1211 486 1211 z "},"Ã":{"ha":838,"x_min":-1,"x_max":776,"o":"m 774 115 q 776 73 776 94 q 776 31 776 51 q 758 10 776 13 q 731 6 743 6 l 493 10 q 467 33 468 10 q 463 76 464 54 q 461 118 463 97 q 466 138 461 133 q 486 146 471 143 l 525 146 q 490 285 507 217 q 453 424 474 353 q 378 426 415 426 q 303 422 342 425 q 276 285 289 351 q 249 147 263 218 q 269 147 260 147 q 289 146 279 147 q 321 117 319 144 q 322 78 322 97 q 322 39 322 58 q 316 17 321 24 q 296 7 311 11 q 288 6 292 7 q 281 6 285 6 q 160 2 219 3 q 40 0 101 1 q 13 4 18 -1 q 6 33 8 10 q 2 69 3 51 q 0 106 1 88 q 5 137 -1 131 q 35 142 11 143 l 81 142 q 92 193 86 168 q 103 243 97 218 q 138 432 121 339 q 174 621 154 525 q 249 958 208 789 q 264 994 256 989 q 304 1000 272 1000 q 357 1001 331 1001 q 410 1000 383 1000 q 467 960 454 1000 q 499 858 482 908 q 529 754 517 807 q 592 508 558 629 q 661 264 626 388 q 678 206 669 235 q 694 146 686 176 l 744 142 q 766 135 760 140 q 774 115 772 131 m 401 586 q 378 665 390 626 q 356 742 367 703 q 334 665 344 703 q 319 586 324 626 l 401 586 m 749 1292 q 769 1264 776 1289 q 741 1169 754 1217 q 696 1082 728 1122 q 595 1017 657 1033 q 476 1025 533 1000 q 385 1094 424 1050 q 363 1118 374 1107 q 340 1140 351 1129 q 308 1157 326 1153 q 253 1149 276 1164 q 222 1103 229 1135 q 219 1087 219 1096 q 217 1069 219 1078 q 208 1049 214 1054 q 188 1042 203 1043 l 126 1042 l 89 1046 q 67 1074 61 1047 q 71 1096 68 1085 q 76 1118 74 1107 q 157 1249 104 1196 q 286 1307 211 1303 q 365 1288 331 1304 q 428 1239 400 1271 l 474 1189 q 488 1176 481 1182 q 501 1167 494 1171 q 560 1156 532 1147 q 601 1199 589 1164 q 610 1230 607 1214 q 615 1261 613 1246 q 627 1292 619 1285 q 658 1299 635 1299 q 704 1297 682 1299 q 749 1292 726 1294 z "},"Â":{"ha":838,"x_min":-1,"x_max":776,"o":"m 774 115 q 776 73 776 94 q 776 31 776 51 q 758 10 776 13 q 731 6 743 6 l 493 10 q 467 33 468 10 q 463 76 464 54 q 461 118 463 97 q 466 138 461 133 q 486 146 471 143 l 525 146 q 490 285 507 217 q 453 424 474 353 q 378 426 415 426 q 303 422 342 425 q 276 285 289 351 q 249 147 263 218 q 269 147 260 147 q 289 146 279 147 q 321 117 319 144 q 322 78 322 97 q 322 39 322 58 q 316 17 321 24 q 296 7 311 11 q 288 6 292 7 q 281 6 285 6 q 160 2 219 3 q 40 0 101 1 q 13 4 18 -1 q 6 33 8 10 q 2 69 3 51 q 0 106 1 88 q 5 137 -1 131 q 35 142 11 143 l 81 142 q 92 193 86 168 q 103 243 97 218 q 138 432 121 339 q 174 621 154 525 q 249 958 208 789 q 264 994 256 989 q 304 1000 272 1000 q 357 1001 331 1001 q 410 1000 383 1000 q 467 960 454 1000 q 499 858 482 908 q 529 754 517 807 q 592 508 558 629 q 661 264 626 388 q 678 206 669 235 q 694 146 686 176 l 744 142 q 766 135 760 140 q 774 115 772 131 m 401 586 q 378 665 390 626 q 356 742 367 703 q 334 665 344 703 q 319 586 324 626 l 401 586 m 563 1096 q 538 1044 583 1051 q 485 1042 511 1042 q 433 1043 460 1042 q 414 1050 422 1043 q 401 1068 406 1057 q 387 1106 394 1088 q 372 1144 379 1125 l 364 1169 q 357 1171 360 1169 q 340 1130 349 1150 q 324 1088 331 1110 q 276 1047 311 1051 q 238 1044 257 1044 q 199 1042 218 1043 q 174 1078 160 1042 q 178 1087 176 1082 q 182 1096 179 1092 q 231 1188 206 1142 q 279 1282 256 1233 q 343 1322 299 1322 l 406 1326 q 450 1303 435 1326 q 563 1096 511 1206 z "},"Û":{"ha":817,"x_min":0,"x_max":757,"o":"m 701 1003 q 734 994 724 1003 q 750 964 744 985 q 756 919 757 940 q 750 874 754 897 q 715 836 744 847 q 701 832 708 833 q 683 828 693 831 l 683 801 l 683 546 q 676 354 683 449 q 650 164 668 260 q 510 14 628 47 q 433 1 471 3 q 354 0 394 -1 q 282 8 318 1 q 190 50 224 17 q 142 138 157 83 q 122 233 128 185 q 111 331 117 282 q 97 549 100 439 q 90 768 93 658 q 90 801 90 785 q 89 836 89 818 q 62 838 74 838 q 39 839 50 839 q 15 847 24 842 q 6 869 7 853 q 1 918 3 893 q 0 968 0 943 q 24 997 0 990 q 57 1004 42 1004 q 183 1005 121 1004 q 308 1006 246 1006 q 346 974 340 1006 q 349 922 351 947 q 344 869 347 896 q 310 840 340 844 q 296 839 303 839 q 281 839 289 839 q 279 826 279 832 q 279 814 279 821 q 281 675 276 743 q 290 538 285 607 q 297 433 293 485 q 304 328 300 381 q 319 249 308 289 q 339 211 326 228 q 372 186 351 194 q 436 191 404 175 q 482 243 468 207 q 492 296 489 265 q 497 413 494 354 q 499 531 499 472 q 497 663 499 597 q 492 794 494 728 q 490 813 490 804 q 488 833 489 822 q 475 834 481 833 q 463 835 469 835 q 426 865 435 839 q 421 965 413 914 q 433 987 424 979 q 453 997 442 994 q 489 1001 471 1001 q 595 1003 542 1003 q 701 1003 649 1003 m 600 1096 q 575 1044 621 1051 q 523 1042 549 1042 q 471 1043 497 1042 q 451 1050 460 1043 q 439 1068 443 1057 q 424 1106 432 1088 q 410 1144 417 1125 l 401 1169 q 394 1171 397 1169 q 377 1130 386 1150 q 361 1088 368 1110 q 314 1047 349 1051 q 275 1044 294 1044 q 236 1042 256 1043 q 211 1078 197 1042 q 215 1087 214 1082 q 219 1096 217 1092 q 268 1188 243 1142 q 317 1282 293 1233 q 381 1322 336 1322 l 443 1326 q 488 1303 472 1326 q 600 1096 549 1206 z "},"Å":{"ha":838,"x_min":-1,"x_max":776,"o":"m 774 115 q 776 73 776 94 q 776 31 776 51 q 758 10 776 13 q 731 6 743 6 l 493 10 q 467 33 468 10 q 463 76 464 54 q 461 118 463 97 q 466 138 461 133 q 486 146 471 143 l 525 146 q 490 285 507 217 q 453 424 474 353 q 378 426 415 426 q 303 422 342 425 q 276 285 289 351 q 249 147 263 218 q 269 147 260 147 q 289 146 279 147 q 321 117 319 144 q 322 78 322 97 q 322 39 322 58 q 316 17 321 24 q 296 7 311 11 q 288 6 292 7 q 281 6 285 6 q 160 2 219 3 q 40 0 101 1 q 13 4 18 -1 q 6 33 8 10 q 2 69 3 51 q 0 106 1 88 q 5 137 -1 131 q 35 142 11 143 l 81 142 q 92 193 86 168 q 103 243 97 218 q 138 432 121 339 q 174 621 154 525 q 249 958 208 789 q 264 994 256 989 q 304 1000 272 1000 q 357 1001 331 1001 q 410 1000 383 1000 q 467 960 454 1000 q 499 858 482 908 q 529 754 517 807 q 592 508 558 629 q 661 264 626 388 q 678 206 669 235 q 694 146 686 176 l 744 142 q 766 135 760 140 q 774 115 772 131 m 401 586 q 378 665 390 626 q 356 742 367 703 q 334 665 344 703 q 319 586 324 626 l 401 586 m 526 1275 q 535 1195 540 1233 q 510 1127 529 1157 q 460 1076 490 1097 q 393 1047 429 1056 q 310 1050 349 1039 q 214 1111 247 1067 q 181 1222 181 1156 q 225 1349 181 1293 q 385 1401 289 1426 q 473 1357 436 1386 q 526 1275 510 1328 m 385 1126 q 457 1224 457 1147 q 432 1294 457 1263 q 343 1324 399 1339 q 294 1299 315 1317 q 264 1253 274 1282 q 259 1208 256 1229 q 274 1171 263 1188 q 301 1142 285 1154 q 339 1126 318 1131 q 385 1126 361 1119 z "},"Ê":{"ha":600,"x_min":-1,"x_max":539,"o":"m 515 153 q 539 128 539 149 q 538 85 539 106 q 535 43 538 64 q 486 3 529 3 q 328 1 407 1 q 168 0 249 0 q 106 -1 136 0 q 43 0 75 -1 q 12 9 19 1 q 1 40 4 17 q -1 89 -1 64 q 0 138 0 114 q 19 157 0 154 q 43 158 31 158 q 67 160 56 158 q 86 165 82 161 q 90 183 90 168 q 87 498 88 342 q 85 813 86 654 l 85 839 q 63 840 74 840 q 42 842 53 840 q 15 849 22 843 q 6 875 8 856 q 1 956 1 914 q 8 983 1 975 q 33 992 14 990 q 92 992 63 993 q 149 992 121 992 q 241 992 194 992 q 333 993 288 992 q 410 994 372 993 q 489 993 449 994 q 518 984 510 993 q 528 954 526 975 q 528 914 528 935 q 525 874 528 893 q 516 851 522 857 q 492 843 510 844 q 441 841 467 842 q 389 838 415 840 q 358 837 374 838 q 326 836 342 836 q 300 834 313 835 q 272 832 288 833 l 272 599 l 325 599 q 377 597 351 597 q 429 597 403 597 q 463 587 454 596 q 471 553 472 578 q 470 506 471 529 q 468 460 469 483 q 460 429 467 438 q 431 418 453 421 q 397 415 414 415 q 364 415 381 415 l 272 415 q 273 289 269 351 q 278 163 276 226 q 315 160 297 161 q 350 158 332 160 l 465 158 q 490 157 478 158 q 515 153 503 156 m 492 1096 q 467 1044 513 1051 q 415 1042 440 1042 q 363 1043 389 1042 q 343 1050 351 1043 q 331 1068 335 1057 q 316 1106 324 1088 q 301 1144 308 1125 l 293 1169 q 286 1171 289 1169 q 269 1130 278 1150 q 253 1088 260 1110 q 206 1047 240 1051 q 167 1044 186 1044 q 128 1042 147 1043 q 103 1078 89 1042 q 107 1087 106 1082 q 111 1096 108 1092 q 160 1188 135 1142 q 208 1282 185 1233 q 272 1322 228 1322 l 335 1326 q 379 1303 364 1326 q 492 1096 440 1206 z "},"Î":{"ha":475,"x_min":-3,"x_max":421,"o":"m 336 157 q 369 146 361 154 q 378 114 378 138 q 378 74 378 94 q 376 33 378 54 q 368 6 375 13 q 340 0 361 0 q 212 0 275 0 q 83 1 149 0 q 54 3 64 1 q 39 9 44 4 q 31 24 33 14 q 28 51 29 33 q 24 88 25 69 q 25 125 24 106 q 61 161 25 160 q 74 163 68 163 q 85 163 79 163 l 111 163 q 112 506 114 336 q 111 847 110 675 q 33 853 74 857 q 6 857 14 851 q 0 882 -1 863 q 3 928 1 906 q 7 975 4 951 q 26 994 10 992 q 75 999 51 999 q 115 998 94 999 q 156 997 136 997 l 368 993 q 397 986 388 993 q 410 960 407 979 q 414 886 414 924 q 390 861 414 863 q 347 858 368 858 q 304 856 325 857 l 274 856 q 278 507 276 679 q 282 160 279 335 q 310 158 297 158 q 336 157 324 158 m 400 1096 q 375 1044 421 1051 q 323 1042 349 1042 q 271 1043 297 1042 q 251 1050 260 1043 q 239 1068 243 1057 q 224 1106 232 1088 q 210 1144 217 1125 l 201 1169 q 194 1171 197 1169 q 177 1130 186 1150 q 161 1088 168 1110 q 114 1047 149 1051 q 75 1044 94 1044 q 36 1042 56 1043 q 11 1078 -3 1042 q 15 1087 14 1082 q 19 1096 17 1092 q 68 1188 43 1142 q 117 1282 93 1233 q 181 1322 136 1322 l 243 1326 q 288 1303 272 1326 q 400 1096 349 1206 z "},"Ñ":{"ha":932,"x_min":0,"x_max":872,"o":"m 869 963 q 870 909 872 935 q 865 856 868 883 q 853 835 863 842 q 828 826 843 829 q 801 824 814 825 q 772 821 788 824 l 772 781 q 776 577 775 678 q 779 375 778 476 q 782 305 781 339 q 783 235 783 271 q 779 51 783 143 q 739 10 779 13 l 606 6 q 554 33 572 6 q 544 50 550 39 q 406 340 474 196 q 267 629 338 483 q 260 642 264 636 q 254 656 257 649 l 250 656 l 249 654 l 249 639 q 253 406 250 521 q 263 172 256 290 q 272 170 268 171 q 281 169 276 169 q 299 169 290 168 q 318 167 308 169 q 347 138 343 163 q 352 91 350 114 q 356 44 354 68 q 349 13 357 21 q 319 3 342 6 q 292 1 306 1 q 267 0 279 0 q 161 1 214 0 q 56 3 108 1 q 24 11 31 4 q 15 43 18 18 q 13 87 14 65 q 10 132 11 108 q 15 160 10 154 q 43 165 21 165 l 78 165 q 71 493 69 331 q 60 819 72 656 q 43 822 54 819 q 10 837 19 826 q 0 871 1 847 q 0 896 0 883 q 1 921 0 908 q 3 942 1 932 q 4 964 4 953 q 26 992 7 988 q 52 997 39 994 q 79 1001 65 1000 q 185 1001 132 1004 q 290 993 238 999 q 333 958 321 989 q 367 873 350 915 q 403 789 383 831 q 503 567 453 676 q 606 344 554 457 q 614 331 611 336 q 615 372 615 336 q 615 458 615 407 q 612 567 614 508 q 608 679 610 626 q 603 771 606 732 q 599 821 600 810 q 584 824 592 822 q 568 825 576 825 q 524 864 532 828 q 524 972 511 918 q 551 996 528 993 q 610 1000 581 1000 q 718 999 664 1000 q 826 999 772 999 q 869 963 868 999 m 765 1292 q 786 1264 793 1289 q 758 1169 771 1217 q 713 1082 744 1122 q 612 1017 674 1033 q 493 1025 550 1000 q 401 1094 440 1050 q 379 1118 390 1107 q 357 1140 368 1129 q 325 1157 343 1153 q 269 1149 293 1164 q 239 1103 246 1135 q 236 1087 236 1096 q 233 1069 236 1078 q 225 1049 231 1054 q 204 1042 219 1043 l 143 1042 l 106 1046 q 83 1074 78 1047 q 88 1096 85 1085 q 93 1118 90 1107 q 174 1249 121 1196 q 303 1307 228 1303 q 382 1288 347 1304 q 444 1239 417 1271 l 490 1189 q 504 1176 497 1182 q 518 1167 511 1171 q 577 1156 549 1147 q 618 1199 606 1164 q 626 1230 624 1214 q 632 1261 629 1246 q 644 1292 636 1285 q 675 1299 651 1299 q 721 1297 699 1299 q 765 1292 743 1294 z "},"Ò":{"ha":782,"x_min":-10,"x_max":721,"o":"m 683 747 q 712 626 703 689 q 721 479 721 563 q 706 346 718 421 q 664 194 694 271 q 631 129 649 158 q 541 38 594 68 q 418 1 488 7 q 103 142 225 -15 q 42 251 63 193 q 10 372 21 310 q 9 591 -10 485 q 76 800 28 697 q 106 852 89 828 q 144 900 124 876 q 338 996 219 981 q 417 992 379 1001 q 493 967 456 983 q 613 878 568 935 q 683 747 657 822 m 501 231 q 542 339 531 283 q 554 453 554 394 q 544 561 554 508 q 515 665 533 614 q 469 758 497 714 q 443 790 458 776 q 413 819 428 804 q 343 829 379 846 q 290 796 315 817 q 248 742 263 772 q 222 679 233 711 q 197 531 200 606 q 204 382 194 457 q 219 315 208 347 q 249 251 229 282 q 308 192 274 213 q 388 174 342 171 q 397 173 393 174 q 404 174 401 172 q 461 189 436 176 q 501 231 486 201 m 138 1319 q 147 1321 142 1321 q 156 1321 151 1321 q 195 1316 175 1318 q 235 1311 215 1314 q 294 1276 272 1306 q 357 1199 326 1238 q 419 1121 388 1160 q 434 1099 428 1110 q 447 1078 440 1089 q 429 1043 463 1050 q 419 1042 424 1043 l 340 1042 q 323 1042 333 1043 q 301 1043 313 1042 q 271 1060 285 1043 q 199 1147 232 1101 q 135 1240 165 1192 q 115 1283 121 1264 q 116 1307 110 1297 q 138 1319 122 1317 z "},"Ô":{"ha":782,"x_min":-10,"x_max":721,"o":"m 683 747 q 712 626 703 689 q 721 479 721 563 q 706 346 718 421 q 664 194 694 271 q 631 129 649 158 q 541 38 594 68 q 418 1 488 7 q 103 142 225 -15 q 42 251 63 193 q 10 372 21 310 q 9 591 -10 485 q 76 800 28 697 q 106 852 89 828 q 144 900 124 876 q 338 996 219 981 q 417 992 379 1001 q 493 967 456 983 q 613 878 568 935 q 683 747 657 822 m 501 231 q 542 339 531 283 q 554 453 554 394 q 544 561 554 508 q 515 665 533 614 q 469 758 497 714 q 443 790 458 776 q 413 819 428 804 q 343 829 379 846 q 290 796 315 817 q 248 742 263 772 q 222 679 233 711 q 197 531 200 606 q 204 382 194 457 q 219 315 208 347 q 249 251 229 282 q 308 192 274 213 q 388 174 342 171 q 397 173 393 174 q 404 174 401 172 q 461 189 436 176 q 501 231 486 201 m 582 1096 q 557 1044 603 1051 q 505 1042 531 1042 q 453 1043 479 1042 q 433 1050 442 1043 q 421 1068 425 1057 q 406 1106 414 1088 q 392 1144 399 1125 l 383 1169 q 376 1171 379 1169 q 359 1130 368 1150 q 343 1088 350 1110 q 296 1047 331 1051 q 257 1044 276 1044 q 218 1042 238 1043 q 193 1078 179 1042 q 197 1087 196 1082 q 201 1096 199 1092 q 250 1188 225 1142 q 299 1282 275 1233 q 363 1322 318 1322 l 425 1326 q 469 1303 454 1326 q 582 1096 531 1206 z "},"Õ":{"ha":782,"x_min":-10,"x_max":749,"o":"m 683 747 q 712 626 703 689 q 721 479 721 563 q 706 346 718 421 q 664 194 694 271 q 631 129 649 158 q 541 38 594 68 q 418 1 488 7 q 103 142 225 -15 q 42 251 63 193 q 10 372 21 310 q 9 591 -10 485 q 76 800 28 697 q 106 852 89 828 q 144 900 124 876 q 338 996 219 981 q 417 992 379 1001 q 493 967 456 983 q 613 878 568 935 q 683 747 657 822 m 501 231 q 542 339 531 283 q 554 453 554 394 q 544 561 554 508 q 515 665 533 614 q 469 758 497 714 q 443 790 458 776 q 413 819 428 804 q 343 829 379 846 q 290 796 315 817 q 248 742 263 772 q 222 679 233 711 q 197 531 200 606 q 204 382 194 457 q 219 315 208 347 q 249 251 229 282 q 308 192 274 213 q 388 174 342 171 q 397 173 393 174 q 404 174 401 172 q 461 189 436 176 q 501 231 486 201 m 721 1292 q 742 1264 749 1289 q 713 1169 726 1217 q 668 1082 700 1122 q 567 1017 629 1033 q 449 1025 506 1000 q 357 1094 396 1050 q 335 1118 346 1107 q 313 1140 324 1129 q 281 1157 299 1153 q 225 1149 249 1164 q 194 1103 201 1135 q 192 1087 192 1096 q 189 1069 192 1078 q 181 1049 186 1054 q 160 1042 175 1043 l 99 1042 l 61 1046 q 39 1074 33 1047 q 43 1096 40 1085 q 49 1118 46 1107 q 129 1249 76 1196 q 258 1307 183 1303 q 338 1288 303 1304 q 400 1239 372 1271 l 446 1189 q 460 1176 453 1182 q 474 1167 467 1171 q 533 1156 504 1147 q 574 1199 561 1164 q 582 1230 579 1214 q 588 1261 585 1246 q 599 1292 592 1285 q 631 1299 607 1299 q 676 1297 654 1299 q 721 1292 699 1294 z "},"Č":{"ha":650,"x_min":-1,"x_max":589,"o":"m 588 194 q 589 112 589 153 q 589 29 589 71 q 585 9 589 14 q 567 3 582 4 q 528 1 547 1 q 489 0 508 0 q 472 5 478 -1 q 461 22 465 11 q 451 19 456 21 q 442 17 447 18 q 350 2 396 3 q 260 17 304 1 q 219 31 239 24 q 181 49 199 38 q 110 106 139 72 q 61 183 81 140 q 20 301 36 242 q 1 424 4 360 q 4 577 -1 501 q 31 728 10 653 q 51 784 39 757 q 79 838 63 811 q 249 971 139 935 q 433 943 347 1003 q 440 938 436 940 q 451 931 444 935 q 452 953 451 943 q 453 972 453 963 q 469 992 453 989 q 516 994 493 993 q 563 994 539 994 q 583 971 583 994 q 585 941 585 956 q 586 911 586 926 q 585 823 586 867 q 583 735 585 779 q 577 705 583 711 q 547 699 571 699 q 506 698 526 699 q 467 697 486 697 q 433 703 440 697 q 422 735 426 710 q 416 768 419 751 q 407 801 413 785 q 366 848 396 838 q 303 839 336 858 q 249 789 269 819 q 217 722 228 758 q 193 617 201 669 q 182 510 185 564 q 182 394 178 451 q 199 317 185 354 q 236 244 213 281 q 268 217 247 228 q 313 203 289 207 q 360 203 336 200 q 399 217 383 206 q 419 237 411 225 q 432 263 426 249 q 463 282 440 282 q 506 283 485 282 q 550 285 528 285 q 576 279 569 285 q 585 256 582 274 q 587 225 586 240 q 588 194 588 210 m 96 1319 q 160 1319 128 1319 q 224 1321 192 1319 q 256 1301 246 1321 q 281 1246 268 1274 q 307 1190 294 1218 q 316 1172 311 1181 q 328 1151 321 1163 q 336 1167 332 1161 q 343 1179 340 1172 q 378 1239 361 1210 q 413 1300 396 1268 q 430 1317 419 1313 q 454 1321 440 1321 q 502 1320 478 1319 q 550 1321 526 1321 q 563 1321 557 1321 q 572 1314 569 1321 q 572 1300 575 1308 q 568 1290 568 1292 q 497 1178 532 1233 q 428 1068 463 1124 q 379 1043 410 1042 l 288 1047 q 262 1055 272 1047 q 242 1074 251 1063 q 168 1177 206 1126 q 94 1279 131 1228 q 89 1287 92 1283 q 83 1294 86 1290 q 96 1319 71 1317 z "},"Ě":{"ha":600,"x_min":-1,"x_max":539,"o":"m 515 153 q 539 128 539 149 q 538 85 539 106 q 535 43 538 64 q 486 3 529 3 q 328 1 407 1 q 168 0 249 0 q 106 -1 136 0 q 43 0 75 -1 q 12 9 19 1 q 1 40 4 17 q -1 89 -1 64 q 0 138 0 114 q 19 157 0 154 q 43 158 31 158 q 67 160 56 158 q 86 165 82 161 q 90 183 90 168 q 87 498 88 342 q 85 813 86 654 l 85 839 q 63 840 74 840 q 42 842 53 840 q 15 849 22 843 q 6 875 8 856 q 1 956 1 914 q 8 983 1 975 q 33 992 14 990 q 92 992 63 993 q 149 992 121 992 q 241 992 194 992 q 333 993 288 992 q 410 994 372 993 q 489 993 449 994 q 518 984 510 993 q 528 954 526 975 q 528 914 528 935 q 525 874 528 893 q 516 851 522 857 q 492 843 510 844 q 441 841 467 842 q 389 838 415 840 q 358 837 374 838 q 326 836 342 836 q 300 834 313 835 q 272 832 288 833 l 272 599 l 325 599 q 377 597 351 597 q 429 597 403 597 q 463 587 454 596 q 471 553 472 578 q 470 506 471 529 q 468 460 469 483 q 460 429 467 438 q 431 418 453 421 q 397 415 414 415 q 364 415 381 415 l 272 415 q 273 289 269 351 q 278 163 276 226 q 315 160 297 161 q 350 158 332 160 l 465 158 q 490 157 478 158 q 515 153 503 156 m 28 1319 q 92 1319 60 1319 q 156 1321 124 1319 q 188 1301 178 1321 q 213 1246 200 1274 q 239 1190 226 1218 q 248 1172 243 1181 q 260 1151 253 1163 q 268 1167 264 1161 q 275 1179 272 1172 q 310 1239 293 1210 q 344 1300 328 1268 q 362 1317 351 1313 q 386 1321 372 1321 q 434 1320 410 1319 q 482 1321 458 1321 q 495 1321 489 1321 q 504 1314 501 1321 q 503 1300 507 1308 q 500 1290 500 1292 q 429 1178 464 1233 q 360 1068 394 1124 q 311 1043 342 1042 l 219 1047 q 194 1055 204 1047 q 174 1074 183 1063 q 100 1177 138 1126 q 26 1279 63 1228 q 21 1287 24 1283 q 15 1294 18 1290 q 28 1319 3 1317 z "},"Ď":{"ha":682,"x_min":0,"x_max":689,"o":"m 501 810 q 581 271 689 563 q 531 182 563 221 q 456 113 500 143 q 260 25 365 51 q 103 0 183 7 q 72 -1 88 -1 q 40 1 56 0 q 14 11 22 4 q 4 36 6 18 q 1 93 1 64 q 0 150 0 122 q 6 172 0 167 q 31 176 13 176 q 58 177 44 178 q 86 176 71 176 q 90 822 96 500 l 40 822 q 14 829 21 822 q 6 856 7 836 q 6 944 3 900 q 15 974 7 965 q 43 986 22 983 q 90 990 67 989 q 138 990 114 992 q 231 983 185 989 q 321 957 276 976 q 354 941 338 950 q 386 921 371 932 q 447 869 418 897 q 501 810 476 842 m 436 351 q 450 423 449 388 q 447 494 451 458 q 372 714 435 614 q 304 783 344 757 q 292 791 299 788 q 275 800 285 794 q 279 505 278 650 q 282 213 281 360 q 294 211 289 211 q 311 217 306 214 q 436 351 403 257 m 63 1319 q 126 1319 94 1319 q 190 1321 158 1319 q 222 1301 213 1321 q 248 1246 235 1274 q 274 1190 261 1218 q 283 1172 278 1181 q 294 1151 288 1163 q 303 1167 299 1161 q 310 1179 307 1172 q 345 1239 328 1210 q 379 1300 363 1268 q 397 1317 386 1313 q 421 1321 407 1321 q 469 1320 444 1319 q 517 1321 493 1321 q 530 1321 524 1321 q 539 1314 536 1321 q 538 1300 542 1308 q 535 1290 535 1292 q 464 1178 499 1233 q 394 1068 429 1124 q 346 1043 376 1042 l 254 1047 q 228 1055 239 1047 q 208 1074 218 1063 q 135 1177 172 1126 q 61 1279 97 1228 q 56 1287 58 1283 q 50 1294 53 1290 q 63 1319 38 1317 z "},"Ă":{"ha":838,"x_min":-1,"x_max":776,"o":"m 774 115 q 776 73 776 94 q 776 31 776 51 q 758 10 776 13 q 731 6 743 6 l 493 10 q 467 33 468 10 q 463 76 464 54 q 461 118 463 97 q 466 138 461 133 q 486 146 471 143 l 525 146 q 490 285 507 217 q 453 424 474 353 q 378 426 415 426 q 303 422 342 425 q 276 285 289 351 q 249 147 263 218 q 269 147 260 147 q 289 146 279 147 q 321 117 319 144 q 322 78 322 97 q 322 39 322 58 q 316 17 321 24 q 296 7 311 11 q 288 6 292 7 q 281 6 285 6 q 160 2 219 3 q 40 0 101 1 q 13 4 18 -1 q 6 33 8 10 q 2 69 3 51 q 0 106 1 88 q 5 137 -1 131 q 35 142 11 143 l 81 142 q 92 193 86 168 q 103 243 97 218 q 138 432 121 339 q 174 621 154 525 q 249 958 208 789 q 264 994 256 989 q 304 1000 272 1000 q 357 1001 331 1001 q 410 1000 383 1000 q 467 960 454 1000 q 499 858 482 908 q 529 754 517 807 q 592 508 558 629 q 661 264 626 388 q 678 206 669 235 q 694 146 686 176 l 744 142 q 766 135 760 140 q 774 115 772 131 m 401 586 q 378 665 390 626 q 356 742 367 703 q 334 665 344 703 q 319 586 324 626 l 401 586 m 582 1311 q 610 1276 614 1311 q 604 1246 607 1257 q 559 1156 586 1197 q 490 1082 532 1114 q 394 1039 444 1047 q 289 1046 343 1031 q 192 1095 232 1061 q 126 1179 153 1129 q 101 1285 101 1229 q 108 1309 101 1301 q 129 1319 114 1317 q 160 1322 142 1322 q 181 1322 179 1322 l 208 1322 q 239 1315 232 1321 q 250 1286 246 1308 q 256 1259 253 1272 q 265 1232 260 1246 q 315 1169 278 1194 q 364 1155 342 1154 q 413 1182 386 1156 q 453 1256 442 1211 q 458 1274 456 1265 q 463 1290 460 1282 q 488 1311 467 1311 q 535 1312 511 1311 q 582 1311 558 1313 z "},"Ř":{"ha":701,"x_min":0,"x_max":640,"o":"m 638 101 q 640 75 639 89 q 638 49 640 61 q 589 0 633 4 q 554 -1 571 -1 q 519 0 538 0 q 458 -1 489 0 q 397 1 428 -1 q 369 5 379 3 q 353 12 358 7 q 344 27 347 17 q 340 54 342 38 q 336 110 336 81 q 343 135 338 129 q 367 143 349 140 q 375 145 371 144 q 386 147 379 146 q 307 292 346 221 q 229 436 268 364 q 224 435 228 435 q 225 292 222 364 q 226 150 228 221 q 247 149 238 149 q 264 146 256 149 q 291 134 283 143 q 301 106 299 125 q 302 81 301 93 q 301 57 303 68 q 254 10 300 10 q 169 8 211 8 q 82 7 126 8 q 65 10 76 7 q 44 18 53 11 q 35 39 36 25 q 31 74 32 57 q 29 110 29 92 q 36 139 29 132 q 67 149 43 146 q 75 151 67 149 q 71 504 74 329 q 57 857 68 679 q 41 861 49 860 q 26 864 33 863 q 1 889 3 865 q 0 928 0 908 q 0 967 0 947 q 22 993 1 985 q 63 1007 42 1004 q 106 1011 85 1010 q 209 1013 158 1014 q 313 1003 260 1011 q 451 944 389 990 q 474 926 463 936 q 493 904 485 915 q 556 738 546 822 q 517 565 565 654 q 406 461 478 497 q 396 457 400 458 q 386 453 392 456 q 392 438 389 442 q 422 383 407 410 q 453 331 438 357 q 503 246 478 288 q 554 163 529 204 q 583 143 564 144 q 600 142 594 143 q 638 101 633 133 m 222 575 q 374 624 313 568 q 399 654 389 638 q 415 690 408 671 q 415 769 428 731 q 365 833 401 807 q 305 864 338 853 q 238 879 272 875 q 228 878 233 879 q 217 876 224 878 q 219 726 218 801 q 222 575 221 651 m 67 1319 q 131 1319 99 1319 q 194 1321 163 1319 q 226 1301 217 1321 q 252 1246 239 1274 q 278 1190 265 1218 q 287 1172 282 1181 q 299 1151 292 1163 q 307 1167 303 1161 q 314 1179 311 1172 q 349 1239 332 1210 q 383 1300 367 1268 q 401 1317 390 1313 q 425 1321 411 1321 q 473 1320 449 1319 q 521 1321 497 1321 q 534 1321 528 1321 q 543 1314 540 1321 q 542 1300 546 1308 q 539 1290 539 1292 q 468 1178 503 1233 q 399 1068 433 1124 q 350 1043 381 1042 l 258 1047 q 233 1055 243 1047 q 213 1074 222 1063 q 139 1177 176 1126 q 65 1279 101 1228 q 60 1287 63 1283 q 54 1294 57 1290 q 67 1319 42 1317 z "},"Ű":{"ha":817,"x_min":0,"x_max":757,"o":"m 701 1003 q 734 994 724 1003 q 750 964 744 985 q 756 919 757 940 q 750 874 754 897 q 715 836 744 847 q 701 832 708 833 q 683 828 693 831 l 683 801 l 683 546 q 676 354 683 449 q 650 164 668 260 q 510 14 628 47 q 433 1 471 3 q 354 0 394 -1 q 282 8 318 1 q 190 50 224 17 q 142 138 157 83 q 122 233 128 185 q 111 331 117 282 q 97 549 100 439 q 90 768 93 658 q 90 801 90 785 q 89 836 89 818 q 62 838 74 838 q 39 839 50 839 q 15 847 24 842 q 6 869 7 853 q 1 918 3 893 q 0 968 0 943 q 24 997 0 990 q 57 1004 42 1004 q 183 1005 121 1004 q 308 1006 246 1006 q 346 974 340 1006 q 349 922 351 947 q 344 869 347 896 q 310 840 340 844 q 296 839 303 839 q 281 839 289 839 q 279 826 279 832 q 279 814 279 821 q 281 675 276 743 q 290 538 285 607 q 297 433 293 485 q 304 328 300 381 q 319 249 308 289 q 339 211 326 228 q 372 186 351 194 q 436 191 404 175 q 482 243 468 207 q 492 296 489 265 q 497 413 494 354 q 499 531 499 472 q 497 663 499 597 q 492 794 494 728 q 490 813 490 804 q 488 833 489 822 q 475 834 481 833 q 463 835 469 835 q 426 865 435 839 q 421 965 413 914 q 433 987 424 979 q 453 997 442 994 q 489 1001 471 1001 q 595 1003 542 1003 q 701 1003 649 1003 m 369 1307 q 393 1272 393 1299 q 389 1226 393 1249 q 374 1147 383 1186 q 351 1069 364 1108 q 308 1039 342 1038 q 274 1042 292 1040 q 240 1049 257 1044 q 210 1099 204 1060 q 220 1156 214 1126 q 235 1224 226 1186 q 242 1256 238 1236 q 254 1296 247 1275 q 269 1322 260 1315 q 300 1326 279 1329 q 335 1318 318 1324 q 369 1307 351 1313 m 586 1307 q 610 1272 610 1299 q 606 1226 610 1249 q 590 1147 600 1186 q 568 1069 581 1108 q 525 1039 558 1038 q 491 1042 508 1040 q 457 1049 474 1044 q 426 1099 421 1060 q 437 1156 431 1126 q 451 1224 443 1186 q 459 1256 454 1236 q 471 1296 464 1275 q 486 1322 476 1315 q 517 1326 496 1329 q 551 1318 535 1324 q 586 1307 568 1313 z "},"Ň":{"ha":932,"x_min":0,"x_max":872,"o":"m 869 963 q 870 909 872 935 q 865 856 868 883 q 853 835 863 842 q 828 826 843 829 q 801 824 814 825 q 772 821 788 824 l 772 781 q 776 577 775 678 q 779 375 778 476 q 782 305 781 339 q 783 235 783 271 q 779 51 783 143 q 739 10 779 13 l 606 6 q 554 33 572 6 q 544 50 550 39 q 406 340 474 196 q 267 629 338 483 q 260 642 264 636 q 254 656 257 649 l 250 656 l 249 654 l 249 639 q 253 406 250 521 q 263 172 256 290 q 272 170 268 171 q 281 169 276 169 q 299 169 290 168 q 318 167 308 169 q 347 138 343 163 q 352 91 350 114 q 356 44 354 68 q 349 13 357 21 q 319 3 342 6 q 292 1 306 1 q 267 0 279 0 q 161 1 214 0 q 56 3 108 1 q 24 11 31 4 q 15 43 18 18 q 13 87 14 65 q 10 132 11 108 q 15 160 10 154 q 43 165 21 165 l 78 165 q 71 493 69 331 q 60 819 72 656 q 43 822 54 819 q 10 837 19 826 q 0 871 1 847 q 0 896 0 883 q 1 921 0 908 q 3 942 1 932 q 4 964 4 953 q 26 992 7 988 q 52 997 39 994 q 79 1001 65 1000 q 185 1001 132 1004 q 290 993 238 999 q 333 958 321 989 q 367 873 350 915 q 403 789 383 831 q 503 567 453 676 q 606 344 554 457 q 614 331 611 336 q 615 372 615 336 q 615 458 615 407 q 612 567 614 508 q 608 679 610 626 q 603 771 606 732 q 599 821 600 810 q 584 824 592 822 q 568 825 576 825 q 524 864 532 828 q 524 972 511 918 q 551 996 528 993 q 610 1000 581 1000 q 718 999 664 1000 q 826 999 772 999 q 869 963 868 999 m 207 1319 q 271 1319 239 1319 q 335 1321 303 1319 q 367 1301 357 1321 q 392 1246 379 1274 q 418 1190 406 1218 q 427 1172 422 1181 q 439 1151 432 1163 q 447 1167 443 1161 q 454 1179 451 1172 q 490 1239 472 1210 q 524 1300 507 1268 q 541 1317 531 1313 q 565 1321 551 1321 q 613 1320 589 1319 q 661 1321 638 1321 q 674 1321 668 1321 q 683 1314 681 1321 q 683 1300 686 1308 q 679 1290 679 1292 q 608 1178 643 1233 q 539 1068 574 1124 q 490 1043 521 1042 l 399 1047 q 373 1055 383 1047 q 353 1074 363 1063 q 279 1177 317 1126 q 206 1279 242 1228 q 200 1287 203 1283 q 194 1294 197 1290 q 207 1319 182 1317 z "},"Ő":{"ha":782,"x_min":-10,"x_max":721,"o":"m 683 747 q 712 626 703 689 q 721 479 721 563 q 706 346 718 421 q 664 194 694 271 q 631 129 649 158 q 541 38 594 68 q 418 1 488 7 q 103 142 225 -15 q 42 251 63 193 q 10 372 21 310 q 9 591 -10 485 q 76 800 28 697 q 106 852 89 828 q 144 900 124 876 q 338 996 219 981 q 417 992 379 1001 q 493 967 456 983 q 613 878 568 935 q 683 747 657 822 m 501 231 q 542 339 531 283 q 554 453 554 394 q 544 561 554 508 q 515 665 533 614 q 469 758 497 714 q 443 790 458 776 q 413 819 428 804 q 343 829 379 846 q 290 796 315 817 q 248 742 263 772 q 222 679 233 711 q 197 531 200 606 q 204 382 194 457 q 219 315 208 347 q 249 251 229 282 q 308 192 274 213 q 388 174 342 171 q 397 173 393 174 q 404 174 401 172 q 461 189 436 176 q 501 231 486 201 m 353 1308 q 376 1274 376 1300 q 372 1228 376 1250 q 357 1149 367 1188 q 335 1071 347 1110 q 292 1040 325 1039 q 258 1044 275 1042 q 224 1050 240 1046 q 193 1100 188 1061 q 203 1158 197 1128 q 218 1225 210 1188 q 226 1257 221 1238 q 238 1297 231 1276 q 253 1324 243 1317 q 283 1328 263 1331 q 318 1319 301 1325 q 353 1308 335 1314 m 569 1308 q 593 1274 593 1300 q 589 1228 593 1250 q 574 1149 583 1188 q 551 1071 564 1110 q 508 1040 542 1039 q 474 1044 492 1042 q 440 1050 457 1046 q 410 1100 404 1061 q 420 1158 414 1128 q 435 1225 426 1188 q 442 1257 438 1238 q 454 1297 447 1276 q 469 1324 460 1317 q 500 1328 479 1331 q 535 1319 518 1325 q 569 1308 551 1314 z "},"˙":{"ha":210,"x_min":25,"x_max":188,"o":"m 106 922 q 164 896 140 922 q 188 836 188 869 q 165 781 188 804 q 110 758 142 758 q 50 782 75 758 q 25 839 25 806 q 49 899 25 875 q 106 922 72 924 z "},"Ż":{"ha":749,"x_min":-1,"x_max":688,"o":"m 683 219 q 687 137 686 178 q 683 54 688 96 q 683 48 683 51 q 682 42 682 44 q 667 8 678 18 q 632 0 657 -1 q 590 2 611 0 q 547 6 568 4 q 316 7 431 7 q 85 8 201 7 q 64 8 74 8 q 43 10 54 8 q 10 24 22 13 q 0 57 -1 36 q 3 106 1 82 q 11 154 6 131 q 19 176 14 165 q 31 194 24 186 q 190 410 111 303 q 349 625 269 517 q 416 719 383 672 q 482 815 449 767 q 485 821 483 818 q 489 829 486 824 q 361 826 424 832 q 233 822 299 821 q 232 807 232 814 q 231 793 232 800 q 229 776 229 785 q 228 760 229 768 q 192 725 221 729 q 136 722 164 724 q 81 722 108 721 q 53 732 61 724 q 44 760 46 740 q 38 864 40 813 q 40 968 35 915 q 79 1003 42 1001 q 119 1002 99 1003 q 160 1001 139 1001 l 583 1001 q 625 985 607 1001 q 646 946 643 969 q 651 890 649 918 q 656 833 653 861 q 638 749 660 788 q 601 683 619 717 q 563 618 583 650 q 463 469 514 543 q 361 319 411 394 q 324 263 342 292 q 289 204 307 233 q 281 188 286 199 q 397 190 340 189 q 511 193 453 192 l 511 225 q 519 258 511 247 q 550 272 528 269 q 599 274 575 275 q 647 272 624 274 q 678 247 668 271 q 681 233 681 240 q 683 219 682 226 m 375 1200 q 433 1174 410 1200 q 457 1114 457 1147 q 434 1059 457 1082 q 379 1036 411 1036 q 319 1060 344 1036 q 294 1117 294 1083 q 318 1177 294 1153 q 375 1200 342 1201 z "},"Ā":{"ha":850,"x_min":-1,"x_max":776,"o":"m 610 1157 q 614 1078 615 1117 q 605 1056 614 1064 q 583 1046 596 1049 q 549 1040 565 1043 q 514 1038 532 1038 q 435 1038 474 1038 q 357 1039 397 1039 q 267 1040 313 1040 q 176 1042 222 1040 q 155 1042 165 1042 q 133 1044 144 1043 q 99 1081 106 1050 q 96 1122 94 1101 q 103 1164 97 1143 q 133 1193 107 1189 q 148 1196 140 1196 q 163 1196 156 1196 l 347 1196 l 536 1196 q 558 1193 547 1196 q 581 1188 569 1190 q 610 1157 607 1183 m 774 115 q 776 73 776 94 q 776 31 776 51 q 758 10 776 13 q 731 6 743 6 l 493 10 q 467 33 468 10 q 463 76 464 54 q 461 118 463 97 q 466 138 461 133 q 486 146 471 143 l 525 146 q 490 285 507 217 q 453 424 474 353 q 378 426 415 426 q 303 422 342 425 q 276 285 289 351 q 249 147 263 218 q 269 147 260 147 q 289 146 279 147 q 321 117 319 144 q 322 78 322 97 q 322 39 322 58 q 316 17 321 24 q 296 7 311 11 q 288 6 292 7 q 281 6 285 6 q 160 2 219 3 q 40 0 101 1 q 13 4 18 -1 q 6 33 8 10 q 2 69 3 51 q 0 106 1 88 q 5 137 -1 131 q 35 142 11 143 l 81 142 q 92 193 86 168 q 103 243 97 218 q 138 432 121 339 q 174 621 154 525 q 249 958 208 789 q 264 994 256 989 q 304 1000 272 1000 q 357 1001 331 1001 q 410 1000 383 1000 q 467 960 454 1000 q 499 858 482 908 q 529 754 517 807 q 592 508 558 629 q 661 264 626 388 q 678 206 669 235 q 694 146 686 176 l 744 142 q 766 135 760 140 q 774 115 772 131 m 401 586 q 378 665 390 626 q 356 742 367 703 q 334 665 344 703 q 319 586 324 626 l 401 586 z "},"Ċ":{"ha":650,"x_min":-1,"x_max":589,"o":"m 588 194 q 589 112 589 153 q 589 29 589 71 q 585 9 589 14 q 567 3 582 4 q 528 1 547 1 q 489 0 508 0 q 472 5 478 -1 q 461 22 465 11 q 451 19 456 21 q 442 17 447 18 q 350 2 396 3 q 260 17 304 1 q 219 31 239 24 q 181 49 199 38 q 110 106 139 72 q 61 183 81 140 q 20 301 36 242 q 1 424 4 360 q 4 577 -1 501 q 31 728 10 653 q 51 784 39 757 q 79 838 63 811 q 249 971 139 935 q 433 943 347 1003 q 440 938 436 940 q 451 931 444 935 q 452 953 451 943 q 453 972 453 963 q 469 992 453 989 q 516 994 493 993 q 563 994 539 994 q 583 971 583 994 q 585 941 585 956 q 586 911 586 926 q 585 823 586 867 q 583 735 585 779 q 577 705 583 711 q 547 699 571 699 q 506 698 526 699 q 467 697 486 697 q 433 703 440 697 q 422 735 426 710 q 416 768 419 751 q 407 801 413 785 q 366 848 396 838 q 303 839 336 858 q 249 789 269 819 q 217 722 228 758 q 193 617 201 669 q 182 510 185 564 q 182 394 178 451 q 199 317 185 354 q 236 244 213 281 q 268 217 247 228 q 313 203 289 207 q 360 203 336 200 q 399 217 383 206 q 419 237 411 225 q 432 263 426 249 q 463 282 440 282 q 506 283 485 282 q 550 285 528 285 q 576 279 569 285 q 585 256 582 274 q 587 225 586 240 q 588 194 588 210 m 310 1200 q 368 1174 344 1200 q 392 1114 392 1147 q 369 1059 392 1082 q 314 1036 346 1036 q 254 1060 279 1036 q 229 1117 229 1083 q 253 1177 229 1153 q 310 1200 276 1201 z "},"Ĉ":{"ha":650,"x_min":-1,"x_max":589,"o":"m 588 194 q 589 112 589 153 q 589 29 589 71 q 585 9 589 14 q 567 3 582 4 q 528 1 547 1 q 489 0 508 0 q 472 5 478 -1 q 461 22 465 11 q 451 19 456 21 q 442 17 447 18 q 350 2 396 3 q 260 17 304 1 q 219 31 239 24 q 181 49 199 38 q 110 106 139 72 q 61 183 81 140 q 20 301 36 242 q 1 424 4 360 q 4 577 -1 501 q 31 728 10 653 q 51 784 39 757 q 79 838 63 811 q 249 971 139 935 q 433 943 347 1003 q 440 938 436 940 q 451 931 444 935 q 452 953 451 943 q 453 972 453 963 q 469 992 453 989 q 516 994 493 993 q 563 994 539 994 q 583 971 583 994 q 585 941 585 956 q 586 911 586 926 q 585 823 586 867 q 583 735 585 779 q 577 705 583 711 q 547 699 571 699 q 506 698 526 699 q 467 697 486 697 q 433 703 440 697 q 422 735 426 710 q 416 768 419 751 q 407 801 413 785 q 366 848 396 838 q 303 839 336 858 q 249 789 269 819 q 217 722 228 758 q 193 617 201 669 q 182 510 185 564 q 182 394 178 451 q 199 317 185 354 q 236 244 213 281 q 268 217 247 228 q 313 203 289 207 q 360 203 336 200 q 399 217 383 206 q 419 237 411 225 q 432 263 426 249 q 463 282 440 282 q 506 283 485 282 q 550 285 528 285 q 576 279 569 285 q 585 256 582 274 q 587 225 586 240 q 588 194 588 210 m 538 1096 q 513 1044 558 1051 q 460 1042 486 1042 q 408 1043 435 1042 q 389 1050 397 1043 q 376 1068 381 1057 q 362 1106 369 1088 q 347 1144 354 1125 l 339 1169 q 332 1171 335 1169 q 315 1130 324 1150 q 299 1088 306 1110 q 251 1047 286 1051 q 213 1044 232 1044 q 174 1042 193 1043 q 149 1078 135 1042 q 153 1087 151 1082 q 157 1096 154 1092 q 206 1188 181 1142 q 254 1282 231 1233 q 318 1322 274 1322 l 381 1326 q 425 1303 410 1326 q 538 1096 486 1206 z "},"Ē":{"ha":600,"x_min":-1,"x_max":539,"o":"m 515 153 q 539 128 539 149 q 538 85 539 106 q 535 43 538 64 q 486 3 529 3 q 328 1 407 1 q 168 0 249 0 q 106 -1 136 0 q 43 0 75 -1 q 12 9 19 1 q 1 40 4 17 q -1 89 -1 64 q 0 138 0 114 q 19 157 0 154 q 43 158 31 158 q 67 160 56 158 q 86 165 82 161 q 90 183 90 168 q 87 498 88 342 q 85 813 86 654 l 85 839 q 63 840 74 840 q 42 842 53 840 q 15 849 22 843 q 6 875 8 856 q 1 956 1 914 q 8 983 1 975 q 33 992 14 990 q 92 992 63 993 q 149 992 121 992 q 241 992 194 992 q 333 993 288 992 q 410 994 372 993 q 489 993 449 994 q 518 984 510 993 q 528 954 526 975 q 528 914 528 935 q 525 874 528 893 q 516 851 522 857 q 492 843 510 844 q 441 841 467 842 q 389 838 415 840 q 358 837 374 838 q 326 836 342 836 q 300 834 313 835 q 272 832 288 833 l 272 599 l 325 599 q 377 597 351 597 q 429 597 403 597 q 463 587 454 596 q 471 553 472 578 q 470 506 471 529 q 468 460 469 483 q 460 429 467 438 q 431 418 453 421 q 397 415 414 415 q 364 415 381 415 l 272 415 q 273 289 269 351 q 278 163 276 226 q 315 160 297 161 q 350 158 332 160 l 465 158 q 490 157 478 158 q 515 153 503 156 m 525 1157 q 529 1078 531 1117 q 520 1056 529 1064 q 499 1046 511 1049 q 464 1040 481 1043 q 429 1038 447 1038 q 351 1038 389 1038 q 272 1039 313 1039 q 183 1040 228 1040 q 92 1042 138 1040 q 70 1042 81 1042 q 49 1044 60 1043 q 14 1081 21 1050 q 11 1122 10 1101 q 18 1164 13 1143 q 49 1193 22 1189 q 63 1196 56 1196 q 78 1196 71 1196 l 263 1196 l 451 1196 q 474 1193 463 1196 q 496 1188 485 1190 q 525 1157 522 1183 z "},"Ĕ":{"ha":600,"x_min":-1,"x_max":539,"o":"m 515 153 q 539 128 539 149 q 538 85 539 106 q 535 43 538 64 q 486 3 529 3 q 328 1 407 1 q 168 0 249 0 q 106 -1 136 0 q 43 0 75 -1 q 12 9 19 1 q 1 40 4 17 q -1 89 -1 64 q 0 138 0 114 q 19 157 0 154 q 43 158 31 158 q 67 160 56 158 q 86 165 82 161 q 90 183 90 168 q 87 498 88 342 q 85 813 86 654 l 85 839 q 63 840 74 840 q 42 842 53 840 q 15 849 22 843 q 6 875 8 856 q 1 956 1 914 q 8 983 1 975 q 33 992 14 990 q 92 992 63 993 q 149 992 121 992 q 241 992 194 992 q 333 993 288 992 q 410 994 372 993 q 489 993 449 994 q 518 984 510 993 q 528 954 526 975 q 528 914 528 935 q 525 874 528 893 q 516 851 522 857 q 492 843 510 844 q 441 841 467 842 q 389 838 415 840 q 358 837 374 838 q 326 836 342 836 q 300 834 313 835 q 272 832 288 833 l 272 599 l 325 599 q 377 597 351 597 q 429 597 403 597 q 463 587 454 596 q 471 553 472 578 q 470 506 471 529 q 468 460 469 483 q 460 429 467 438 q 431 418 453 421 q 397 415 414 415 q 364 415 381 415 l 272 415 q 273 289 269 351 q 278 163 276 226 q 315 160 297 161 q 350 158 332 160 l 465 158 q 490 157 478 158 q 515 153 503 156 m 494 1311 q 522 1276 526 1311 q 517 1246 519 1257 q 472 1156 499 1197 q 403 1082 444 1114 q 306 1039 357 1047 q 201 1046 256 1031 q 105 1095 144 1061 q 39 1179 65 1129 q 14 1285 14 1229 q 20 1309 14 1301 q 42 1319 26 1317 q 73 1322 54 1322 q 93 1322 92 1322 l 121 1322 q 151 1315 144 1321 q 163 1286 158 1308 q 169 1259 165 1272 q 178 1232 172 1246 q 228 1169 190 1194 q 276 1155 254 1154 q 325 1182 299 1156 q 365 1256 354 1211 q 370 1274 368 1265 q 375 1290 372 1282 q 400 1311 379 1311 q 447 1312 424 1311 q 494 1311 471 1313 z "},"Ė":{"ha":600,"x_min":-1,"x_max":539,"o":"m 515 153 q 539 128 539 149 q 538 85 539 106 q 535 43 538 64 q 486 3 529 3 q 328 1 407 1 q 168 0 249 0 q 106 -1 136 0 q 43 0 75 -1 q 12 9 19 1 q 1 40 4 17 q -1 89 -1 64 q 0 138 0 114 q 19 157 0 154 q 43 158 31 158 q 67 160 56 158 q 86 165 82 161 q 90 183 90 168 q 87 498 88 342 q 85 813 86 654 l 85 839 q 63 840 74 840 q 42 842 53 840 q 15 849 22 843 q 6 875 8 856 q 1 956 1 914 q 8 983 1 975 q 33 992 14 990 q 92 992 63 993 q 149 992 121 992 q 241 992 194 992 q 333 993 288 992 q 410 994 372 993 q 489 993 449 994 q 518 984 510 993 q 528 954 526 975 q 528 914 528 935 q 525 874 528 893 q 516 851 522 857 q 492 843 510 844 q 441 841 467 842 q 389 838 415 840 q 358 837 374 838 q 326 836 342 836 q 300 834 313 835 q 272 832 288 833 l 272 599 l 325 599 q 377 597 351 597 q 429 597 403 597 q 463 587 454 596 q 471 553 472 578 q 470 506 471 529 q 468 460 469 483 q 460 429 467 438 q 431 418 453 421 q 397 415 414 415 q 364 415 381 415 l 272 415 q 273 289 269 351 q 278 163 276 226 q 315 160 297 161 q 350 158 332 160 l 465 158 q 490 157 478 158 q 515 153 503 156 m 260 1200 q 318 1174 294 1200 q 342 1114 342 1147 q 319 1059 342 1082 q 264 1036 296 1036 q 204 1060 229 1036 q 179 1117 179 1083 q 203 1177 179 1153 q 260 1200 226 1201 z "},"Ĝ":{"ha":708,"x_min":-3,"x_max":647,"o":"m 644 965 q 647 951 646 958 q 647 935 647 943 q 645 864 646 899 q 642 794 644 829 q 641 764 642 779 q 640 733 640 749 q 635 717 639 721 q 619 710 631 713 q 607 708 615 708 q 533 710 571 710 q 458 713 496 710 q 438 718 443 714 q 431 738 433 722 q 406 792 426 768 q 358 822 386 815 q 301 815 329 829 q 254 778 274 803 q 225 729 236 754 q 207 676 214 704 q 183 498 183 586 q 213 322 183 410 q 235 272 222 296 q 267 226 247 247 q 358 186 304 185 q 390 196 375 186 q 416 220 406 206 q 431 251 426 235 q 432 285 436 268 q 417 299 426 299 q 396 301 406 301 q 376 301 386 301 q 346 299 361 300 q 315 299 331 299 q 290 305 297 299 q 281 329 282 311 q 278 376 278 353 q 281 422 279 399 q 289 443 282 438 q 311 451 296 449 q 336 453 324 453 q 361 453 349 453 l 543 453 q 560 452 551 453 q 576 450 568 451 q 607 422 603 449 q 611 403 611 411 q 603 241 618 319 q 539 92 589 163 q 375 0 478 8 q 277 8 328 -4 q 181 47 226 21 q 98 115 135 74 q 42 211 61 157 q 4 393 10 301 q 2 557 -3 476 q 26 717 7 638 q 80 839 44 785 q 175 932 115 893 q 421 964 293 1007 q 456 949 439 958 q 492 929 472 939 q 494 948 493 940 q 494 964 494 956 q 522 993 499 993 q 618 989 569 993 q 644 965 640 988 m 543 1096 q 518 1044 564 1051 q 466 1042 492 1042 q 414 1043 440 1042 q 394 1050 403 1043 q 382 1068 386 1057 q 367 1106 375 1088 q 353 1144 360 1125 l 344 1169 q 338 1171 340 1169 q 320 1130 329 1150 q 304 1088 311 1110 q 257 1047 292 1051 q 218 1044 238 1044 q 179 1042 199 1043 q 154 1078 140 1042 q 158 1087 157 1082 q 163 1096 160 1092 q 211 1188 186 1142 q 260 1282 236 1233 q 324 1322 279 1322 l 386 1326 q 431 1303 415 1326 q 543 1096 492 1206 z "},"Ğ":{"ha":708,"x_min":-3,"x_max":647,"o":"m 644 965 q 647 951 646 958 q 647 935 647 943 q 645 864 646 899 q 642 794 644 829 q 641 764 642 779 q 640 733 640 749 q 635 717 639 721 q 619 710 631 713 q 607 708 615 708 q 533 710 571 710 q 458 713 496 710 q 438 718 443 714 q 431 738 433 722 q 406 792 426 768 q 358 822 386 815 q 301 815 329 829 q 254 778 274 803 q 225 729 236 754 q 207 676 214 704 q 183 498 183 586 q 213 322 183 410 q 235 272 222 296 q 267 226 247 247 q 358 186 304 185 q 390 196 375 186 q 416 220 406 206 q 431 251 426 235 q 432 285 436 268 q 417 299 426 299 q 396 301 406 301 q 376 301 386 301 q 346 299 361 300 q 315 299 331 299 q 290 305 297 299 q 281 329 282 311 q 278 376 278 353 q 281 422 279 399 q 289 443 282 438 q 311 451 296 449 q 336 453 324 453 q 361 453 349 453 l 543 453 q 560 452 551 453 q 576 450 568 451 q 607 422 603 449 q 611 403 611 411 q 603 241 618 319 q 539 92 589 163 q 375 0 478 8 q 277 8 328 -4 q 181 47 226 21 q 98 115 135 74 q 42 211 61 157 q 4 393 10 301 q 2 557 -3 476 q 26 717 7 638 q 80 839 44 785 q 175 932 115 893 q 421 964 293 1007 q 456 949 439 958 q 492 929 472 939 q 494 948 493 940 q 494 964 494 956 q 522 993 499 993 q 618 989 569 993 q 644 965 640 988 m 582 1311 q 610 1276 614 1311 q 604 1246 607 1257 q 559 1156 586 1197 q 490 1082 532 1114 q 394 1039 444 1047 q 289 1046 343 1031 q 192 1095 232 1061 q 126 1179 153 1129 q 101 1285 101 1229 q 108 1309 101 1301 q 129 1319 114 1317 q 160 1322 142 1322 q 181 1322 179 1322 l 208 1322 q 239 1315 232 1321 q 250 1286 246 1308 q 256 1259 253 1272 q 265 1232 260 1246 q 315 1169 278 1194 q 364 1155 342 1154 q 413 1182 386 1156 q 453 1256 442 1211 q 458 1274 456 1265 q 463 1290 460 1282 q 488 1311 467 1311 q 535 1312 511 1311 q 582 1311 558 1313 z "},"Ġ":{"ha":708,"x_min":-3,"x_max":647,"o":"m 644 965 q 647 951 646 958 q 647 935 647 943 q 645 864 646 899 q 642 794 644 829 q 641 764 642 779 q 640 733 640 749 q 635 717 639 721 q 619 710 631 713 q 607 708 615 708 q 533 710 571 710 q 458 713 496 710 q 438 718 443 714 q 431 738 433 722 q 406 792 426 768 q 358 822 386 815 q 301 815 329 829 q 254 778 274 803 q 225 729 236 754 q 207 676 214 704 q 183 498 183 586 q 213 322 183 410 q 235 272 222 296 q 267 226 247 247 q 358 186 304 185 q 390 196 375 186 q 416 220 406 206 q 431 251 426 235 q 432 285 436 268 q 417 299 426 299 q 396 301 406 301 q 376 301 386 301 q 346 299 361 300 q 315 299 331 299 q 290 305 297 299 q 281 329 282 311 q 278 376 278 353 q 281 422 279 399 q 289 443 282 438 q 311 451 296 449 q 336 453 324 453 q 361 453 349 453 l 543 453 q 560 452 551 453 q 576 450 568 451 q 607 422 603 449 q 611 403 611 411 q 603 241 618 319 q 539 92 589 163 q 375 0 478 8 q 277 8 328 -4 q 181 47 226 21 q 98 115 135 74 q 42 211 61 157 q 4 393 10 301 q 2 557 -3 476 q 26 717 7 638 q 80 839 44 785 q 175 932 115 893 q 421 964 293 1007 q 456 949 439 958 q 492 929 472 939 q 494 948 493 940 q 494 964 494 956 q 522 993 499 993 q 618 989 569 993 q 644 965 640 988 m 375 1200 q 433 1174 410 1200 q 457 1114 457 1147 q 434 1059 457 1082 q 379 1036 411 1036 q 319 1060 344 1036 q 294 1117 294 1083 q 318 1177 294 1153 q 375 1200 342 1201 z "},"Ĥ":{"ha":856,"x_min":-1,"x_max":794,"o":"m 771 149 q 792 126 792 146 q 794 81 793 103 q 794 36 794 60 q 786 9 794 17 q 758 1 778 1 q 683 0 721 0 q 610 0 646 0 q 554 -1 582 0 q 499 0 526 -1 q 468 9 476 1 q 458 38 460 17 q 458 79 457 58 q 460 121 458 100 q 469 145 461 139 q 494 153 476 151 l 532 153 l 532 413 l 258 413 q 256 283 256 347 q 256 153 256 219 q 277 150 267 151 q 297 146 288 149 q 325 113 324 140 q 327 74 326 93 q 328 36 328 56 q 317 10 328 21 q 292 0 307 0 q 173 0 232 0 q 54 1 114 0 q 15 12 26 1 q 1 50 4 22 q 1 108 -1 79 q 13 132 4 125 q 38 142 21 139 q 57 143 47 143 q 78 144 67 143 q 84 494 81 321 q 92 844 88 667 l 63 844 q 44 845 53 844 q 26 847 36 846 q 1 874 1 850 q 1 918 0 896 q 4 964 1 940 q 13 985 6 979 q 36 992 21 990 q 49 993 40 993 l 311 985 q 342 976 335 983 q 351 947 349 969 q 353 882 356 917 q 318 847 351 849 q 288 847 303 846 q 257 847 274 847 q 257 708 254 776 q 261 568 260 639 l 533 568 q 539 701 538 635 q 540 838 540 768 q 519 840 529 839 q 497 842 508 840 q 475 849 482 844 q 467 869 468 854 q 463 912 464 890 q 464 956 463 933 q 476 977 465 971 q 499 986 486 983 q 528 990 514 989 q 557 993 542 992 q 647 995 601 996 q 738 989 693 994 q 776 974 765 985 q 790 936 788 964 q 792 883 794 914 q 754 843 790 849 q 733 840 743 840 q 710 838 722 840 l 710 807 q 706 540 707 672 q 703 272 706 407 q 702 224 703 249 q 701 176 701 200 q 704 158 700 161 q 724 151 708 154 q 748 150 736 150 q 771 149 760 150 m 594 1096 q 569 1044 615 1051 q 517 1042 543 1042 q 465 1043 492 1042 q 446 1050 454 1043 q 433 1068 438 1057 q 419 1106 426 1088 q 404 1144 411 1125 l 396 1169 q 389 1171 392 1169 q 372 1130 381 1150 q 356 1088 363 1110 q 308 1047 343 1051 q 269 1044 289 1044 q 231 1042 250 1043 q 206 1078 192 1042 q 210 1087 208 1082 q 214 1096 211 1092 q 263 1188 238 1142 q 311 1282 288 1233 q 375 1322 331 1322 l 438 1326 q 482 1303 467 1326 q 594 1096 543 1206 z "},"Ŷ":{"ha":840,"x_min":0,"x_max":781,"o":"m 721 1003 q 769 989 757 1001 q 778 940 781 976 q 776 928 776 933 q 776 915 776 922 q 758 872 772 886 q 714 857 743 858 q 683 856 699 856 q 654 857 668 857 q 651 854 651 854 q 649 853 650 854 q 565 697 607 774 q 481 543 524 621 q 472 519 474 531 q 469 492 469 507 q 474 351 472 421 q 478 211 475 282 q 478 182 478 196 q 481 153 479 168 q 501 152 492 153 q 522 151 511 151 q 575 92 576 147 q 575 70 575 81 q 572 49 575 60 q 526 4 567 8 q 419 0 472 -1 q 353 2 386 0 q 285 6 319 4 l 275 6 q 230 19 240 8 q 218 64 219 29 q 217 87 218 75 q 218 110 217 99 q 249 144 219 139 q 277 148 263 147 q 308 151 292 149 q 309 166 308 158 q 308 182 310 174 q 302 326 306 254 q 294 472 299 399 q 289 497 294 488 q 206 674 247 586 q 122 850 164 761 q 118 858 119 854 q 114 865 117 861 q 79 869 96 868 q 46 871 63 869 q 16 882 25 874 q 4 910 7 890 q 1 940 1 925 q 0 971 0 956 q 32 1004 0 1003 q 108 1004 71 1004 q 185 1003 146 1004 q 238 1002 211 1003 q 290 1000 264 1001 q 326 989 317 999 q 338 953 336 979 q 337 933 338 943 q 335 913 336 924 q 296 868 331 876 q 283 864 289 868 q 331 758 307 811 q 382 649 356 706 q 433 759 408 706 q 482 867 457 813 q 469 869 475 868 q 458 869 464 869 q 428 896 431 869 q 426 937 426 915 q 426 979 426 958 q 447 999 429 996 q 467 1003 457 1001 q 488 1004 476 1004 l 706 1004 q 713 1003 708 1004 q 721 1003 717 1003 m 594 1096 q 569 1044 615 1051 q 517 1042 543 1042 q 465 1043 492 1042 q 446 1050 454 1043 q 433 1068 438 1057 q 419 1106 426 1088 q 404 1144 411 1125 l 396 1169 q 389 1171 392 1169 q 372 1130 381 1150 q 356 1088 363 1110 q 308 1047 343 1051 q 269 1044 289 1044 q 231 1042 250 1043 q 206 1078 192 1042 q 210 1087 208 1082 q 214 1096 211 1092 q 263 1188 238 1142 q 311 1282 288 1233 q 375 1322 331 1322 l 438 1326 q 482 1303 467 1326 q 594 1096 543 1206 z "},"Ŵ":{"ha":1103,"x_min":0,"x_max":1046,"o":"m 979 1004 q 1040 933 1046 1004 q 1039 926 1039 931 q 1038 918 1039 922 q 1020 874 1033 888 q 975 858 1007 861 q 962 857 968 857 q 947 857 956 857 q 928 794 938 825 q 910 731 918 763 q 838 435 874 582 q 767 139 803 288 q 756 97 761 118 q 744 56 751 76 q 726 25 738 33 q 690 17 714 17 l 624 17 q 586 39 599 17 q 538 136 561 88 q 516 189 526 163 q 493 244 506 215 q 488 232 490 238 q 482 222 485 226 q 448 140 465 181 q 415 57 431 99 q 333 0 393 0 q 293 2 308 0 q 267 12 278 4 q 251 34 257 19 q 239 72 244 49 q 199 262 218 168 q 161 451 179 356 q 124 651 142 551 q 89 851 107 751 q 87 857 88 854 q 85 863 86 860 q 63 863 74 863 q 42 864 53 863 q 4 893 8 864 q 1 935 1 914 q 0 976 0 956 q 9 995 0 989 q 29 1004 18 1001 q 51 1008 40 1007 q 72 1010 61 1010 q 170 1009 121 1010 q 268 1008 219 1008 q 304 979 297 1007 q 308 938 311 958 q 300 897 306 917 q 285 878 296 883 q 263 869 275 872 q 248 867 256 867 q 229 865 240 867 q 285 561 257 713 q 349 254 313 410 q 354 265 351 261 q 358 272 357 268 q 397 374 378 324 q 433 478 415 425 q 447 499 439 492 q 469 508 454 507 q 502 510 486 510 q 535 510 518 510 q 569 483 561 507 q 586 429 578 456 q 604 375 594 403 l 629 292 q 633 283 631 288 q 638 272 635 279 q 715 570 678 424 q 792 865 753 717 q 777 867 783 867 q 764 868 771 867 q 721 908 725 872 q 719 938 718 924 q 721 967 719 951 q 746 994 724 990 q 771 1001 758 997 q 796 1004 783 1004 q 979 1004 888 1006 m 721 1096 q 696 1044 742 1051 q 644 1042 669 1042 q 592 1043 618 1042 q 572 1050 581 1043 q 560 1068 564 1057 q 545 1106 553 1088 q 531 1144 538 1125 l 522 1169 q 515 1171 518 1169 q 498 1130 507 1150 q 482 1088 489 1110 q 435 1047 469 1051 q 396 1044 415 1044 q 357 1042 376 1043 q 332 1078 318 1042 q 336 1087 335 1082 q 340 1096 338 1092 q 389 1188 364 1142 q 438 1282 414 1233 q 501 1322 457 1322 l 564 1326 q 608 1303 593 1326 q 721 1096 669 1206 z "},"Ŝ":{"ha":644,"x_min":0,"x_max":583,"o":"m 539 993 q 579 957 574 992 q 583 921 583 940 q 582 826 582 872 q 579 732 582 779 q 569 701 578 708 q 538 690 561 693 q 494 689 515 689 q 451 689 472 689 q 417 711 425 688 q 407 738 411 725 q 396 763 403 750 q 381 793 389 778 q 364 824 374 808 q 331 855 351 844 q 288 868 311 865 q 231 838 249 872 q 221 769 213 804 q 256 701 229 732 q 292 660 274 681 q 331 619 311 639 q 381 565 356 592 q 431 511 407 539 q 508 385 481 453 q 536 238 536 317 q 522 150 538 192 q 478 72 506 108 q 457 51 469 61 q 432 35 444 42 q 350 8 392 15 q 264 3 308 0 q 239 3 251 4 q 214 6 226 3 q 179 15 196 10 q 144 28 163 21 q 127 5 140 10 q 97 0 114 0 q 70 0 83 0 q 43 1 57 0 q 10 36 11 6 q 6 63 7 50 q 4 90 4 76 q 1 163 1 126 q 0 235 1 199 q 1 249 0 242 q 3 264 1 257 q 15 295 7 288 q 46 306 22 303 q 81 309 64 308 q 118 308 99 310 q 149 297 140 306 q 160 267 157 289 q 162 240 161 253 q 163 214 163 228 q 175 183 163 194 q 225 148 199 160 q 286 143 251 136 q 335 171 318 150 q 353 224 353 192 q 308 350 353 293 q 276 388 293 369 q 242 425 260 406 q 199 469 221 447 q 157 514 178 490 q 95 601 119 554 q 63 703 71 649 q 70 835 51 774 q 142 944 89 896 q 224 992 179 981 q 319 1001 269 1004 q 351 998 339 1000 q 373 992 363 996 q 397 979 383 988 q 435 957 411 971 q 453 990 442 982 q 492 996 464 997 q 515 995 503 996 q 539 993 528 994 m 532 1096 q 507 1044 553 1051 q 455 1042 481 1042 q 403 1043 429 1042 q 383 1050 392 1043 q 371 1068 375 1057 q 356 1106 364 1088 q 342 1144 349 1125 l 333 1169 q 326 1171 329 1169 q 309 1130 318 1150 q 293 1088 300 1110 q 246 1047 281 1051 q 207 1044 226 1044 q 168 1042 188 1043 q 143 1078 129 1042 q 147 1087 146 1082 q 151 1096 149 1092 q 200 1188 175 1142 q 249 1282 225 1233 q 313 1322 268 1322 l 375 1326 q 419 1303 404 1326 q 532 1096 481 1206 z "},"Ō":{"ha":782,"x_min":-10,"x_max":721,"o":"m 683 747 q 712 626 703 689 q 721 479 721 563 q 706 346 718 421 q 664 194 694 271 q 631 129 649 158 q 541 38 594 68 q 418 1 488 7 q 103 142 225 -15 q 42 251 63 193 q 10 372 21 310 q 9 591 -10 485 q 76 800 28 697 q 106 852 89 828 q 144 900 124 876 q 338 996 219 981 q 417 992 379 1001 q 493 967 456 983 q 613 878 568 935 q 683 747 657 822 m 501 231 q 542 339 531 283 q 554 453 554 394 q 544 561 554 508 q 515 665 533 614 q 469 758 497 714 q 443 790 458 776 q 413 819 428 804 q 343 829 379 846 q 290 796 315 817 q 248 742 263 772 q 222 679 233 711 q 197 531 200 606 q 204 382 194 457 q 219 315 208 347 q 249 251 229 282 q 308 192 274 213 q 388 174 342 171 q 397 173 393 174 q 404 174 401 172 q 461 189 436 176 q 501 231 486 201 m 615 1157 q 619 1078 621 1117 q 610 1056 619 1064 q 589 1046 601 1049 q 554 1040 571 1043 q 519 1038 538 1038 q 441 1038 479 1038 q 363 1039 403 1039 q 273 1040 318 1040 q 182 1042 228 1040 q 160 1042 171 1042 q 139 1044 150 1043 q 104 1081 111 1050 q 101 1122 100 1101 q 108 1164 103 1143 q 139 1193 113 1189 q 153 1196 146 1196 q 168 1196 161 1196 l 353 1196 l 542 1196 q 564 1193 553 1196 q 586 1188 575 1190 q 615 1157 613 1183 z "},"Ŏ":{"ha":782,"x_min":-10,"x_max":721,"o":"m 683 747 q 712 626 703 689 q 721 479 721 563 q 706 346 718 421 q 664 194 694 271 q 631 129 649 158 q 541 38 594 68 q 418 1 488 7 q 103 142 225 -15 q 42 251 63 193 q 10 372 21 310 q 9 591 -10 485 q 76 800 28 697 q 106 852 89 828 q 144 900 124 876 q 338 996 219 981 q 417 992 379 1001 q 493 967 456 983 q 613 878 568 935 q 683 747 657 822 m 501 231 q 542 339 531 283 q 554 453 554 394 q 544 561 554 508 q 515 665 533 614 q 469 758 497 714 q 443 790 458 776 q 413 819 428 804 q 343 829 379 846 q 290 796 315 817 q 248 742 263 772 q 222 679 233 711 q 197 531 200 606 q 204 382 194 457 q 219 315 208 347 q 249 251 229 282 q 308 192 274 213 q 388 174 342 171 q 397 173 393 174 q 404 174 401 172 q 461 189 436 176 q 501 231 486 201 m 593 1311 q 621 1276 625 1311 q 615 1246 618 1257 q 570 1156 597 1197 q 501 1082 543 1114 q 405 1039 456 1047 q 300 1046 354 1031 q 203 1095 243 1061 q 138 1179 164 1129 q 113 1285 113 1229 q 119 1309 113 1301 q 140 1319 125 1317 q 172 1322 153 1322 q 192 1322 190 1322 l 219 1322 q 250 1315 243 1321 q 261 1286 257 1308 q 267 1259 264 1272 q 276 1232 271 1246 q 326 1169 289 1194 q 375 1155 353 1154 q 424 1182 397 1156 q 464 1256 453 1211 q 469 1274 467 1265 q 474 1290 471 1282 q 499 1311 478 1311 q 546 1312 522 1311 q 593 1311 569 1313 z "},"š":{"ha":644,"x_min":0,"x_max":583,"o":"m 539 993 q 515 995 528 994 q 492 996 503 996 q 453 990 464 997 q 435 957 442 982 q 397 979 411 971 q 373 992 383 988 q 351 998 363 996 q 319 1001 339 1000 q 224 992 269 1004 q 142 944 179 981 q 70 835 89 896 q 63 703 51 774 q 95 601 71 649 q 157 514 119 554 q 199 469 178 490 q 242 425 221 447 q 276 388 260 406 q 308 350 293 369 q 353 224 353 293 q 335 171 353 192 q 286 143 318 150 q 225 148 251 136 q 175 183 199 160 q 163 214 163 194 q 162 240 163 228 q 160 267 161 253 q 149 297 157 289 q 118 308 140 306 q 81 309 99 310 q 46 306 64 308 q 15 295 22 303 q 3 264 7 288 q 1 249 1 257 q 0 235 0 242 q 1 163 1 199 q 4 90 1 126 q 6 63 4 76 q 10 36 7 50 q 43 1 11 6 q 70 0 57 0 q 97 0 83 0 q 127 5 114 0 q 144 28 140 10 q 179 15 163 21 q 214 6 196 10 q 239 3 226 3 q 264 3 251 4 q 350 8 308 0 q 432 35 392 15 q 457 51 444 42 q 478 72 469 61 q 522 150 506 108 q 536 238 538 192 q 508 385 536 317 q 431 511 481 453 q 381 565 407 539 q 331 619 356 592 q 292 660 311 639 q 256 701 274 681 q 221 769 229 732 q 231 838 213 804 q 288 868 249 872 q 331 855 311 865 q 364 824 351 844 q 381 793 374 808 q 396 763 389 778 q 407 738 403 750 q 417 711 411 725 q 451 689 425 688 q 494 689 472 689 q 538 690 515 689 q 569 701 561 693 q 579 732 578 708 q 582 826 582 779 q 583 921 582 872 q 579 957 583 940 q 539 993 574 992 m 93 1319 q 157 1319 125 1319 q 221 1321 189 1319 q 253 1301 243 1321 q 278 1246 265 1274 q 304 1190 292 1218 q 313 1172 308 1181 q 325 1151 318 1163 q 333 1167 329 1161 q 340 1179 338 1172 q 376 1239 358 1210 q 410 1300 393 1268 q 427 1317 417 1313 q 451 1321 438 1321 q 499 1320 475 1319 q 547 1321 524 1321 q 560 1321 554 1321 q 569 1314 567 1321 q 569 1300 572 1308 q 565 1290 565 1292 q 494 1178 529 1233 q 425 1068 460 1124 q 376 1043 407 1042 l 285 1047 q 259 1055 269 1047 q 239 1074 249 1063 q 165 1177 203 1126 q 92 1279 128 1228 q 86 1287 89 1283 q 81 1294 83 1290 q 93 1319 68 1317 z "},"ś":{"ha":644,"x_min":0,"x_max":583,"o":"m 539 993 q 579 957 574 992 q 583 921 583 940 q 582 826 582 872 q 579 732 582 779 q 569 701 578 708 q 538 690 561 693 q 494 689 515 689 q 451 689 472 689 q 417 711 425 688 q 407 738 411 725 q 396 763 403 750 q 381 793 389 778 q 364 824 374 808 q 331 855 351 844 q 288 868 311 865 q 231 838 249 872 q 221 769 213 804 q 256 701 229 732 q 292 660 274 681 q 331 619 311 639 q 381 565 356 592 q 431 511 407 539 q 508 385 481 453 q 536 238 536 317 q 522 150 538 192 q 478 72 506 108 q 457 51 469 61 q 432 35 444 42 q 350 8 392 15 q 264 3 308 0 q 239 3 251 4 q 214 6 226 3 q 179 15 196 10 q 144 28 163 21 q 127 5 140 10 q 97 0 114 0 q 70 0 83 0 q 43 1 57 0 q 10 36 11 6 q 6 63 7 50 q 4 90 4 76 q 1 163 1 126 q 0 235 1 199 q 1 249 0 242 q 3 264 1 257 q 15 295 7 288 q 46 306 22 303 q 81 309 64 308 q 118 308 99 310 q 149 297 140 306 q 160 267 157 289 q 162 240 161 253 q 163 214 163 228 q 175 183 163 194 q 225 148 199 160 q 286 143 251 136 q 335 171 318 150 q 353 224 353 192 q 308 350 353 293 q 276 388 293 369 q 242 425 260 406 q 199 469 221 447 q 157 514 178 490 q 95 601 119 554 q 63 703 71 649 q 70 835 51 774 q 142 944 89 896 q 224 992 179 981 q 319 1001 269 1004 q 351 998 339 1000 q 373 992 363 996 q 397 979 383 988 q 435 957 411 971 q 453 990 442 982 q 492 996 464 997 q 515 995 503 996 q 539 993 528 994 m 536 1318 q 558 1306 551 1315 q 558 1282 564 1296 q 539 1239 553 1263 q 475 1145 508 1190 q 403 1058 442 1100 q 372 1042 389 1042 q 351 1041 361 1040 q 333 1040 340 1042 l 254 1040 q 244 1042 250 1042 q 226 1076 211 1049 q 240 1098 233 1088 q 254 1119 246 1108 q 317 1197 286 1158 q 379 1275 347 1236 q 439 1310 401 1304 q 478 1315 458 1313 q 518 1319 499 1317 q 527 1319 522 1319 q 536 1318 532 1319 z "},"ž":{"ha":749,"x_min":-1,"x_max":688,"o":"m 683 219 q 681 233 682 226 q 678 247 681 240 q 647 272 668 271 q 599 274 624 274 q 550 272 575 275 q 519 258 528 269 q 511 225 511 247 l 511 193 q 397 190 453 192 q 281 188 340 189 q 289 204 286 199 q 324 263 307 233 q 361 319 342 292 q 463 469 411 394 q 563 618 514 543 q 601 683 583 650 q 638 749 619 717 q 656 833 660 788 q 651 890 653 861 q 646 946 649 918 q 625 985 643 969 q 583 1001 607 1001 l 160 1001 q 119 1002 139 1001 q 79 1003 99 1003 q 40 968 42 1001 q 38 864 35 915 q 44 760 40 813 q 53 732 46 740 q 81 722 61 724 q 136 722 108 721 q 192 725 164 724 q 228 760 221 729 q 229 776 229 768 q 231 793 229 785 q 232 807 232 800 q 233 822 232 814 q 361 826 299 821 q 489 829 424 832 q 485 821 486 824 q 482 815 483 818 q 416 719 449 767 q 349 625 383 672 q 190 410 269 517 q 31 194 111 303 q 19 176 24 186 q 11 154 14 165 q 3 106 6 131 q 0 57 1 82 q 10 24 -1 36 q 43 10 22 13 q 64 8 54 8 q 85 8 74 8 q 316 7 201 7 q 547 6 431 7 q 590 2 568 4 q 632 0 611 0 q 667 8 657 -1 q 682 42 678 18 q 683 48 682 44 q 683 54 683 51 q 687 137 688 96 q 683 219 686 178 m 144 1319 q 208 1319 176 1319 q 272 1321 240 1319 q 304 1301 294 1321 q 330 1246 317 1274 q 356 1190 343 1218 q 365 1172 360 1181 q 376 1151 369 1163 q 385 1167 381 1161 q 392 1179 389 1172 q 427 1239 410 1210 q 461 1300 444 1268 q 478 1317 468 1313 q 503 1321 489 1321 q 551 1320 526 1319 q 599 1321 575 1321 q 612 1321 606 1321 q 621 1314 618 1321 q 620 1300 624 1308 q 617 1290 617 1292 q 546 1178 581 1233 q 476 1068 511 1124 q 428 1043 458 1042 l 336 1047 q 310 1055 321 1047 q 290 1074 300 1063 q 217 1177 254 1126 q 143 1279 179 1228 q 138 1287 140 1283 q 132 1294 135 1290 q 144 1319 119 1317 z "}}}
